<svg id="svg" version="1.1" viewBox="0 0 300 300" width="300" height="300" xmlns="http://www.w3.org/2000/svg"><defs><clipPath id="clip-1"><rect x="0" y="0" transform="scale(0.14648,0.14648)" width="2048" height="2048" fill="none"/></clipPath></defs><g clip-path="url(#clip-1)" fill="none" fill-rule="nonzero" stroke="none" stroke-width="1" stroke-linecap="butt" stroke-linejoin="miter" stroke-miterlimit="10" stroke-dasharray="" stroke-dashoffset="0" font-family="none" font-weight="none" font-size="none" text-anchor="none" style="mix-blend-mode: normal"><path d="M226.78125,106.55537c6.2959,-0.55825 10.63916,2.22744 14.45508,6.90835c5.80664,-0.4144 10.64355,1.65352 14.1123,6.47637c1.11182,1.54644 1.59521,3.1834 2.19141,4.9645c8.64404,3.64102 11.25732,10.62817 7.87646,19.29463c2.51514,2.47998 4.2041,3.65918 4.8208,7.43701c1.22314,7.48975 -2.6748,13.72852 -10.27881,15.00879c0.71631,1.93799 1.30225,3.57422 1.32861,5.66748c0.07471,5.97803 -5.21484,11.25732 -11.10498,11.60889c-3.67236,0.21973 -7.39893,-0.07471 -11.08887,0.07471c-0.27539,2.31152 0.16553,13.06787 -0.5083,14.19287c-0.29736,0.49658 -0.71191,0.76611 -1.28174,0.85693c-0.63428,0.10107 -1.56738,0.04248 -2.06689,-0.41162c-0.96094,-0.87158 -0.58594,-10.55713 -0.59766,-12.35156c-1.88672,-2.78467 -7.44287,-6.68701 -9.18018,-9.6167c-0.07617,-1.18652 -0.4292,-6.00732 0.52588,-6.57129c0.74268,0.13916 4.43848,4.42822 5.7085,5.34814c2.48438,0.12744 5.86963,0.03369 8.43311,0.03809l16.2041,-0.01025c0.38525,-1.00342 0.50244,-1.42529 0.62109,-2.47998c-7.69629,-0.41602 -16.90723,0.37939 -24.50684,-0.16113c-2.37012,-1.69336 -4.73437,-5.17529 -6.6958,-6.55957c-3.99756,-0.17871 -2.46094,1.85156 -2.85352,5.22217c-0.09375,0.8042 -0.0791,5.31299 0.14063,5.77441c1.87793,3.84082 7.06055,6.55518 8.98096,10.21143c0.38818,0.73975 0.04834,8.14453 0.17432,9.42627c0.27246,2.76563 -3.95361,3.23438 -4.15869,1.13818c-0.31201,-3.16992 -0.08643,-6.29883 -0.41455,-9.56396c-2.74219,-2.84473 -5.82861,-5.53418 -8.58545,-8.3877c-0.68701,-0.71191 -1.28906,-1.28027 -1.90576,-2.07861c-0.12598,-1.13232 -0.15967,-2.27051 -0.20801,-3.40869c-3.33105,0.4292 -5.7583,2.24707 -9.87598,1.80469c-3.43213,-0.28857 -7.1499,-1.94531 -9.42627,-4.57178c-0.71045,-0.81885 -2.58838,-3.14502 -2.49902,-4.24951c0.32666,-0.19336 1.66699,-0.19482 2.21191,-0.16406c4.19092,0.23584 8.06396,-2.84619 9.3457,-6.71045c0.22119,-1.32275 0.15967,-2.87695 0.1377,-4.19385c-0.11572,-6.84229 0.0249,-13.73774 -0.11426,-20.57314c0.07471,-0.09463 0.14941,-0.18853 0.22559,-0.28184c1.24219,-1.49736 3.56689,-4.48828 5.10205,-5.46328c1.48242,-0.94263 12.31055,-0.23804 15.17725,-0.51753l0.20361,-0.02095c1.99219,-1.37739 5.54004,-5.92646 7.36523,-7.80015c3.35889,-3.4459 1.64209,-1.50249 5.71143,-1.9667c4.60254,-0.525 7.48389,0.09287 10.25391,4.03945c-1.25244,0.37368 -3.09814,0.88242 -3.41455,2.30742c-1.06055,4.81978 4.23486,3.91714 7.26416,4.44902c4.49268,0.78867 7.70654,5.8374 5.51953,10.07417c-0.78955,1.53003 -2.16504,2.33013 -3.60059,3.19819c-0.02197,1.52183 -0.39551,4.83999 0.55078,6.09097c0.28271,0.375 0.12305,-0.13184 0.20947,0.41748c-1.22607,1.37109 -2.10498,2.8623 0.6665,3.27686c1.97021,0.2959 1.61572,-2.66602 1.44727,-3.82178c-0.08936,-0.61816 -0.22705,-1.26416 0.29297,-1.74756c0.82617,-0.04248 1.74756,0.78516 2.38184,1.31836c1.86035,1.56152 2.00391,2.7041 2.17383,4.94971c-0.09961,1.19385 -0.31055,2.4917 -0.85547,3.54199c-1.41943,3.13037 -4.76514,1.5249 -7.01807,2.32324c-3.15967,1.11768 -2.34082,5.1709 1.42822,2.36719c0.66797,-0.02197 1.55273,-0.01318 2.18994,-0.11719c5.74512,-0.98584 8.13574,-7.45166 5.59277,-12.33398c-1.51904,-2.9209 -3.57861,-3.19629 -5.93848,-4.92012c0.66943,-0.93223 1.98926,-2.579 2.40527,-3.49907c2.78174,-6.14062 -1.34766,-12.98262 -8.01709,-13.68691c-0.95361,-0.10063 -3.54346,0.08936 -4.10303,-0.23335c-0.05566,-1.47056 2.19141,-2.08564 3.21533,-3.40664c-0.35742,-1.85859 -1.46777,-3.50801 -2.98389,-4.61279c-3.54492,-2.58354 -6.88477,-2.53726 -10.93506,-1.99687c-0.61963,-0.72202 -1.27148,-1.81934 -1.82666,-2.65825c-3.06152,-4.64443 -10.06055,-5.96528 -14.78467,-3.22778c-2.47705,1.43525 -3.29736,3.10503 -3.97852,5.76372c-2.0918,0.19687 -4.30664,0.16421 -6.41748,0.17388l-0.14062,0.09199c-2.43164,1.56313 -3.20068,3.76143 -5.0332,5.08037c-1.53662,0.13403 -3.2124,0.09814 -4.75928,0.06753c-2.83887,-2.12461 -4.16309,-1.46924 -3.00586,2.07451c-0.47754,0.70195 -2.36719,3.11616 -3.09229,3.33721c-2.65869,0.81123 -5.41113,1.49004 -8.04785,2.44746c-0.50391,0.1834 -1.22314,-0.29561 -1.90283,0.11016c-1.14404,1.33638 -0.38672,3.13799 1.33594,3.25444c1.65967,0.11235 2.50928,-1.45796 3.81592,-2.16387c1.01074,-0.54609 2.55176,-0.67983 3.68555,-0.95039c3.31055,-0.50684 4.50732,-3.08452 6.73389,-5.32339l0.1377,-0.13638c1.98779,-0.41646 4.125,0.1626 5.89307,-0.4459c2.3833,-0.82075 3.47021,-4.58452 6.03809,-5.24575c1.94092,-0.4998 4.57617,0.49102 6.28711,-0.76538c1.81348,-1.60781 0.62402,-3.51665 3.24609,-5.1665c2.09619,-1.31836 4.59082,-1.52959 6.97266,-1.02759c2.79346,0.58901 4.32275,2.03203 5.79346,4.3084c-3.57715,2.93276 -6.30762,6.71587 -9.76025,9.56836c-0.66504,0.54888 -8.2207,0.26616 -9.51123,0.26748c-1.88965,-0.01245 -3.7793,0.04292 -5.66455,0.16597c-2.55322,1.43057 -4.82666,5.45083 -7.09424,7.08149c-2.21924,0.51138 -5.39648,-0.02725 -8.20605,0.5001c-1.88232,1.7814 -6.66504,11.88823 -7.83691,12.37456c-1.25684,-0.45703 -6.5083,-9.45923 -7.5249,-11.11816c-1.14258,-1.86401 -0.06738,-5.58047 1.83252,-6.98203c2.75098,-2.02998 4.5498,-1.04766 7.48828,-1.97329c0.55664,-0.36123 0.25488,-5.86143 3.59473,-8.11875c4.2627,-2.8812 6.27246,-2.46665 11.0874,-2.04214c1.02393,-0.66826 2.04785,-1.9979 3.22705,-2.85073c2.20313,-1.59375 5.63965,0.77505 6.89355,-1.35015c-0.02344,-2.05781 -5.92676,-1.63989 -7.26123,-1.31147c-1.27881,0.31436 -2.69385,1.93184 -3.59033,2.88062c-1.38867,-0.02812 -2.7085,-0.19966 -4.11768,-0.14355c-6.97852,0.27759 -11.00098,3.97515 -12.15381,10.6793c-7.00781,0.52925 -9.24902,2.5002 -10.47363,9.4084c-0.9873,0.10078 -3.03223,0.22061 -3.94482,-0.05127c-1.21729,-1.17905 0.38086,-4.92949 1.07666,-6.23203c2.19287,-4.09819 5.45068,-5.66719 9.67383,-6.9145c1.40918,-2.00552 1.48828,-3.86675 3.94922,-6.10767c4.771,-4.34297 7.8457,-4.63813 13.7666,-4.60107c2.51514,-1.73203 4.13379,-3.05435 7.34766,-3.41265c3.49658,-0.38965 6.49219,0.59121 9.2168,2.72109c0.44971,-0.20142 1.76807,-1.04941 2.23096,-1.33682c2.27344,-1.41372 3.76465,-1.8041 6.37646,-2.01694zM228.65918,160.72119l3.81738,-0.03662c1.03418,1.90723 1.79297,4.59375 2.88867,6.76172c1.35938,0.00586 4.6333,0.36768 5.68506,-0.50977c0.17871,-0.14941 0.14209,-0.11572 0.1377,-0.35449c-0.03223,-1.56592 -11.3335,-28.40288 -12.5918,-30.47417c-1.79297,-0.23599 -3.83936,-0.17607 -5.6543,-0.12979c-0.479,0.46509 -0.81592,1.04194 -1.06641,1.65996c-3.69727,9.14077 -7.37988,18.28872 -11.09912,27.42202c-0.28125,0.68994 -0.43945,1.44287 -0.06592,2.10645c0.89063,0.375 4.51025,0.4541 5.2749,0.21973c1.46484,-0.44824 1.77246,-6.17139 3.47314,-6.43213c2.65723,-0.40869 6.40869,-0.1626 9.20068,-0.23291zM250.74316,167.3291c0.48486,-0.60791 0.38672,-2.12549 0.36035,-2.92676c-0.29443,-9.35449 0.31641,-19.06069 -0.0791,-28.38398c-1.54834,-0.07808 -4.1001,-0.14971 -5.6499,-0.00557c-0.50537,0.98335 -0.32959,5.27607 -0.32666,6.5959l0.01758,9.57686l0.01318,7.58936c-0.00146,2.25586 -0.1377,4.96875 0.33252,7.12061c0.69873,0.85547 4.19092,0.57129 5.33203,0.43359zM240.21533,137.94185c0.73975,-0.52954 1.96143,-1.86489 1.00928,-2.72139c-1.19385,-1.07417 -4.01807,0.34468 -4.12061,-2.38374c-0.08936,-2.38403 3.62695,-2.90288 3.84082,-5.15918c0.06006,-0.64937 -0.76172,-1.01792 -1.28467,-1.13071c-1.05469,0.48091 -4.18652,3.65479 -4.63184,4.77744c-0.89355,2.24561 1.84131,5.70264 3.77051,6.75073c0.31201,0.16919 1.1001,-0.02168 1.4165,-0.13315zM242.91943,179.99561c1.74756,0.19629 3.18457,0.15527 4.9292,0.11426c2.34521,-0.0542 4.40332,-0.09814 6.23877,-1.81055c0.38672,-0.36182 0.73389,-0.52148 0.87891,-1.09131c-0.31494,-0.20068 -0.13184,-0.1377 -0.62109,-0.03662c-2.2749,0.19482 -11.05957,0.06152 -12.25488,0.49219c-0.64893,0.85254 -0.18164,1.91895 0.8291,2.33203z" fill="#000000"/><path d="M225.68701,144.38921c0.90088,0.94233 4.19385,9.49995 4.67578,10.9897c-1.48975,0.13037 -2.66895,0.15381 -4.1543,0.16699l-4.94092,-0.03369c0.47021,-1.63916 3.60059,-9.79453 4.41943,-11.123z" fill="#000000"/><path d="M173.4126,137.44556c4.18066,-0.2332 4.21143,-0.48018 6.17578,3.17344c2.63818,4.9103 5.61768,9.64468 8.32178,14.53433c0.94482,-1.39746 2.16357,-3.77637 2.99854,-5.29541c1.42383,-2.58838 2.87109,-5.16445 4.34473,-7.72603c0.69873,-1.2397 1.86182,-4.07065 3.20654,-4.55391c1.08105,-0.38848 4.20996,-0.38643 4.83398,0.84551c0.33252,0.65566 0.41895,1.68647 0.44092,2.43633c-0.08936,6.65581 0.02783,13.27544 0.02197,19.93462c0.43213,2.75244 -3.28564,4.65381 -4.97021,2.75244c-0.93018,-1.05029 -0.5332,-7.70068 -0.52148,-9.11572c0.00732,-2.06543 0.03369,-4.12939 -0.03662,-6.19336c-1.86035,2.43018 -4.09424,7.33154 -5.82568,10.04443c-0.93311,1.46191 -1.53223,3.06152 -2.88281,4.30371c-1.22754,0.09229 -1.73291,0.0835 -2.96484,-0.00732c-2.03174,-1.76367 -5.13867,-7.99219 -6.71338,-10.52637c-0.76172,-1.22607 -1.21582,-2.45508 -2.29834,-3.64014c-0.01172,3.46436 -0.00146,6.92871 0.03076,10.39453c0.01025,1.28467 0.25049,5.82129 -0.37939,6.65771c-1.1001,0.75146 -3.84229,0.98291 -4.88672,-0.00732c-0.5376,-1.69043 -0.01465,-23.19712 -0.18018,-26.56978c-0.01318,-0.26499 0.05859,-0.61567 0.19189,-0.86455c0.19775,-0.37017 0.69141,-0.46025 1.09277,-0.57715z" fill="#000000"/><path d="M159.06152,137.3313c1.771,-0.02534 6.29736,-0.27275 7.75195,0.36445c0.41455,0.41587 0.44678,0.76289 0.47314,1.31748c0.03662,0.79116 0.22412,2.24854 -0.44238,2.82305c-1.00781,0.86836 -14.146,0.36372 -16.70801,0.43726c-0.15674,1.73994 -0.08643,4.85098 -0.06152,6.68936c4.49854,0.47021 9.31934,-0.27393 13.79004,0.2959c1.15137,0.14648 0.89502,3.52588 0.45117,4.35498c-0.85693,0.81445 -12.25928,0.52002 -14.25,0.54199c0.00879,2.25293 0.04102,4.50732 0.09668,6.76025c1.45605,0.08203 3.16406,0.01611 4.64063,-0.00586c2.02002,0.0835 11.05371,-0.08496 12.07617,0.40576c0.39404,0.43359 0.50684,1.04883 0.64893,1.60547c0.4248,1.67578 -0.67676,3.10254 -2.41992,3.19043c-2.83008,0.14209 -5.76123,-0.00439 -8.61182,-0.00586c-3.2417,0 -6.52588,0.0791 -9.76611,-0.01025c-0.4481,-0.01318 -1.43716,-0.19189 -1.75225,-0.5127c-0.19248,-0.29004 -0.32197,-1.14258 -0.33208,-1.49707c-0.11279,-3.96973 -0.02666,-7.99805 -0.03809,-11.96924c-0.0123,-4.30518 -0.05596,-8.58589 0.01099,-12.88784c0.02329,-1.4874 0.79614,-1.70728 2.11289,-1.82329c1.58789,-0.10532 3.19922,-0.05303 4.79004,-0.04453c2.51367,0.00996 5.02588,0 7.53955,-0.02974z" fill="#000000"/><path d="M44.58779,137.30537c3.57173,-0.1582 10.10537,-0.10239 13.50029,0.1084c1.1896,0.07383 3.59619,5.77061 -3.05669,4.92524c-1.70742,-0.21694 -10.82769,0.00732 -12.18296,0.38584l-0.21768,0.06182c-0.80684,0.9564 -1.29873,1.99043 -1.20908,3.26968c0.4355,6.21416 11.47222,0.60967 16.79429,5.29424c1.58848,1.39893 2.51895,3.68408 2.61152,5.77295c0.104,2.34521 -0.67705,4.66553 -2.31562,6.37207c-1.87031,1.94678 -4.35542,2.56934 -6.97266,2.64551c-2.29233,0.0293 -12.75396,0.46436 -14.16899,-0.44385c-0.41719,-0.2666 -0.64277,-0.76025 -0.74824,-1.22754c-0.16714,-0.73975 -0.1522,-2.01562 0.33501,-2.64844c0.27759,-0.36035 0.6063,-0.54639 1.04209,-0.64453c1.67183,-0.37354 3.65244,-0.16699 5.35811,-0.15381c3.43784,0.0249 6.91289,0.14648 10.33477,-0.22266c0.47681,-0.35596 0.83027,-0.62695 1.19282,-1.10303c1.11489,-1.46191 0.85166,-4.39893 -1.14155,-4.99365c-3.43945,-1.02686 -7.43569,-0.00439 -10.9585,-0.62842c-1.27705,-0.21973 -2.48364,-0.73975 -3.52148,-1.51611c-4.53076,-3.41016 -4.36436,-10.90884 0.60747,-13.85713c1.55449,-0.92183 2.948,-1.20703 4.71709,-1.39658z" fill="#000000"/><path d="M98.22539,137.30889c4.19063,-0.23027 9.79731,-0.14663 13.97197,0.23291c0.75,0.06826 2.302,4.55786 -1.17114,4.72661c-4.39263,0.21357 -8.84678,-0.12158 -13.23062,0.20479c-2.0707,0.13096 -2.84604,2.47559 -2.45801,4.23823c0.4374,2.10205 2.65957,2.48877 4.48711,2.521c3.73096,0.06299 7.91411,-0.58008 11.23682,1.55127c1.69409,1.08545 2.87329,2.81543 3.26631,4.78857c0.48442,2.45215 0.12231,5.01416 -1.36934,7.02246c-1.90005,2.55762 -3.72671,3 -6.58096,3.51416c-2.26318,0.07471 -13.82695,0.44385 -15.12437,-0.44238c-0.2499,-0.17139 -0.38511,-0.49365 -0.46172,-0.77344c-0.22485,-0.82178 -0.26147,-2.50488 0.23569,-3.21826c0.31978,-0.45703 1.14463,-0.49219 1.65,-0.55078c1.52197,-0.17725 3.14634,-0.08643 4.67827,-0.08936c3.28608,-0.00439 6.55957,0.0498 9.83687,-0.23877c0.40078,-0.29297 1.35981,-1.11182 1.529,-1.53955c2.75024,-6.94775 -7.80703,-4.54102 -11.72812,-5.15039c-1.49033,-0.22119 -2.89863,-0.82178 -4.08926,-1.74463c-3.44868,-2.69824 -3.93545,-8.76768 -1.16016,-12.09126c1.80879,-2.16621 3.83687,-2.6959 6.48164,-2.96118z" fill="#000000"/><path d="M63.07808,137.28091c5.41479,-0.18208 4.37124,-0.31099 7.40596,4.33389c1.43452,2.19551 3.43125,5.68989 5.01489,7.72603l0.10503,0.1333c1.875,-2.04639 6.42979,-11.2062 8.09487,-11.92822c0.88125,-0.38203 3.78662,-0.5877 4.59858,-0.15762c0.17461,0.09243 0.28755,0.31626 0.32607,0.50244c0.1106,0.53276 -0.15571,1.19912 -0.38174,1.66787c-0.6082,1.26152 -1.56387,2.43428 -2.34199,3.59912c-1.21582,1.84482 -2.39722,3.71191 -3.54331,5.60156c-1.05381,1.62744 -3.65376,4.71826 -3.97559,6.50391c-0.26924,1.49414 -0.0791,3.17432 -0.03193,4.69043c0.03999,1.28906 0.24214,2.81982 0.01245,4.08398c-0.11748,0.646 -0.38687,1.23779 -0.9561,1.604c-0.8436,0.54053 -2.72373,0.5083 -3.67866,0.2915c-0.2001,-0.04687 -0.50933,-0.14648 -0.6293,-0.32227c-0.91187,-1.33154 0.0022,-7.85889 -0.37456,-9.94775c-0.41484,-2.29834 -7.75752,-12.32974 -9.5918,-15.19629c-0.46318,-0.72393 -1.15049,-1.63242 -0.95391,-2.52554c0.29956,-0.46143 0.39565,-0.4623 0.90103,-0.66035z" fill="#000000"/><path d="M118.48315,137.29849c3.82104,-0.20112 7.71709,-0.03765 11.54824,-0.04175c3.12539,-0.00337 6.41353,-0.20933 9.5209,0.04863c0.43359,0.03589 0.95815,0.06533 1.32993,0.32183c0.40664,0.28066 0.58389,0.82002 0.65186,1.28584c0.12041,0.82749 0.21562,2.12124 -0.35508,2.78042c-1.0314,1.1918 -7.71914,0.67822 -9.52544,0.68687c0.16567,5.03716 0.00352,10.60503 -0.02344,15.68511c0.05918,1.39014 0.3813,6.08643 -0.29575,7.36523c-0.41016,0.7749 -3.93135,0.83936 -4.84482,0.04102c-0.42568,-1.34033 -0.25166,-7.83984 -0.25562,-9.55518c0.00762,-4.50293 -0.03604,-9.00439 -0.13081,-13.50645c-1.86841,-0.07017 -7.70698,0.17388 -9.03384,-0.20566c-0.61216,-0.45015 -0.577,-1.7707 -0.58813,-2.49097c-0.03076,-1.99644 0.21592,-2.13442 2.002,-2.41494z" fill="#000000"/></g></svg>