<svg version="1.1" id="Layer_1" xmlns="http://www.w3.org/2000/svg" xmlns:xlink="http://www.w3.org/1999/xlink" x="0px" y="0px"
	 width="100%" viewBox="0 0 678 685" enable-background="new 0 0 678 685" xml:space="preserve">
<path fill="#FEFEFE" opacity="1.000000" stroke="none" 
	d="
M371.000000,686.000000 
	C247.333328,686.000000 124.166664,686.000000 1.000000,686.000000 
	C1.000000,457.666656 1.000000,229.333328 1.000000,1.000000 
	C227.000000,1.000000 453.000000,1.000000 679.000000,1.000000 
	C679.000000,229.333328 679.000000,457.666656 679.000000,686.000000 
	C576.500000,686.000000 474.000000,686.000000 371.000000,686.000000 
M543.110474,438.493652 
	C543.108582,434.661102 543.285950,430.817810 543.056213,426.998962 
	C542.808228,422.876282 544.411255,421.393250 548.572449,421.487549 
	C556.223755,421.660919 563.973267,422.061432 571.525452,421.117096 
	C588.115173,419.042664 598.099426,402.483063 592.940308,386.624420 
	C592.505798,385.288696 592.233337,383.900208 591.862366,382.445007 
	C593.314331,381.908752 594.227112,381.524719 595.168091,381.230927 
	C616.595520,374.541443 622.770874,349.093689 606.679199,333.351868 
	C604.513306,331.233063 604.351746,329.479034 605.294250,326.766449 
	C610.923279,310.566406 604.422607,295.160156 589.303162,287.705444 
	C587.369629,286.752106 585.479126,284.571930 584.733704,282.534027 
	C580.013000,269.626587 566.657959,259.686584 553.401184,260.073608 
	C549.834839,260.177734 547.642883,259.083557 545.346008,256.460205 
	C533.341187,242.748627 514.372498,240.104340 499.313477,249.990555 
	C496.796753,251.642792 495.121216,251.409195 492.617218,249.931625 
	C482.189453,243.778290 471.850983,244.069016 461.531067,250.671051 
	C459.068207,252.246613 455.788727,253.170563 452.847321,253.268555 
	C437.463959,253.781006 426.211884,260.477142 419.070740,274.258331 
	C418.004761,276.315460 415.660217,278.326111 413.467682,279.079712 
	C402.341949,282.904022 395.045471,290.163422 392.089233,301.575653 
	C391.461975,303.997131 390.081116,307.305359 394.139587,308.023102 
	C397.490387,308.615723 400.836548,309.094910 401.789825,303.708649 
	C403.549500,293.765900 410.589233,287.751740 420.672638,286.768433 
	C423.814667,286.462006 425.553040,285.491272 425.876617,282.160339 
	C426.031982,280.561249 426.793701,278.958160 427.541107,277.489380 
	C433.776703,265.235168 444.307800,260.990479 457.376770,261.888397 
	C460.752716,262.120331 463.276733,261.652496 465.766083,258.946838 
	C469.757385,254.608810 480.415497,253.210007 485.435059,255.943176 
	C486.416351,256.477478 487.627045,257.954559 487.494141,258.803009 
	C487.349365,259.727753 485.869446,260.672089 484.772034,261.143707 
	C483.953888,261.495331 482.799957,261.210266 481.827301,261.033813 
	C476.091705,259.993256 471.499023,261.590210 467.507935,266.044037 
	C466.127411,267.584656 463.260284,268.144409 460.980682,268.435577 
	C458.377747,268.768005 455.665344,268.111298 453.013336,268.214508 
	C441.504211,268.662537 433.215546,276.263245 432.129761,287.712402 
	C431.741089,291.810669 429.964783,293.328461 426.083832,293.099762 
	C424.596710,293.012207 423.082550,293.146240 421.596436,293.316681 
	C410.876770,294.545990 405.426605,305.648132 411.042725,314.896759 
	C413.809174,319.452545 416.729126,323.915436 419.600616,328.406952 
	C421.623138,331.570557 423.681000,334.711578 426.261414,338.693237 
	C427.847198,336.189545 428.835938,334.721649 429.731232,333.198853 
	C433.699615,326.448883 437.401398,319.523346 441.735840,313.018646 
	C443.069427,311.017365 446.324097,308.701202 448.325745,309.003296 
	C459.848480,310.742432 467.876801,306.032074 473.936096,296.763977 
	C474.295074,296.214905 474.749207,295.589905 475.310974,295.334778 
	C478.208435,294.018951 481.100830,291.920868 484.095673,291.737213 
	C492.564362,291.217865 501.098999,291.790741 509.570984,291.299957 
	C512.394958,291.136353 515.661438,289.660645 517.764648,287.735107 
	C523.406982,282.569458 528.398621,276.699860 533.920959,271.393219 
	C536.237244,269.167480 535.832764,267.637817 534.083069,265.526825 
	C528.044495,258.241455 513.981201,256.672394 506.777557,262.722473 
	C505.461823,263.827484 504.433228,265.547180 503.836212,267.188324 
	C501.132477,274.620331 500.404572,275.485687 492.229736,275.172668 
	C486.555145,274.955383 482.349091,276.547119 478.964905,281.270844 
	C475.921875,285.518402 472.162628,289.282257 466.099365,288.175598 
	C460.666656,287.184052 456.825165,289.249451 453.857727,293.771179 
	C452.698273,295.537903 451.090790,297.380219 449.244934,298.261841 
	C441.863159,301.787537 434.392517,305.167969 426.771698,308.131226 
	C423.973907,309.219147 421.215363,307.529388 420.935089,304.385284 
	C420.812897,303.014465 422.471527,300.554382 423.802704,300.141724 
	C430.420502,298.090179 437.230499,296.669617 443.908081,294.796051 
	C447.790070,293.706848 451.088013,288.043274 450.953186,284.036377 
	C450.905151,282.608582 451.496796,280.675903 452.510406,279.850525 
	C453.303467,279.204773 455.398865,279.506012 456.571228,280.084473 
	C464.031281,283.765228 469.732910,282.879944 474.793488,276.350800 
	C478.577393,271.468750 482.925415,268.780182 489.286194,269.684265 
	C493.543060,270.289368 496.811462,269.504333 498.297882,264.324829 
	C499.078552,261.604584 501.873108,259.103302 504.336029,257.286285 
	C515.619324,248.962128 532.971313,252.390396 540.746338,264.748474 
	C543.194702,268.640167 545.525757,269.526123 549.943604,269.144470 
	C559.782959,268.294434 568.447266,271.210266 574.318237,279.812866 
	C577.176880,284.001556 576.622803,286.135468 572.485229,288.871094 
	C571.223328,289.705475 570.085083,290.726898 568.890198,291.662659 
	C568.943176,292.067444 568.996216,292.472229 569.049194,292.877014 
	C580.006531,292.501495 590.125366,294.450928 595.808899,304.688385 
	C601.507080,314.952271 599.265137,324.582306 590.970093,333.178040 
	C592.733337,334.026581 593.892456,334.592896 595.058716,335.144257 
	C603.831238,339.291656 608.422241,347.820709 606.940002,357.223633 
	C605.423462,366.844543 599.467041,372.078217 588.846680,373.272339 
	C587.595032,373.413086 586.429810,374.416473 585.186035,374.510315 
	C583.301758,374.652496 581.383728,374.347321 579.480103,374.232178 
	C580.301514,372.128540 580.557190,369.003510 582.077393,368.161377 
	C584.340942,366.907501 587.489563,367.110809 590.275574,366.968719 
	C596.980042,366.626831 600.866333,362.301514 601.129700,354.665863 
	C601.391785,347.063141 597.340881,341.591095 590.488586,340.748810 
	C590.766663,343.264557 591.446472,345.750153 591.157898,348.117676 
	C590.972046,349.643280 589.652649,351.564697 588.304016,352.247223 
	C587.207642,352.802155 584.655334,352.272705 583.943542,351.325897 
	C583.118591,350.228577 583.539001,348.149628 583.533936,346.496460 
	C583.530334,345.307465 583.848511,344.111816 583.794067,342.929688 
	C583.505554,336.665497 581.466309,330.332947 588.879028,325.838654 
	C593.179565,323.231171 594.065918,317.903198 592.828796,312.764374 
	C590.801819,304.343994 584.065430,299.583435 573.695801,299.153137 
	C569.232544,298.967957 564.174255,299.537231 562.439026,293.958252 
	C560.708740,288.395294 564.666138,285.840485 568.813293,283.631714 
	C568.922363,283.573639 568.938904,283.341858 568.998596,283.191071 
	C566.272217,278.630981 563.022888,275.705444 557.682373,275.239502 
	C547.495361,274.350708 536.870361,272.602448 530.090820,283.712311 
	C528.130005,286.925568 524.861572,289.310669 522.504883,292.319977 
	C519.376404,296.314819 515.657776,298.229126 510.444672,297.797638 
	C505.644714,297.400330 500.786591,297.697784 495.954102,297.702850 
	C481.322845,297.718201 481.267365,297.675751 472.183014,308.865936 
	C470.933228,310.405396 469.888184,312.647980 469.877136,314.571503 
	C469.786377,330.399231 469.972900,346.228424 470.054504,362.057312 
	C470.118317,374.438019 461.671356,383.387299 449.269196,384.158966 
	C447.248291,384.284698 445.236938,384.563202 442.976654,384.796295 
	C448.889374,397.355682 459.895752,404.698578 472.656281,404.142883 
	C478.043213,403.908234 483.380676,402.155853 488.699921,400.918488 
	C491.117065,400.356110 493.392426,400.063660 493.196259,403.359711 
	C492.921997,407.968170 495.563965,410.715210 498.514618,413.534943 
	C503.814545,418.599670 509.239105,423.571075 514.112732,429.027069 
	C516.119080,431.273224 517.539612,434.569672 517.975952,437.570251 
	C518.665771,442.313568 518.318909,447.209839 518.378235,452.041809 
	C518.414307,454.986023 519.575989,456.891418 522.787781,456.832428 
	C525.817505,456.776825 527.384338,455.133362 527.415649,452.121460 
	C527.458862,447.956024 527.059814,443.748383 527.517822,439.633118 
	C528.343628,432.212311 525.555359,426.986511 520.195679,421.782562 
	C502.165375,404.276306 506.543182,411.799011 506.399292,387.282928 
	C506.387512,385.276215 507.685699,381.760193 508.820038,381.567780 
	C511.031494,381.192596 514.018982,382.085815 515.852905,383.518738 
	C519.102478,386.057770 521.847717,389.289856 524.583923,392.424011 
	C527.067322,395.268585 529.869202,396.390900 533.737854,396.337067 
	C548.898804,396.126099 564.064636,396.259308 579.228699,396.291351 
	C580.997925,396.295074 582.766846,396.464691 584.527161,396.556946 
	C585.261414,401.583038 583.147339,402.962250 578.936096,402.922424 
	C562.773560,402.769531 546.606628,402.949524 530.448364,402.637695 
	C527.953918,402.589539 525.052612,401.122681 523.122375,399.422852 
	C519.944641,396.624329 517.406555,393.099396 514.042786,389.243286 
	C510.958557,400.350342 512.235779,405.570984 518.767151,411.950806 
	C522.462097,415.559967 526.077087,419.262787 529.939575,422.684631 
	C532.777466,425.198761 534.059937,427.984802 533.903320,431.848724 
	C533.640198,438.336365 533.853027,444.843323 533.863281,451.342133 
	C533.867798,454.211456 534.928284,456.300354 538.097534,456.408600 
	C541.378418,456.520691 543.027954,454.652893 543.098877,451.483521 
	C543.188232,447.486328 543.117004,443.485565 543.110474,438.493652 
M450.185181,351.535278 
	C450.193695,357.864227 449.903625,364.216095 450.386292,370.508698 
	C450.538025,372.486603 452.674561,375.781952 454.062836,375.867218 
	C456.425995,376.012390 459.115784,374.381287 461.254059,372.898926 
	C462.106018,372.308289 462.073822,370.128723 462.074646,368.672272 
	C462.083252,353.349609 462.046295,338.026703 461.945831,322.704376 
	C461.926575,319.765839 462.347015,316.237793 458.174133,315.651306 
	C453.969818,315.060333 449.748016,314.027313 446.982452,319.292572 
	C441.409576,329.902740 435.347473,340.256409 429.456055,350.698273 
	C428.610016,352.197784 427.591034,353.599701 426.181976,355.771301 
	C424.800720,353.653809 423.864716,352.360413 423.073608,350.983704 
	C417.018219,340.446045 410.996124,329.889282 404.952484,319.344818 
	C402.671143,315.364563 398.834686,314.139984 393.268951,315.413330 
	C388.838837,316.426819 390.126129,319.946625 390.106689,322.699463 
	C389.985504,339.853485 390.050018,357.008850 389.913177,374.162659 
	C389.882446,378.014679 390.425934,380.675720 395.236603,380.510345 
	C400.900146,380.315613 402.099304,379.417084 402.094696,373.952362 
	C402.086792,364.626007 402.011658,355.299713 402.015839,345.973389 
	C402.016418,344.623566 402.300262,343.273865 402.453064,341.924133 
	C404.426117,342.975586 405.313477,344.272827 406.119141,345.618988 
	C410.565704,353.048065 414.878784,360.559845 419.458252,367.905731 
	C423.879303,374.997498 429.165253,374.825165 433.434143,367.539429 
	C437.979736,359.781433 442.369049,351.932007 446.874725,344.150391 
	C447.450775,343.155518 448.316315,342.328308 449.047760,341.423431 
	C449.422424,341.547455 449.797119,341.671478 450.171783,341.795502 
	C450.171783,344.712250 450.171783,347.628967 450.185181,351.535278 
M374.770172,325.776855 
	C379.477203,324.940430 378.821564,321.147736 378.055237,318.348480 
	C377.662262,316.913086 374.775452,315.280121 372.987823,315.247131 
	C359.663879,315.001160 346.332764,315.179108 333.004364,315.119659 
	C329.038788,315.101959 326.770477,316.229858 326.805054,320.802002 
	C326.942474,338.960999 326.896637,357.121887 326.813232,375.281586 
	C326.797089,378.801514 328.065369,380.564697 331.737488,380.550690 
	C345.565765,380.497833 359.394440,380.503204 373.222839,380.543549 
	C377.285889,380.555389 378.935913,378.488037 378.825256,374.621857 
	C378.720673,370.967285 377.105286,369.256470 373.223236,369.342773 
	C365.563599,369.513092 357.896088,369.402985 350.232819,369.319244 
	C337.345795,369.178375 339.041382,371.897156 338.744781,357.574707 
	C338.671967,354.060394 339.945984,352.905884 343.399323,352.980865 
	C351.392517,353.154480 359.393127,352.952026 367.389526,353.028137 
	C371.104919,353.063507 372.300842,351.279541 372.289001,347.764557 
	C372.277313,344.295715 371.690521,341.864929 367.459015,341.950348 
	C361.463562,342.071411 355.463531,342.010040 349.465881,341.967072 
	C337.303833,341.879974 339.036926,343.768341 338.690826,330.941345 
	C338.584412,326.997131 340.000854,325.688751 343.913300,325.768494 
	C353.905548,325.972229 363.904999,325.824738 374.770172,325.776855 
M116.001282,380.443787 
	C128.537445,378.306000 135.089874,370.236511 133.559219,358.820740 
	C132.255569,349.098145 125.774757,343.203125 115.140099,342.565979 
	C108.836075,342.188324 102.487343,342.571533 96.180618,342.219879 
	C91.651123,341.967285 89.437080,338.976227 89.257812,334.546478 
	C89.067955,329.854858 91.439484,326.971375 96.100540,326.353180 
	C98.399529,326.048279 100.747490,326.048981 103.074295,326.029297 
	C110.565170,325.965820 118.056587,325.970428 125.547623,325.921295 
	C128.841797,325.899719 130.355118,324.232941 130.279129,320.904083 
	C130.213470,318.027130 129.846069,315.105682 126.325211,315.097321 
	C115.187004,315.070831 103.971382,314.628174 92.931572,315.764099 
	C82.562119,316.831055 76.465210,325.844391 77.429611,336.143646 
	C78.367088,346.155304 85.780617,353.008942 96.131386,353.258423 
	C101.621918,353.390778 107.121521,353.161072 112.611267,353.308807 
	C119.049637,353.482056 122.268074,356.443420 122.110703,361.713196 
	C121.959366,366.780823 118.867897,369.385712 112.586212,369.440094 
	C103.597168,369.517914 94.606796,369.467499 85.617119,369.435394 
	C81.729103,369.421509 78.526764,370.208099 78.565407,375.050537 
	C78.603432,379.814819 81.666458,380.697845 85.634109,380.655457 
	C95.455406,380.550568 105.277901,380.558563 116.001282,380.443787 
M201.721603,329.302277 
	C200.170578,345.292328 207.316956,353.215881 223.253464,353.276947 
	C228.411911,353.296692 233.611465,353.141937 238.716263,353.728333 
	C244.153061,354.352783 246.831726,359.065277 245.018463,363.929108 
	C243.550232,367.867401 240.504074,369.419403 236.410156,369.421997 
	C227.079788,369.427917 217.749557,369.556915 208.419174,369.569336 
	C204.752686,369.574219 202.828171,371.116486 202.845169,374.948792 
	C202.861389,378.605194 204.367554,380.550446 208.211655,380.536774 
	C218.208450,380.501160 228.209061,380.718719 238.201263,380.508667 
	C244.458817,380.377167 249.968842,378.160187 253.637817,372.697113 
	C257.790802,366.513336 258.212860,359.790527 255.306686,353.157135 
	C252.086349,345.806580 245.618027,342.886108 237.968796,342.507843 
	C232.316376,342.228302 226.639877,342.464935 220.982132,342.255219 
	C216.439743,342.086823 213.373947,339.890625 212.916397,335.063690 
	C212.417038,329.795502 215.490601,326.333893 221.244400,326.178619 
	C230.402161,325.931580 239.568817,326.020447 248.731567,325.948669 
	C252.177475,325.921692 253.920258,324.294983 253.874268,320.701324 
	C253.829041,317.164978 252.677551,314.936432 248.697601,314.963684 
	C239.034805,315.029877 229.362457,314.756134 219.710892,315.097717 
	C210.863205,315.410889 204.569260,319.698456 201.721603,329.302277 
M162.016647,378.250519 
	C164.466553,381.875214 168.182526,380.770020 170.971436,379.671631 
	C172.515182,379.063660 174.080795,375.623260 173.799454,373.733063 
	C171.824249,360.463165 176.027939,349.281952 184.381729,339.278351 
	C184.911102,338.644409 185.305801,337.897125 185.755585,337.197754 
	C189.353012,331.603882 193.123810,326.108612 196.408920,320.336914 
	C197.137070,319.057617 196.749039,315.669739 195.846237,315.190369 
	C191.937973,313.115356 185.849640,315.329285 183.329849,319.304993 
	C179.323822,325.625702 175.459549,332.036224 171.459946,338.361084 
	C170.554230,339.793335 169.339203,341.029968 167.659912,343.106964 
	C162.526428,335.050354 157.642975,327.952423 153.387436,320.496155 
	C150.815002,315.988861 147.635559,314.193207 142.520218,314.690765 
	C137.205200,315.207733 136.343430,316.501190 139.343735,321.193420 
	C142.926636,326.796753 146.255173,332.637909 150.443542,337.763489 
	C159.508606,348.856873 164.031738,361.079865 161.784378,375.468231 
	C161.683578,376.113525 161.814880,376.795044 162.016647,378.250519 
M284.591278,354.498474 
	C284.596619,360.986542 284.771301,367.480469 284.547089,373.960602 
	C284.400482,378.196960 285.435669,380.631409 290.286285,380.457336 
	C295.637787,380.265259 296.554840,379.571930 296.556427,374.003906 
	C296.560577,359.696930 296.629364,345.388824 296.454010,331.083832 
	C296.409668,327.466034 297.449951,325.910889 301.237396,326.117279 
	C305.549377,326.352264 309.885681,326.099243 314.209991,326.160706 
	C317.878082,326.212830 319.204163,324.350555 319.154877,320.871277 
	C319.106964,317.486694 318.494354,314.929474 314.263916,315.025574 
	C309.442474,315.135132 304.615814,315.004059 299.791443,315.000153 
	C288.978424,314.991394 278.165222,315.029419 267.352417,314.979980 
	C263.057922,314.960358 262.094574,317.390869 262.175995,321.127808 
	C262.258484,324.914337 263.787781,326.545410 267.675262,326.288513 
	C271.652740,326.025696 275.668884,326.345276 279.645813,326.078003 
	C283.433899,325.823425 284.627777,327.471649 284.567932,331.040833 
	C284.442413,338.524445 284.564728,346.012238 284.591278,354.498474 
z"/>
<path fill="#101010" opacity="1.000000" stroke="none" 
	d="
M543.112793,438.989990 
	C543.117004,443.485565 543.188232,447.486328 543.098877,451.483521 
	C543.027954,454.652893 541.378418,456.520691 538.097534,456.408600 
	C534.928284,456.300354 533.867798,454.211456 533.863281,451.342133 
	C533.853027,444.843323 533.640198,438.336365 533.903320,431.848724 
	C534.059937,427.984802 532.777466,425.198761 529.939575,422.684631 
	C526.077087,419.262787 522.462097,415.559967 518.767151,411.950806 
	C512.235779,405.570984 510.958557,400.350342 514.042786,389.243286 
	C517.406555,393.099396 519.944641,396.624329 523.122375,399.422852 
	C525.052612,401.122681 527.953918,402.589539 530.448364,402.637695 
	C546.606628,402.949524 562.773560,402.769531 578.936096,402.922424 
	C583.147339,402.962250 585.261414,401.583038 584.527161,396.556946 
	C582.766846,396.464691 580.997925,396.295074 579.228699,396.291351 
	C564.064636,396.259308 548.898804,396.126099 533.737854,396.337067 
	C529.869202,396.390900 527.067322,395.268585 524.583923,392.424011 
	C521.847717,389.289856 519.102478,386.057770 515.852905,383.518738 
	C514.018982,382.085815 511.031494,381.192596 508.820038,381.567780 
	C507.685699,381.760193 506.387512,385.276215 506.399292,387.282928 
	C506.543182,411.799011 502.165375,404.276306 520.195679,421.782562 
	C525.555359,426.986511 528.343628,432.212311 527.517822,439.633118 
	C527.059814,443.748383 527.458862,447.956024 527.415649,452.121460 
	C527.384338,455.133362 525.817505,456.776825 522.787781,456.832428 
	C519.575989,456.891418 518.414307,454.986023 518.378235,452.041809 
	C518.318909,447.209839 518.665771,442.313568 517.975952,437.570251 
	C517.539612,434.569672 516.119080,431.273224 514.112732,429.027069 
	C509.239105,423.571075 503.814545,418.599670 498.514618,413.534943 
	C495.563965,410.715210 492.921997,407.968170 493.196259,403.359711 
	C493.392426,400.063660 491.117065,400.356110 488.699921,400.918488 
	C483.380676,402.155853 478.043213,403.908234 472.656281,404.142883 
	C459.895752,404.698578 448.889374,397.355682 442.976654,384.796295 
	C445.236938,384.563202 447.248291,384.284698 449.269196,384.158966 
	C461.671356,383.387299 470.118317,374.438019 470.054504,362.057312 
	C469.972900,346.228424 469.786377,330.399231 469.877136,314.571503 
	C469.888184,312.647980 470.933228,310.405396 472.183014,308.865936 
	C481.267365,297.675751 481.322845,297.718201 495.954102,297.702850 
	C500.786591,297.697784 505.644714,297.400330 510.444672,297.797638 
	C515.657776,298.229126 519.376404,296.314819 522.504883,292.319977 
	C524.861572,289.310669 528.130005,286.925568 530.090820,283.712311 
	C536.870361,272.602448 547.495361,274.350708 557.682373,275.239502 
	C563.022888,275.705444 566.272217,278.630981 568.998596,283.191071 
	C568.938904,283.341858 568.922363,283.573639 568.813293,283.631714 
	C564.666138,285.840485 560.708740,288.395294 562.439026,293.958252 
	C564.174255,299.537231 569.232544,298.967957 573.695801,299.153137 
	C584.065430,299.583435 590.801819,304.343994 592.828796,312.764374 
	C594.065918,317.903198 593.179565,323.231171 588.879028,325.838654 
	C581.466309,330.332947 583.505554,336.665497 583.794067,342.929688 
	C583.848511,344.111816 583.530334,345.307465 583.533936,346.496460 
	C583.539001,348.149628 583.118591,350.228577 583.943542,351.325897 
	C584.655334,352.272705 587.207642,352.802155 588.304016,352.247223 
	C589.652649,351.564697 590.972046,349.643280 591.157898,348.117676 
	C591.446472,345.750153 590.766663,343.264557 590.488586,340.748810 
	C597.340881,341.591095 601.391785,347.063141 601.129700,354.665863 
	C600.866333,362.301514 596.980042,366.626831 590.275574,366.968719 
	C587.489563,367.110809 584.340942,366.907501 582.077393,368.161377 
	C580.557190,369.003510 580.301514,372.128540 579.480103,374.232178 
	C581.383728,374.347321 583.301758,374.652496 585.186035,374.510315 
	C586.429810,374.416473 587.595032,373.413086 588.846680,373.272339 
	C599.467041,372.078217 605.423462,366.844543 606.940002,357.223633 
	C608.422241,347.820709 603.831238,339.291656 595.058716,335.144257 
	C593.892456,334.592896 592.733337,334.026581 590.970093,333.178040 
	C599.265137,324.582306 601.507080,314.952271 595.808899,304.688385 
	C590.125366,294.450928 580.006531,292.501495 569.049194,292.877014 
	C568.996216,292.472229 568.943176,292.067444 568.890198,291.662659 
	C570.085083,290.726898 571.223328,289.705475 572.485229,288.871094 
	C576.622803,286.135468 577.176880,284.001556 574.318237,279.812866 
	C568.447266,271.210266 559.782959,268.294434 549.943604,269.144470 
	C545.525757,269.526123 543.194702,268.640167 540.746338,264.748474 
	C532.971313,252.390396 515.619324,248.962128 504.336029,257.286285 
	C501.873108,259.103302 499.078552,261.604584 498.297882,264.324829 
	C496.811462,269.504333 493.543060,270.289368 489.286194,269.684265 
	C482.925415,268.780182 478.577393,271.468750 474.793488,276.350800 
	C469.732910,282.879944 464.031281,283.765228 456.571228,280.084473 
	C455.398865,279.506012 453.303467,279.204773 452.510406,279.850525 
	C451.496796,280.675903 450.905151,282.608582 450.953186,284.036377 
	C451.088013,288.043274 447.790070,293.706848 443.908081,294.796051 
	C437.230499,296.669617 430.420502,298.090179 423.802704,300.141724 
	C422.471527,300.554382 420.812897,303.014465 420.935089,304.385284 
	C421.215363,307.529388 423.973907,309.219147 426.771698,308.131226 
	C434.392517,305.167969 441.863159,301.787537 449.244934,298.261841 
	C451.090790,297.380219 452.698273,295.537903 453.857727,293.771179 
	C456.825165,289.249451 460.666656,287.184052 466.099365,288.175598 
	C472.162628,289.282257 475.921875,285.518402 478.964905,281.270844 
	C482.349091,276.547119 486.555145,274.955383 492.229736,275.172668 
	C500.404572,275.485687 501.132477,274.620331 503.836212,267.188324 
	C504.433228,265.547180 505.461823,263.827484 506.777557,262.722473 
	C513.981201,256.672394 528.044495,258.241455 534.083069,265.526825 
	C535.832764,267.637817 536.237244,269.167480 533.920959,271.393219 
	C528.398621,276.699860 523.406982,282.569458 517.764648,287.735107 
	C515.661438,289.660645 512.394958,291.136353 509.570984,291.299957 
	C501.098999,291.790741 492.564362,291.217865 484.095673,291.737213 
	C481.100830,291.920868 478.208435,294.018951 475.310974,295.334778 
	C474.749207,295.589905 474.295074,296.214905 473.936096,296.763977 
	C467.876801,306.032074 459.848480,310.742432 448.325745,309.003296 
	C446.324097,308.701202 443.069427,311.017365 441.735840,313.018646 
	C437.401398,319.523346 433.699615,326.448883 429.731232,333.198853 
	C428.835938,334.721649 427.847198,336.189545 426.261414,338.693237 
	C423.681000,334.711578 421.623138,331.570557 419.600616,328.406952 
	C416.729126,323.915436 413.809174,319.452545 411.042725,314.896759 
	C405.426605,305.648132 410.876770,294.545990 421.596436,293.316681 
	C423.082550,293.146240 424.596710,293.012207 426.083832,293.099762 
	C429.964783,293.328461 431.741089,291.810669 432.129761,287.712402 
	C433.215546,276.263245 441.504211,268.662537 453.013336,268.214508 
	C455.665344,268.111298 458.377747,268.768005 460.980682,268.435577 
	C463.260284,268.144409 466.127411,267.584656 467.507935,266.044037 
	C471.499023,261.590210 476.091705,259.993256 481.827301,261.033813 
	C482.799957,261.210266 483.953888,261.495331 484.772034,261.143707 
	C485.869446,260.672089 487.349365,259.727753 487.494141,258.803009 
	C487.627045,257.954559 486.416351,256.477478 485.435059,255.943176 
	C480.415497,253.210007 469.757385,254.608810 465.766083,258.946838 
	C463.276733,261.652496 460.752716,262.120331 457.376770,261.888397 
	C444.307800,260.990479 433.776703,265.235168 427.541107,277.489380 
	C426.793701,278.958160 426.031982,280.561249 425.876617,282.160339 
	C425.553040,285.491272 423.814667,286.462006 420.672638,286.768433 
	C410.589233,287.751740 403.549500,293.765900 401.789825,303.708649 
	C400.836548,309.094910 397.490387,308.615723 394.139587,308.023102 
	C390.081116,307.305359 391.461975,303.997131 392.089233,301.575653 
	C395.045471,290.163422 402.341949,282.904022 413.467682,279.079712 
	C415.660217,278.326111 418.004761,276.315460 419.070740,274.258331 
	C426.211884,260.477142 437.463959,253.781006 452.847321,253.268555 
	C455.788727,253.170563 459.068207,252.246613 461.531067,250.671051 
	C471.850983,244.069016 482.189453,243.778290 492.617218,249.931625 
	C495.121216,251.409195 496.796753,251.642792 499.313477,249.990555 
	C514.372498,240.104340 533.341187,242.748627 545.346008,256.460205 
	C547.642883,259.083557 549.834839,260.177734 553.401184,260.073608 
	C566.657959,259.686584 580.013000,269.626587 584.733704,282.534027 
	C585.479126,284.571930 587.369629,286.752106 589.303162,287.705444 
	C604.422607,295.160156 610.923279,310.566406 605.294250,326.766449 
	C604.351746,329.479034 604.513306,331.233063 606.679199,333.351868 
	C622.770874,349.093689 616.595520,374.541443 595.168091,381.230927 
	C594.227112,381.524719 593.314331,381.908752 591.862366,382.445007 
	C592.233337,383.900208 592.505798,385.288696 592.940308,386.624420 
	C598.099426,402.483063 588.115173,419.042664 571.525452,421.117096 
	C563.973267,422.061432 556.223755,421.660919 548.572449,421.487549 
	C544.411255,421.393250 542.808228,422.876282 543.056213,426.998962 
	C543.285950,430.817810 543.108582,434.661102 543.112793,438.989990 
M495.953766,373.435028 
	C496.802795,369.963409 498.958527,368.655914 502.545471,368.870453 
	C506.696411,369.118652 510.875092,368.917236 515.041565,368.888397 
	C527.951843,368.799103 528.025940,368.763947 532.937561,380.514221 
	C534.150696,383.416473 535.865051,384.750580 538.993347,384.454956 
	C540.979492,384.267212 542.993530,384.395813 544.987732,384.267517 
	C548.498657,384.041626 549.805969,382.322968 548.386414,378.928436 
	C539.453613,357.568115 530.465942,336.230469 521.618774,314.834686 
	C519.575256,309.892761 515.461792,311.324127 511.820831,311.074310 
	C508.477631,310.844971 505.548615,311.245697 504.050507,314.954315 
	C495.377960,336.423309 486.632233,357.862701 477.921143,379.316101 
	C476.607941,382.550201 478.078491,383.912994 481.218994,384.375458 
	C490.552399,385.749817 491.407776,385.291412 494.812775,376.514496 
	C495.114105,375.737732 495.397217,374.953949 495.953766,373.435028 
M557.328308,380.729218 
	C559.144165,384.361328 563.177124,385.550201 568.825989,384.332550 
	C572.755676,383.485504 571.806152,380.431610 571.808044,377.947449 
	C571.823730,357.783417 571.759277,337.619324 571.711975,317.455231 
	C571.697205,311.143219 571.612061,311.074738 564.709900,311.059326 
	C557.293884,311.042755 556.990051,311.246124 557.005432,317.371124 
	C557.057556,338.201660 557.152466,359.032074 557.328308,380.729218 
M542.758240,290.889618 
	C540.759033,292.882996 538.746155,294.862915 536.763428,296.872528 
	C532.720093,300.970734 532.505310,306.267609 536.252502,310.733154 
	C537.422119,312.126923 538.536072,313.808655 540.067444,314.597107 
	C542.025452,315.605255 544.505920,316.529541 546.518250,316.161438 
	C547.778870,315.930908 548.592468,313.256622 549.606628,311.678802 
	C547.819458,310.621246 546.005493,309.605988 544.253601,308.492920 
	C542.813721,307.578094 540.427856,306.677094 540.282654,305.537811 
	C540.052002,303.728790 540.957214,301.448151 542.093994,299.884644 
	C543.205261,298.356079 545.594666,297.754333 546.698242,296.223328 
	C547.601257,294.970520 547.811279,292.883270 547.533447,291.306061 
	C547.443054,290.793121 544.842651,290.722412 542.758240,290.889618 
M549.958008,408.055450 
	C548.756592,412.381653 551.616089,413.501251 554.832764,413.573761 
	C560.126587,413.693054 565.472412,413.673035 570.718201,413.051910 
	C574.736572,412.576080 578.305969,410.645599 580.602478,406.275909 
	C572.396606,406.275909 564.986084,406.183136 557.580322,406.329102 
	C555.175903,406.376495 552.783691,407.048431 549.958008,408.055450 
z"/>
<path fill="#131313" opacity="1.000000" stroke="none" 
	d="
M450.178467,351.040497 
	C450.171783,347.628967 450.171783,344.712250 450.171783,341.795502 
	C449.797119,341.671478 449.422424,341.547455 449.047760,341.423431 
	C448.316315,342.328308 447.450775,343.155518 446.874725,344.150391 
	C442.369049,351.932007 437.979736,359.781433 433.434143,367.539429 
	C429.165253,374.825165 423.879303,374.997498 419.458252,367.905731 
	C414.878784,360.559845 410.565704,353.048065 406.119141,345.618988 
	C405.313477,344.272827 404.426117,342.975586 402.453064,341.924133 
	C402.300262,343.273865 402.016418,344.623566 402.015839,345.973389 
	C402.011658,355.299713 402.086792,364.626007 402.094696,373.952362 
	C402.099304,379.417084 400.900146,380.315613 395.236603,380.510345 
	C390.425934,380.675720 389.882446,378.014679 389.913177,374.162659 
	C390.050018,357.008850 389.985504,339.853485 390.106689,322.699463 
	C390.126129,319.946625 388.838837,316.426819 393.268951,315.413330 
	C398.834686,314.139984 402.671143,315.364563 404.952484,319.344818 
	C410.996124,329.889282 417.018219,340.446045 423.073608,350.983704 
	C423.864716,352.360413 424.800720,353.653809 426.181976,355.771301 
	C427.591034,353.599701 428.610016,352.197784 429.456055,350.698273 
	C435.347473,340.256409 441.409576,329.902740 446.982452,319.292572 
	C449.748016,314.027313 453.969818,315.060333 458.174133,315.651306 
	C462.347015,316.237793 461.926575,319.765839 461.945831,322.704376 
	C462.046295,338.026703 462.083252,353.349609 462.074646,368.672272 
	C462.073822,370.128723 462.106018,372.308289 461.254059,372.898926 
	C459.115784,374.381287 456.425995,376.012390 454.062836,375.867218 
	C452.674561,375.781952 450.538025,372.486603 450.386292,370.508698 
	C449.903625,364.216095 450.193695,357.864227 450.178467,351.040497 
z"/>
<path fill="#171717" opacity="1.000000" stroke="none" 
	d="
M374.335876,325.797302 
	C363.904999,325.824738 353.905548,325.972229 343.913300,325.768494 
	C340.000854,325.688751 338.584412,326.997131 338.690826,330.941345 
	C339.036926,343.768341 337.303833,341.879974 349.465881,341.967072 
	C355.463531,342.010040 361.463562,342.071411 367.459015,341.950348 
	C371.690521,341.864929 372.277313,344.295715 372.289001,347.764557 
	C372.300842,351.279541 371.104919,353.063507 367.389526,353.028137 
	C359.393127,352.952026 351.392517,353.154480 343.399323,352.980865 
	C339.945984,352.905884 338.671967,354.060394 338.744781,357.574707 
	C339.041382,371.897156 337.345795,369.178375 350.232819,369.319244 
	C357.896088,369.402985 365.563599,369.513092 373.223236,369.342773 
	C377.105286,369.256470 378.720673,370.967285 378.825256,374.621857 
	C378.935913,378.488037 377.285889,380.555389 373.222839,380.543549 
	C359.394440,380.503204 345.565765,380.497833 331.737488,380.550690 
	C328.065369,380.564697 326.797089,378.801514 326.813232,375.281586 
	C326.896637,357.121887 326.942474,338.960999 326.805054,320.802002 
	C326.770477,316.229858 329.038788,315.101959 333.004364,315.119659 
	C346.332764,315.179108 359.663879,315.001160 372.987823,315.247131 
	C374.775452,315.280121 377.662262,316.913086 378.055237,318.348480 
	C378.821564,321.147736 379.477203,324.940430 374.335876,325.797302 
z"/>
<path fill="#141414" opacity="1.000000" stroke="none" 
	d="
M115.550598,380.482483 
	C105.277901,380.558563 95.455406,380.550568 85.634109,380.655457 
	C81.666458,380.697845 78.603432,379.814819 78.565407,375.050537 
	C78.526764,370.208099 81.729103,369.421509 85.617119,369.435394 
	C94.606796,369.467499 103.597168,369.517914 112.586212,369.440094 
	C118.867897,369.385712 121.959366,366.780823 122.110703,361.713196 
	C122.268074,356.443420 119.049637,353.482056 112.611267,353.308807 
	C107.121521,353.161072 101.621918,353.390778 96.131386,353.258423 
	C85.780617,353.008942 78.367088,346.155304 77.429611,336.143646 
	C76.465210,325.844391 82.562119,316.831055 92.931572,315.764099 
	C103.971382,314.628174 115.187004,315.070831 126.325211,315.097321 
	C129.846069,315.105682 130.213470,318.027130 130.279129,320.904083 
	C130.355118,324.232941 128.841797,325.899719 125.547623,325.921295 
	C118.056587,325.970428 110.565170,325.965820 103.074295,326.029297 
	C100.747490,326.048981 98.399529,326.048279 96.100540,326.353180 
	C91.439484,326.971375 89.067955,329.854858 89.257812,334.546478 
	C89.437080,338.976227 91.651123,341.967285 96.180618,342.219879 
	C102.487343,342.571533 108.836075,342.188324 115.140099,342.565979 
	C125.774757,343.203125 132.255569,349.098145 133.559219,358.820740 
	C135.089874,370.236511 128.537445,378.306000 115.550598,380.482483 
z"/>
<path fill="#141414" opacity="1.000000" stroke="none" 
	d="
M201.804108,328.900604 
	C204.569260,319.698456 210.863205,315.410889 219.710892,315.097717 
	C229.362457,314.756134 239.034805,315.029877 248.697601,314.963684 
	C252.677551,314.936432 253.829041,317.164978 253.874268,320.701324 
	C253.920258,324.294983 252.177475,325.921692 248.731567,325.948669 
	C239.568817,326.020447 230.402161,325.931580 221.244400,326.178619 
	C215.490601,326.333893 212.417038,329.795502 212.916397,335.063690 
	C213.373947,339.890625 216.439743,342.086823 220.982132,342.255219 
	C226.639877,342.464935 232.316376,342.228302 237.968796,342.507843 
	C245.618027,342.886108 252.086349,345.806580 255.306686,353.157135 
	C258.212860,359.790527 257.790802,366.513336 253.637817,372.697113 
	C249.968842,378.160187 244.458817,380.377167 238.201263,380.508667 
	C228.209061,380.718719 218.208450,380.501160 208.211655,380.536774 
	C204.367554,380.550446 202.861389,378.605194 202.845169,374.948792 
	C202.828171,371.116486 204.752686,369.574219 208.419174,369.569336 
	C217.749557,369.556915 227.079788,369.427917 236.410156,369.421997 
	C240.504074,369.419403 243.550232,367.867401 245.018463,363.929108 
	C246.831726,359.065277 244.153061,354.352783 238.716263,353.728333 
	C233.611465,353.141937 228.411911,353.296692 223.253464,353.276947 
	C207.316956,353.215881 200.170578,345.292328 201.804108,328.900604 
z"/>
<path fill="#141414" opacity="1.000000" stroke="none" 
	d="
M161.927368,377.855103 
	C161.814880,376.795044 161.683578,376.113525 161.784378,375.468231 
	C164.031738,361.079865 159.508606,348.856873 150.443542,337.763489 
	C146.255173,332.637909 142.926636,326.796753 139.343735,321.193420 
	C136.343430,316.501190 137.205200,315.207733 142.520218,314.690765 
	C147.635559,314.193207 150.815002,315.988861 153.387436,320.496155 
	C157.642975,327.952423 162.526428,335.050354 167.659912,343.106964 
	C169.339203,341.029968 170.554230,339.793335 171.459946,338.361084 
	C175.459549,332.036224 179.323822,325.625702 183.329849,319.304993 
	C185.849640,315.329285 191.937973,313.115356 195.846237,315.190369 
	C196.749039,315.669739 197.137070,319.057617 196.408920,320.336914 
	C193.123810,326.108612 189.353012,331.603882 185.755585,337.197754 
	C185.305801,337.897125 184.911102,338.644409 184.381729,339.278351 
	C176.027939,349.281952 171.824249,360.463165 173.799454,373.733063 
	C174.080795,375.623260 172.515182,379.063660 170.971436,379.671631 
	C168.182526,380.770020 164.466553,381.875214 161.927368,377.855103 
z"/>
<path fill="#111111" opacity="1.000000" stroke="none" 
	d="
M284.588287,353.998383 
	C284.564728,346.012238 284.442413,338.524445 284.567932,331.040833 
	C284.627777,327.471649 283.433899,325.823425 279.645813,326.078003 
	C275.668884,326.345276 271.652740,326.025696 267.675262,326.288513 
	C263.787781,326.545410 262.258484,324.914337 262.175995,321.127808 
	C262.094574,317.390869 263.057922,314.960358 267.352417,314.979980 
	C278.165222,315.029419 288.978424,314.991394 299.791443,315.000153 
	C304.615814,315.004059 309.442474,315.135132 314.263916,315.025574 
	C318.494354,314.929474 319.106964,317.486694 319.154877,320.871277 
	C319.204163,324.350555 317.878082,326.212830 314.209991,326.160706 
	C309.885681,326.099243 305.549377,326.352264 301.237396,326.117279 
	C297.449951,325.910889 296.409668,327.466034 296.454010,331.083832 
	C296.629364,345.388824 296.560577,359.696930 296.556427,374.003906 
	C296.554840,379.571930 295.637787,380.265259 290.286285,380.457336 
	C285.435669,380.631409 284.400482,378.196960 284.547089,373.960602 
	C284.771301,367.480469 284.596619,360.986542 284.588287,353.998383 
z"/>
<path fill="#F4F4F4" opacity="1.000000" stroke="none" 
	d="
M495.821289,373.804230 
	C495.397217,374.953949 495.114105,375.737732 494.812775,376.514496 
	C491.407776,385.291412 490.552399,385.749817 481.218994,384.375458 
	C478.078491,383.912994 476.607941,382.550201 477.921143,379.316101 
	C486.632233,357.862701 495.377960,336.423309 504.050507,314.954315 
	C505.548615,311.245697 508.477631,310.844971 511.820831,311.074310 
	C515.461792,311.324127 519.575256,309.892761 521.618774,314.834686 
	C530.465942,336.230469 539.453613,357.568115 548.386414,378.928436 
	C549.805969,382.322968 548.498657,384.041626 544.987732,384.267517 
	C542.993530,384.395813 540.979492,384.267212 538.993347,384.454956 
	C535.865051,384.750580 534.150696,383.416473 532.937561,380.514221 
	C528.025940,368.763947 527.951843,368.799103 515.041565,368.888397 
	C510.875092,368.917236 506.696411,369.118652 502.545471,368.870453 
	C498.958527,368.655914 496.802795,369.963409 495.821289,373.804230 
M504.088562,353.907440 
	C504.561676,354.607666 505.019409,355.904205 505.510254,355.916901 
	C511.082214,356.060669 516.659180,356.008148 523.415649,356.008148 
	C519.907654,347.476990 516.852112,340.046204 513.796570,332.615417 
	C513.302917,332.685455 512.809265,332.755524 512.315613,332.825562 
	C509.651001,339.584839 506.986389,346.344116 504.088562,353.907440 
z"/>
<path fill="#F0F0F0" opacity="1.000000" stroke="none" 
	d="
M557.279663,380.295898 
	C557.152466,359.032074 557.057556,338.201660 557.005432,317.371124 
	C556.990051,311.246124 557.293884,311.042755 564.709900,311.059326 
	C571.612061,311.074738 571.697205,311.143219 571.711975,317.455231 
	C571.759277,337.619324 571.823730,357.783417 571.808044,377.947449 
	C571.806152,380.431610 572.755676,383.485504 568.825989,384.332550 
	C563.177124,385.550201 559.144165,384.361328 557.279663,380.295898 
z"/>
<path fill="#E3E3E3" opacity="1.000000" stroke="none" 
	d="
M543.074219,290.669525 
	C544.842651,290.722412 547.443054,290.793121 547.533447,291.306061 
	C547.811279,292.883270 547.601257,294.970520 546.698242,296.223328 
	C545.594666,297.754333 543.205261,298.356079 542.093994,299.884644 
	C540.957214,301.448151 540.052002,303.728790 540.282654,305.537811 
	C540.427856,306.677094 542.813721,307.578094 544.253601,308.492920 
	C546.005493,309.605988 547.819458,310.621246 549.606628,311.678833 
	C548.592468,313.256622 547.778870,315.930908 546.518250,316.161438 
	C544.505920,316.529541 542.025452,315.605255 540.067444,314.597107 
	C538.536072,313.808655 537.422119,312.126923 536.252502,310.733154 
	C532.505310,306.267609 532.720093,300.970734 536.763428,296.872528 
	C538.746155,294.862915 540.759033,292.882996 543.074219,290.669525 
z"/>
<path fill="#DEDEDE" opacity="1.000000" stroke="none" 
	d="
M550.171997,407.745056 
	C552.783691,407.048431 555.175903,406.376495 557.580322,406.329102 
	C564.986084,406.183136 572.396606,406.275909 580.602478,406.275909 
	C578.305969,410.645599 574.736572,412.576080 570.718201,413.051910 
	C565.472412,413.673035 560.126587,413.693054 554.832764,413.573761 
	C551.616089,413.501251 548.756592,412.381653 550.171997,407.745056 
z"/>
<path fill="#1A1A1A" opacity="1.000000" stroke="none" 
	d="
M504.205170,353.505432 
	C506.986389,346.344116 509.651001,339.584839 512.315613,332.825562 
	C512.809265,332.755524 513.302917,332.685455 513.796570,332.615417 
	C516.852112,340.046204 519.907654,347.476990 523.415649,356.008148 
	C516.659180,356.008148 511.082214,356.060669 505.510254,355.916901 
	C505.019409,355.904205 504.561676,354.607666 504.205170,353.505432 
z"/>
</svg>