<svg version="1.1" id="Layer_1" xmlns="http://www.w3.org/2000/svg" xmlns:xlink="http://www.w3.org/1999/xlink" x="0px" y="0px"
	 width="100%" viewBox="0 0 678 685" enable-background="new 0 0 678 685" xml:space="preserve">
<path fill="#010101" opacity="1.000000" stroke="none" 
	d="
M372.000000,686.000000 
	C248.000000,686.000000 124.500000,686.000000 1.000000,686.000000 
	C1.000000,457.666656 1.000000,229.333328 1.000000,1.000000 
	C227.000000,1.000000 453.000000,1.000000 679.000000,1.000000 
	C679.000000,229.333328 679.000000,457.666656 679.000000,686.000000 
	C576.833313,686.000000 474.666656,686.000000 372.000000,686.000000 
M524.224609,246.298645 
	C514.506409,244.491455 505.388397,245.487564 497.022827,251.380829 
	C495.787476,252.251083 492.923859,252.045700 491.487701,251.197098 
	C481.227875,245.134720 469.923309,245.545746 459.955078,252.303604 
	C457.928223,253.677689 455.122681,254.515137 452.664642,254.541779 
	C437.010529,254.711502 425.635254,261.441833 418.492859,275.510498 
	C417.528351,277.410370 415.194855,279.154602 413.117920,279.860229 
	C402.137177,283.590881 395.024811,290.842682 392.139954,302.043640 
	C391.549255,304.337128 390.041504,307.780334 394.397797,308.279938 
	C397.518005,308.637756 400.918884,309.497284 401.649933,304.196838 
	C402.771332,296.065826 407.851257,289.796661 415.661438,288.352905 
	C422.295624,287.126556 424.738129,284.313782 427.246613,278.396057 
	C432.426544,266.176178 443.171265,262.093262 455.919342,262.923523 
	C459.410004,263.150879 462.124481,262.738098 464.754608,259.893280 
	C468.695099,255.631042 478.865021,254.410141 483.999817,257.083344 
	C484.974792,257.590912 486.204590,259.092804 486.052338,259.896240 
	C485.872711,260.844025 484.408722,262.017944 483.338745,262.216553 
	C481.764740,262.508789 479.927185,261.567261 478.413788,261.962524 
	C474.860535,262.890533 470.622681,263.429169 468.153412,265.727722 
	C464.842987,268.809326 461.894257,269.711395 457.532227,269.324982 
	C442.164032,267.963623 434.086609,274.452606 431.212585,289.344177 
	C430.896881,290.980011 428.573517,292.570984 426.817017,293.475037 
	C425.471680,294.167450 423.546417,293.682526 421.888062,293.825378 
	C410.671509,294.791412 405.092651,305.736572 410.994354,315.231323 
	C414.335541,320.606720 417.722839,325.954437 421.162048,331.267517 
	C422.549500,333.410950 424.131195,335.428650 426.102539,338.167786 
	C431.214844,329.470947 435.621735,321.480499 440.581451,313.849335 
	C441.998322,311.669281 445.260986,308.889648 447.262787,309.185852 
	C458.779694,310.890228 466.813873,306.257782 472.861023,296.976532 
	C473.129395,296.564606 473.473022,296.097382 473.894928,295.906616 
	C476.788025,294.598694 479.654816,292.454651 482.635803,292.267914 
	C490.937439,291.747894 499.308075,292.347870 507.613556,291.860168 
	C510.431610,291.694672 513.678772,290.197235 515.787842,288.274963 
	C521.318970,283.233917 526.189514,277.474670 531.616882,272.310242 
	C533.922302,270.116577 533.674805,268.640930 531.870850,266.495544 
	C525.872620,259.362152 512.173584,257.823273 504.982574,263.705017 
	C503.764862,264.701019 502.746002,266.213318 502.186310,267.695190 
	C499.125122,275.800568 498.951752,276.218658 490.362030,275.951416 
	C485.074219,275.786896 480.990570,277.139648 477.950623,281.661743 
	C474.207123,287.230469 469.082794,289.789978 462.130310,288.859375 
	C460.158966,288.595520 456.765137,289.533478 456.027924,290.957672 
	C449.831299,302.929291 435.324127,300.507263 426.668976,308.227600 
	C424.652344,310.026428 421.190674,308.160828 420.640228,305.051361 
	C420.397247,303.678650 421.815918,300.943939 423.028198,300.560608 
	C429.313812,298.573029 435.782837,297.169952 442.175201,295.514069 
	C446.819122,294.311066 450.243164,289.213898 449.993958,284.462128 
	C449.925629,283.158905 450.425323,281.081482 451.298279,280.654022 
	C452.499847,280.065735 454.547394,280.242554 455.809082,280.901825 
	C462.193115,284.237732 468.721985,283.383545 472.940643,277.815338 
	C476.856049,272.647400 481.332031,269.505157 488.163055,270.605164 
	C492.365845,271.281952 494.644196,269.612823 496.712799,265.315887 
	C498.547211,261.505493 502.741364,258.108246 506.698547,256.180634 
	C517.805420,250.770355 532.101624,255.268738 538.665588,266.011963 
	C540.862549,269.607727 543.002991,270.387451 547.023193,270.020691 
	C556.464050,269.159424 564.901184,271.696381 570.860291,279.718384 
	C574.391235,284.471710 573.919128,286.499542 568.998474,289.794159 
	C567.934387,290.506592 567.075745,291.525909 566.122437,292.403931 
	C566.209778,292.806366 566.297180,293.208801 566.384521,293.611237 
	C577.356201,292.787476 587.149658,295.096283 592.692993,305.183044 
	C598.224915,315.248993 595.919922,324.695648 587.714783,333.006531 
	C589.836731,333.972961 591.364136,334.591644 592.821777,335.345276 
	C600.894653,339.519104 605.097778,348.168701 603.427307,357.090668 
	C601.866699,365.426605 595.827759,371.378113 588.299133,372.313568 
	C585.927795,372.608185 583.664307,373.718964 581.294128,374.092743 
	C579.817200,374.325714 577.185913,374.308929 576.913086,373.646362 
	C576.332520,372.236511 576.321655,369.436523 577.208130,368.812408 
	C579.216309,367.398468 581.868652,366.800690 584.334167,366.160248 
	C587.314575,365.386108 591.004578,365.776947 593.266174,364.126801 
	C598.060486,360.628571 598.504700,355.077057 597.341370,349.590057 
	C596.255066,344.466400 592.877441,341.380981 587.353027,339.704407 
	C587.643066,342.802612 588.298950,345.438354 587.967102,347.943359 
	C587.775269,349.391785 586.229248,351.229980 584.850464,351.776031 
	C583.701233,352.231140 581.351868,351.493164 580.561707,350.481262 
	C579.827087,349.540558 580.429016,347.538818 580.482666,346.005615 
	C580.522522,344.866180 580.612854,343.727844 580.704712,342.591003 
	C581.096985,337.735901 577.861145,332.190430 582.875427,328.210663 
	C589.073608,323.291290 591.242554,318.587982 589.531311,312.427307 
	C587.635437,305.601929 581.941406,300.730225 574.859131,299.956116 
	C571.716553,299.612579 568.345947,299.978577 565.478516,298.929840 
	C563.182983,298.090302 560.641541,295.950989 559.734314,293.757721 
	C558.425659,290.593933 560.096802,287.617310 563.277283,285.849487 
	C564.364136,285.245331 565.413269,284.573181 566.698364,283.800598 
	C561.723938,276.929413 555.170654,275.000488 547.585632,275.470612 
	C544.936401,275.634766 542.248840,275.612091 539.654114,276.086578 
	C537.622253,276.458099 535.187134,276.940704 533.832642,278.283417 
	C528.986816,283.087067 524.387207,288.160919 519.966431,293.363678 
	C517.047913,296.798401 513.824280,298.554260 509.172394,298.224670 
	C504.031677,297.860413 498.694580,298.926575 493.709869,297.973755 
	C482.487518,295.828644 475.868500,301.777222 470.228394,309.931519 
	C469.277954,311.305664 468.650513,313.219635 468.649200,314.884796 
	C468.636169,331.381012 468.901245,347.878235 468.773621,364.372742 
	C468.753204,367.009125 467.696014,369.972656 466.230072,372.200623 
	C461.590729,379.251434 455.422485,383.934753 446.315308,383.082031 
	C445.095215,382.967804 443.830017,383.335052 442.101990,383.535461 
	C446.088562,392.048187 451.907593,397.708008 460.255035,400.878357 
	C469.234985,404.288879 477.947266,402.956268 486.577484,399.736450 
	C489.737793,398.557343 491.260284,398.816864 491.966705,402.749908 
	C492.503845,405.740662 494.357574,408.719116 496.293427,411.177032 
	C498.644043,414.161652 501.444000,416.932953 504.492737,419.200775 
	C513.614868,425.986328 518.170532,434.456787 516.440674,446.134399 
	C515.978271,449.255920 514.767700,454.393372 520.696899,454.351624 
	C526.809570,454.308655 524.750061,449.224915 525.322083,445.737793 
	C527.487976,432.536224 523.313843,422.164581 512.253174,414.389984 
	C505.758148,409.824615 502.996674,403.388855 504.271790,395.292572 
	C504.733765,392.359375 504.145142,389.265564 504.558197,386.318237 
	C504.852234,384.220276 505.957336,380.563690 506.809631,380.531952 
	C509.298950,380.439178 512.295227,381.228729 514.263550,382.747284 
	C517.525330,385.263733 519.883423,388.942169 523.116516,391.508453 
	C525.252502,393.203949 528.234863,394.702576 530.869812,394.756592 
	C546.029297,395.067474 561.198242,394.910614 576.363953,394.943237 
	C578.101318,394.946991 579.838257,395.143280 581.671692,395.256256 
	C582.090332,399.893036 580.335876,401.478119 576.261169,401.439728 
	C560.096802,401.287415 543.928894,401.422119 527.767456,401.149048 
	C525.562317,401.111786 522.923584,399.858582 521.294617,398.314758 
	C518.118530,395.304626 515.515076,391.690277 512.674561,388.326141 
	C509.548889,398.488190 510.332031,406.324615 518.522583,412.183197 
	C522.276001,414.867920 525.545715,418.366180 528.547119,421.908661 
	C530.113159,423.757080 531.318115,426.456451 531.472900,428.849884 
	C531.880676,435.156982 531.643677,441.507019 531.625305,447.839844 
	C531.615967,451.067108 531.919861,454.163666 536.182556,454.044373 
	C540.242310,453.930756 540.797180,450.972229 540.779724,447.694489 
	C540.739014,440.028442 540.842407,432.360168 540.684998,424.696960 
	C540.611267,421.107483 541.832764,419.602051 545.613953,419.733948 
	C552.437744,419.972015 559.297668,420.160583 566.103455,419.739471 
	C584.153015,418.622772 595.288330,401.811218 589.499512,384.820801 
	C589.135315,383.751923 588.911865,382.635101 588.572571,381.349548 
	C589.700562,380.933167 590.597534,380.544647 591.527588,380.267151 
	C612.967346,373.870544 619.217896,348.631042 603.096985,333.073120 
	C600.826294,330.881714 600.999573,329.075134 601.933472,326.467743 
	C607.471497,311.006683 600.873718,295.436218 586.155151,288.273956 
	C584.337463,287.389435 582.480957,285.442291 581.791077,283.565399 
	C576.773376,269.914001 564.185059,261.108124 549.548401,260.986755 
	C547.587891,260.970490 545.121643,259.742462 543.780273,258.266266 
	C538.584961,252.548599 532.546387,248.407043 524.224609,246.298645 
M391.550659,378.725769 
	C400.691986,380.495972 402.021484,379.437317 401.950958,370.648499 
	C401.882812,362.153503 401.870178,353.657867 401.890259,345.162659 
	C401.893311,343.870972 402.205078,342.580017 402.374054,341.288696 
	C404.250122,342.421783 405.057281,343.631317 405.803894,344.877167 
	C410.338104,352.443695 414.734863,360.096069 419.421570,367.566681 
	C423.362061,373.847809 428.722748,373.674194 432.520905,367.228394 
	C437.169159,359.339996 441.627014,351.339508 446.214783,343.415039 
	C446.773773,342.449493 447.627502,341.654663 449.280792,339.639923 
	C449.280792,350.231720 449.343536,359.206390 449.251953,368.179474 
	C449.211700,372.124695 449.980896,375.299286 454.750427,375.331604 
	C458.592590,375.357666 461.005859,372.510590 461.006195,367.914795 
	C461.007324,352.756104 460.957367,337.597168 460.844727,322.438934 
	C460.824310,319.690887 461.273590,316.330933 457.268341,315.817444 
	C453.263580,315.304016 449.108246,313.946838 446.391907,319.025330 
	C440.739899,329.592377 434.729218,339.967987 428.828979,350.401367 
	C428.002808,351.862213 426.967682,353.204926 425.578735,355.273285 
	C424.187988,352.976807 423.317291,351.601837 422.507538,350.191895 
	C416.539612,339.800232 410.481079,329.458618 404.668152,318.980774 
	C401.831360,313.867493 397.334412,315.225922 393.209747,315.692719 
	C388.967407,316.172852 390.189880,319.839844 390.174408,322.452393 
	C390.075714,339.109802 390.059204,355.767883 390.100647,372.425568 
	C390.105438,374.348602 390.634705,376.270325 391.550659,378.725769 
M328.130402,348.499695 
	C328.097229,357.159546 328.140656,365.820740 327.992462,374.478607 
	C327.934662,377.857819 329.292786,379.395569 332.671051,379.386566 
	C346.493744,379.349731 360.316620,379.367371 374.139404,379.365448 
	C378.089966,379.364899 379.289307,377.090027 379.142883,373.514801 
	C379.001190,370.055328 377.552490,368.469971 373.869019,368.556763 
	C366.379517,368.733185 358.880981,368.641510 351.388031,368.532867 
	C338.043121,368.339355 340.088531,371.423553 339.745117,356.581329 
	C339.667114,353.209717 341.019623,352.266632 344.169495,352.323669 
	C351.661011,352.459351 359.160431,352.202576 366.650116,352.379791 
	C370.674042,352.475006 372.818542,351.538605 372.802155,346.879120 
	C372.785217,342.062469 370.308380,341.463409 366.454102,341.597229 
	C361.297577,341.776215 356.129333,341.699066 350.967499,341.628357 
	C337.906250,341.449493 340.093201,343.879700 339.692444,330.247253 
	C339.589142,326.733002 340.871582,325.602875 344.333984,325.663330 
	C354.156830,325.834869 363.985260,325.654541 373.810394,325.740143 
	C377.500397,325.772308 378.791656,324.015656 378.829193,320.530182 
	C378.866028,317.112000 377.804474,315.138336 374.032104,315.159576 
	C360.542755,315.235565 347.052887,315.241669 333.563232,315.235779 
	C329.635193,315.234039 327.888306,316.909424 327.988007,321.022003 
	C328.201904,329.843781 328.092346,338.673401 328.130402,348.499695 
M121.473839,325.877197 
	C123.971207,325.857391 126.471626,325.750519 128.965240,325.837982 
	C132.791229,325.972229 134.925964,324.666107 134.785187,320.389130 
	C134.647964,316.220734 132.536270,314.966431 128.713150,315.018463 
	C120.389915,315.131683 112.054024,314.803741 103.743561,315.146851 
	C100.003586,315.301270 96.039566,316.025757 92.653664,317.549988 
	C84.852417,321.061890 81.320389,329.543060 83.204155,338.578613 
	C84.857185,346.507385 91.611107,352.227325 100.404160,352.679871 
	C106.548866,352.996124 112.730667,352.598236 118.874458,352.923889 
	C124.433281,353.218536 127.284363,356.678772 126.743675,361.698761 
	C126.270065,366.095978 123.363701,368.558807 117.991440,368.633240 
	C108.336807,368.766968 98.679405,368.691193 89.023270,368.730316 
	C85.515633,368.744537 83.902290,370.635895 83.877190,374.068970 
	C83.854034,377.234650 85.284897,379.406372 88.509186,379.385071 
	C100.315506,379.307129 112.163475,379.547211 123.911240,378.609070 
	C132.311005,377.938232 137.844757,370.290375 138.126343,361.293427 
	C138.406128,352.354095 133.273300,344.584442 124.925560,343.183136 
	C118.104767,342.038086 111.042694,342.269043 104.082748,342.032013 
	C97.434563,341.805573 94.306900,339.341492 94.305099,334.047089 
	C94.303276,328.706177 97.240334,326.134949 104.000359,325.933746 
	C109.489983,325.770325 114.987961,325.887360 121.473839,325.877197 
M208.866196,321.374054 
	C203.547821,328.134369 203.292862,335.595886 206.831955,342.969788 
	C210.389572,350.382263 217.107590,352.882294 225.049820,352.786438 
	C230.371567,352.722198 235.706909,352.750153 241.016891,353.063538 
	C245.489975,353.327545 248.006699,355.933380 248.062180,360.521973 
	C248.113861,364.797516 245.179688,367.972443 240.719330,368.463470 
	C238.742065,368.681122 236.731308,368.621094 234.735336,368.637970 
	C226.745728,368.705536 218.755966,368.757355 210.766220,368.807678 
	C207.301758,368.829498 206.146271,370.886108 206.150406,373.991730 
	C206.154037,376.730957 206.781372,379.266327 210.076431,379.257233 
	C221.712860,379.225159 233.393661,379.565735 244.969955,378.652924 
	C253.553650,377.976166 259.060516,370.497009 259.349915,361.527008 
	C259.652435,352.150269 254.739044,344.763062 245.891678,343.185150 
	C239.252319,342.001038 232.351059,342.240662 225.561829,341.954865 
	C219.216141,341.687683 216.110565,339.260498 215.987946,334.254395 
	C215.855545,328.849030 218.937897,326.049744 225.439331,325.954834 
	C233.927261,325.830902 242.417374,325.834625 250.906570,325.829834 
	C254.590652,325.827759 256.391571,324.282593 256.292114,320.385956 
	C256.195007,316.583679 254.502335,315.007996 250.759064,315.042511 
	C241.770950,315.125397 232.778748,314.928650 223.793655,315.112579 
	C218.357086,315.223907 213.241745,316.610809 208.866196,321.374054 
M182.178848,347.854553 
	C183.274490,346.184357 184.380493,344.520874 185.464020,342.842834 
	C190.247986,335.434021 195.157410,328.099854 199.679489,320.534302 
	C200.461807,319.225433 200.259506,315.821930 199.368881,315.286163 
	C195.945312,313.226593 189.428680,315.438507 187.155945,319.014526 
	C183.138321,325.336029 179.273285,331.754333 175.271301,338.085938 
	C174.362167,339.524292 173.154495,340.773926 171.575897,342.745178 
	C166.524353,334.847809 161.688354,327.886292 157.517502,320.546814 
	C154.932098,315.997253 151.687622,314.317657 146.614609,314.810944 
	C141.437729,315.314362 140.660233,316.430511 143.573700,320.994781 
	C147.423904,327.026520 150.996979,333.318481 155.510574,338.825348 
	C163.870178,349.024506 167.750229,360.256866 165.768188,373.385132 
	C165.061707,378.064667 167.167419,379.534576 171.736832,379.315399 
	C176.246582,379.099091 178.037735,377.260162 177.742676,372.821655 
	C177.511169,369.339203 177.905243,365.808563 177.581604,362.340393 
	C177.090164,357.073883 178.318924,352.474854 182.178848,347.854553 
M318.511963,325.564941 
	C319.016388,322.814362 320.136963,319.964935 319.719574,317.362183 
	C319.554413,316.332458 315.980621,315.258636 313.938599,315.217865 
	C301.965973,314.978638 289.987396,315.031128 278.010773,315.004059 
	C275.017059,314.997284 272.022522,315.029907 269.029572,315.097748 
	C264.810883,315.193329 264.478943,318.019836 264.558746,321.318329 
	C264.635590,324.491150 265.622040,326.341736 269.241455,326.128052 
	C273.055634,325.902893 276.928436,326.353394 280.706604,325.914459 
	C285.605865,325.345306 286.621094,327.561188 286.569855,331.902649 
	C286.407013,345.706696 286.670593,359.515961 286.489502,373.319519 
	C286.434631,377.503448 287.549561,379.422882 292.057220,379.349915 
	C296.284454,379.281494 298.419830,378.334900 298.318359,373.438873 
	C298.025391,359.305542 298.336121,345.160217 298.091156,331.025116 
	C298.021118,326.982758 299.378204,325.774994 303.236847,325.949921 
	C308.044342,326.167938 312.874420,325.887756 318.511963,325.564941 
z"/>
<path fill="#EFEFEF" opacity="1.000000" stroke="none" 
	d="
M524.618286,246.419876 
	C532.546387,248.407043 538.584961,252.548599 543.780273,258.266266 
	C545.121643,259.742462 547.587891,260.970490 549.548401,260.986755 
	C564.185059,261.108124 576.773376,269.914001 581.791077,283.565399 
	C582.480957,285.442291 584.337463,287.389435 586.155151,288.273956 
	C600.873718,295.436218 607.471497,311.006683 601.933472,326.467743 
	C600.999573,329.075134 600.826294,330.881714 603.096985,333.073120 
	C619.217896,348.631042 612.967346,373.870544 591.527588,380.267151 
	C590.597534,380.544647 589.700562,380.933167 588.572571,381.349548 
	C588.911865,382.635101 589.135315,383.751923 589.499512,384.820801 
	C595.288330,401.811218 584.153015,418.622772 566.103455,419.739471 
	C559.297668,420.160583 552.437744,419.972015 545.613953,419.733948 
	C541.832764,419.602051 540.611267,421.107483 540.684998,424.696960 
	C540.842407,432.360168 540.739014,440.028442 540.779724,447.694489 
	C540.797180,450.972229 540.242310,453.930756 536.182556,454.044373 
	C531.919861,454.163666 531.615967,451.067108 531.625305,447.839844 
	C531.643677,441.507019 531.880676,435.156982 531.472900,428.849884 
	C531.318115,426.456451 530.113159,423.757080 528.547119,421.908661 
	C525.545715,418.366180 522.276001,414.867920 518.522583,412.183197 
	C510.332031,406.324615 509.548889,398.488190 512.674561,388.326141 
	C515.515076,391.690277 518.118530,395.304626 521.294617,398.314758 
	C522.923584,399.858582 525.562317,401.111786 527.767456,401.149048 
	C543.928894,401.422119 560.096802,401.287415 576.261169,401.439728 
	C580.335876,401.478119 582.090332,399.893036 581.671692,395.256256 
	C579.838257,395.143280 578.101318,394.946991 576.363953,394.943237 
	C561.198242,394.910614 546.029297,395.067474 530.869812,394.756592 
	C528.234863,394.702576 525.252502,393.203949 523.116516,391.508453 
	C519.883423,388.942169 517.525330,385.263733 514.263550,382.747284 
	C512.295227,381.228729 509.298950,380.439178 506.809631,380.531952 
	C505.957336,380.563690 504.852234,384.220276 504.558197,386.318237 
	C504.145142,389.265564 504.733765,392.359375 504.271790,395.292572 
	C502.996674,403.388855 505.758148,409.824615 512.253174,414.389984 
	C523.313843,422.164581 527.487976,432.536224 525.322083,445.737793 
	C524.750061,449.224915 526.809570,454.308655 520.696899,454.351624 
	C514.767700,454.393372 515.978271,449.255920 516.440674,446.134399 
	C518.170532,434.456787 513.614868,425.986328 504.492737,419.200775 
	C501.444000,416.932953 498.644043,414.161652 496.293427,411.177032 
	C494.357574,408.719116 492.503845,405.740662 491.966705,402.749908 
	C491.260284,398.816864 489.737793,398.557343 486.577484,399.736450 
	C477.947266,402.956268 469.234985,404.288879 460.255035,400.878357 
	C451.907593,397.708008 446.088562,392.048187 442.101990,383.535461 
	C443.830017,383.335052 445.095215,382.967804 446.315308,383.082031 
	C455.422485,383.934753 461.590729,379.251434 466.230072,372.200623 
	C467.696014,369.972656 468.753204,367.009125 468.773621,364.372742 
	C468.901245,347.878235 468.636169,331.381012 468.649200,314.884796 
	C468.650513,313.219635 469.277954,311.305664 470.228394,309.931519 
	C475.868500,301.777222 482.487518,295.828644 493.709869,297.973755 
	C498.694580,298.926575 504.031677,297.860413 509.172394,298.224670 
	C513.824280,298.554260 517.047913,296.798401 519.966431,293.363678 
	C524.387207,288.160919 528.986816,283.087067 533.832642,278.283417 
	C535.187134,276.940704 537.622253,276.458099 539.654114,276.086578 
	C542.248840,275.612091 544.936401,275.634766 547.585632,275.470612 
	C555.170654,275.000488 561.723938,276.929413 566.698364,283.800598 
	C565.413269,284.573181 564.364136,285.245331 563.277283,285.849487 
	C560.096802,287.617310 558.425659,290.593933 559.734314,293.757721 
	C560.641541,295.950989 563.182983,298.090302 565.478516,298.929840 
	C568.345947,299.978577 571.716553,299.612579 574.859131,299.956116 
	C581.941406,300.730225 587.635437,305.601929 589.531311,312.427307 
	C591.242554,318.587982 589.073608,323.291290 582.875427,328.210663 
	C577.861145,332.190430 581.096985,337.735901 580.704712,342.591003 
	C580.612854,343.727844 580.522522,344.866180 580.482666,346.005615 
	C580.429016,347.538818 579.827087,349.540558 580.561707,350.481262 
	C581.351868,351.493164 583.701233,352.231140 584.850464,351.776031 
	C586.229248,351.229980 587.775269,349.391785 587.967102,347.943359 
	C588.298950,345.438354 587.643066,342.802612 587.353027,339.704407 
	C592.877441,341.380981 596.255066,344.466400 597.341370,349.590057 
	C598.504700,355.077057 598.060486,360.628571 593.266174,364.126801 
	C591.004578,365.776947 587.314575,365.386108 584.334167,366.160248 
	C581.868652,366.800690 579.216309,367.398468 577.208130,368.812408 
	C576.321655,369.436523 576.332520,372.236511 576.913086,373.646362 
	C577.185913,374.308929 579.817200,374.325714 581.294128,374.092743 
	C583.664307,373.718964 585.927795,372.608185 588.299133,372.313568 
	C595.827759,371.378113 601.866699,365.426605 603.427307,357.090668 
	C605.097778,348.168701 600.894653,339.519104 592.821777,335.345276 
	C591.364136,334.591644 589.836731,333.972961 587.714783,333.006531 
	C595.919922,324.695648 598.224915,315.248993 592.692993,305.183044 
	C587.149658,295.096283 577.356201,292.787476 566.384521,293.611237 
	C566.297180,293.208801 566.209778,292.806366 566.122437,292.403931 
	C567.075745,291.525909 567.934387,290.506592 568.998474,289.794159 
	C573.919128,286.499542 574.391235,284.471710 570.860291,279.718384 
	C564.901184,271.696381 556.464050,269.159424 547.023193,270.020691 
	C543.002991,270.387451 540.862549,269.607727 538.665588,266.011963 
	C532.101624,255.268738 517.805420,250.770355 506.698547,256.180634 
	C502.741364,258.108246 498.547211,261.505493 496.712799,265.315887 
	C494.644196,269.612823 492.365845,271.281952 488.163055,270.605164 
	C481.332031,269.505157 476.856049,272.647400 472.940643,277.815338 
	C468.721985,283.383545 462.193115,284.237732 455.809082,280.901825 
	C454.547394,280.242554 452.499847,280.065735 451.298279,280.654022 
	C450.425323,281.081482 449.925629,283.158905 449.993958,284.462128 
	C450.243164,289.213898 446.819122,294.311066 442.175201,295.514069 
	C435.782837,297.169952 429.313812,298.573029 423.028198,300.560608 
	C421.815918,300.943939 420.397247,303.678650 420.640228,305.051361 
	C421.190674,308.160828 424.652344,310.026428 426.668976,308.227600 
	C435.324127,300.507263 449.831299,302.929291 456.027924,290.957672 
	C456.765137,289.533478 460.158966,288.595520 462.130310,288.859375 
	C469.082794,289.789978 474.207123,287.230469 477.950623,281.661743 
	C480.990570,277.139648 485.074219,275.786896 490.362030,275.951416 
	C498.951752,276.218658 499.125122,275.800568 502.186310,267.695190 
	C502.746002,266.213318 503.764862,264.701019 504.982574,263.705017 
	C512.173584,257.823273 525.872620,259.362152 531.870850,266.495544 
	C533.674805,268.640930 533.922302,270.116577 531.616882,272.310242 
	C526.189514,277.474670 521.318970,283.233917 515.787842,288.274963 
	C513.678772,290.197235 510.431610,291.694672 507.613556,291.860168 
	C499.308075,292.347870 490.937439,291.747894 482.635803,292.267914 
	C479.654816,292.454651 476.788025,294.598694 473.894928,295.906616 
	C473.473022,296.097382 473.129395,296.564606 472.861023,296.976532 
	C466.813873,306.257782 458.779694,310.890228 447.262787,309.185852 
	C445.260986,308.889648 441.998322,311.669281 440.581451,313.849335 
	C435.621735,321.480499 431.214844,329.470947 426.102539,338.167786 
	C424.131195,335.428650 422.549500,333.410950 421.162048,331.267517 
	C417.722839,325.954437 414.335541,320.606720 410.994354,315.231323 
	C405.092651,305.736572 410.671509,294.791412 421.888062,293.825378 
	C423.546417,293.682526 425.471680,294.167450 426.817017,293.475037 
	C428.573517,292.570984 430.896881,290.980011 431.212585,289.344177 
	C434.086609,274.452606 442.164032,267.963623 457.532227,269.324982 
	C461.894257,269.711395 464.842987,268.809326 468.153412,265.727722 
	C470.622681,263.429169 474.860535,262.890533 478.413788,261.962524 
	C479.927185,261.567261 481.764740,262.508789 483.338745,262.216553 
	C484.408722,262.017944 485.872711,260.844025 486.052338,259.896240 
	C486.204590,259.092804 484.974792,257.590912 483.999817,257.083344 
	C478.865021,254.410141 468.695099,255.631042 464.754608,259.893280 
	C462.124481,262.738098 459.410004,263.150879 455.919342,262.923523 
	C443.171265,262.093262 432.426544,266.176178 427.246613,278.396057 
	C424.738129,284.313782 422.295624,287.126556 415.661438,288.352905 
	C407.851257,289.796661 402.771332,296.065826 401.649933,304.196838 
	C400.918884,309.497284 397.518005,308.637756 394.397797,308.279938 
	C390.041504,307.780334 391.549255,304.337128 392.139954,302.043640 
	C395.024811,290.842682 402.137177,283.590881 413.117920,279.860229 
	C415.194855,279.154602 417.528351,277.410370 418.492859,275.510498 
	C425.635254,261.441833 437.010529,254.711502 452.664642,254.541779 
	C455.122681,254.515137 457.928223,253.677689 459.955078,252.303604 
	C469.923309,245.545746 481.227875,245.134720 491.487701,251.197098 
	C492.923859,252.045700 495.787476,252.251083 497.022827,251.380829 
	C505.388397,245.487564 514.506409,244.491455 524.618286,246.419876 
M507.188751,311.229095 
	C505.573151,312.469360 503.144287,313.370850 502.465179,315.001221 
	C493.703827,336.034760 485.200989,357.175934 476.606018,378.278961 
	C475.414703,381.203918 476.383606,382.617096 479.424500,383.127533 
	C488.673645,384.680054 489.987823,383.968231 493.358032,375.161652 
	C493.714996,374.228821 494.118835,373.304993 494.372345,372.343140 
	C495.224609,369.109253 497.188965,367.900055 500.592834,368.020142 
	C506.744476,368.237152 512.962158,368.512787 519.056458,367.864166 
	C524.756653,367.257507 527.266479,369.285767 529.012207,374.616638 
	C532.000977,383.743408 532.364563,383.624329 541.647400,383.107269 
	C546.771790,382.821808 547.510620,381.668091 545.502502,376.861115 
	C537.614319,357.978607 529.716553,339.100098 521.793213,320.232300 
	C517.557739,310.146362 518.856934,311.231415 507.188751,311.229095 
M554.541504,341.578522 
	C554.577148,352.734680 554.623108,363.890778 554.645081,375.046967 
	C554.661072,383.153229 554.888123,383.385406 563.133606,383.199097 
	C563.799438,383.184052 564.466064,383.127289 565.130676,383.146942 
	C567.903992,383.228973 568.942749,381.813416 568.932983,379.140167 
	C568.854980,357.826996 568.898254,336.512695 568.621887,315.202454 
	C568.604309,313.850677 566.439209,312.084839 564.877502,311.328949 
	C563.526428,310.674957 561.599976,311.312927 559.949829,311.153259 
	C555.842834,310.755707 554.232422,312.515991 554.344910,316.629456 
	C554.563171,324.617157 554.491150,332.612793 554.541504,341.578522 
M538.137390,293.616638 
	C537.209961,294.566620 536.299438,295.533752 535.352417,296.463776 
	C529.885864,301.832001 529.912903,306.832642 535.430420,312.345093 
	C536.247986,313.161896 536.846802,314.462860 537.810852,314.813141 
	C539.904297,315.573761 542.254639,316.432739 544.327942,316.118164 
	C545.434875,315.950226 546.184143,313.424805 547.094788,311.963348 
	C545.357666,310.901428 543.599060,309.872742 541.890015,308.767395 
	C540.462708,307.844208 538.217957,307.043671 537.917542,305.805084 
	C537.532532,304.217590 538.457214,302.091858 539.348755,300.494446 
	C539.924805,299.462402 541.866943,299.202332 542.465820,298.171570 
	C543.649780,296.133667 545.703308,292.880310 544.955750,291.762787 
	C542.695129,288.383392 540.545410,291.402527 538.137390,293.616638 
M560.500916,404.862549 
	C557.680298,404.871124 554.797974,404.530426 552.061279,405.014099 
	C550.310059,405.323608 548.773865,406.850494 547.141296,407.831635 
	C548.700928,409.195648 550.182373,411.606750 551.834717,411.730316 
	C557.099060,412.123840 562.463013,411.999268 567.718750,411.430206 
	C571.743164,410.994476 575.266052,409.051392 577.573364,404.862793 
	C571.680298,404.862793 566.582397,404.862793 560.500916,404.862549 
z"/>
<path fill="#ECECEC" opacity="1.000000" stroke="none" 
	d="
M391.235748,378.459229 
	C390.634705,376.270325 390.105438,374.348602 390.100647,372.425568 
	C390.059204,355.767883 390.075714,339.109802 390.174408,322.452393 
	C390.189880,319.839844 388.967407,316.172852 393.209747,315.692719 
	C397.334412,315.225922 401.831360,313.867493 404.668152,318.980774 
	C410.481079,329.458618 416.539612,339.800232 422.507538,350.191895 
	C423.317291,351.601837 424.187988,352.976807 425.578735,355.273285 
	C426.967682,353.204926 428.002808,351.862213 428.828979,350.401367 
	C434.729218,339.967987 440.739899,329.592377 446.391907,319.025330 
	C449.108246,313.946838 453.263580,315.304016 457.268341,315.817444 
	C461.273590,316.330933 460.824310,319.690887 460.844727,322.438934 
	C460.957367,337.597168 461.007324,352.756104 461.006195,367.914795 
	C461.005859,372.510590 458.592590,375.357666 454.750427,375.331604 
	C449.980896,375.299286 449.211700,372.124695 449.251953,368.179474 
	C449.343536,359.206390 449.280792,350.231720 449.280792,339.639923 
	C447.627502,341.654663 446.773773,342.449493 446.214783,343.415039 
	C441.627014,351.339508 437.169159,359.339996 432.520905,367.228394 
	C428.722748,373.674194 423.362061,373.847809 419.421570,367.566681 
	C414.734863,360.096069 410.338104,352.443695 405.803894,344.877167 
	C405.057281,343.631317 404.250122,342.421783 402.374054,341.288696 
	C402.205078,342.580017 401.893311,343.870972 401.890259,345.162659 
	C401.870178,353.657867 401.882812,362.153503 401.950958,370.648499 
	C402.021484,379.437317 400.691986,380.495972 391.235748,378.459229 
z"/>
<path fill="#EBEBEB" opacity="1.000000" stroke="none" 
	d="
M328.122803,347.999756 
	C328.092346,338.673401 328.201904,329.843781 327.988007,321.022003 
	C327.888306,316.909424 329.635193,315.234039 333.563232,315.235779 
	C347.052887,315.241669 360.542755,315.235565 374.032104,315.159576 
	C377.804474,315.138336 378.866028,317.112000 378.829193,320.530182 
	C378.791656,324.015656 377.500397,325.772308 373.810394,325.740143 
	C363.985260,325.654541 354.156830,325.834869 344.333984,325.663330 
	C340.871582,325.602875 339.589142,326.733002 339.692444,330.247253 
	C340.093201,343.879700 337.906250,341.449493 350.967499,341.628357 
	C356.129333,341.699066 361.297577,341.776215 366.454102,341.597229 
	C370.308380,341.463409 372.785217,342.062469 372.802155,346.879120 
	C372.818542,351.538605 370.674042,352.475006 366.650116,352.379791 
	C359.160431,352.202576 351.661011,352.459351 344.169495,352.323669 
	C341.019623,352.266632 339.667114,353.209717 339.745117,356.581329 
	C340.088531,371.423553 338.043121,368.339355 351.388031,368.532867 
	C358.880981,368.641510 366.379517,368.733185 373.869019,368.556763 
	C377.552490,368.469971 379.001190,370.055328 379.142883,373.514801 
	C379.289307,377.090027 378.089966,379.364899 374.139404,379.365448 
	C360.316620,379.367371 346.493744,379.349731 332.671051,379.386566 
	C329.292786,379.395569 327.934662,377.857819 327.992462,374.478607 
	C328.140656,365.820740 328.097229,357.159546 328.122803,347.999756 
z"/>
<path fill="#EDEDED" opacity="1.000000" stroke="none" 
	d="
M120.978035,325.878601 
	C114.987961,325.887360 109.489983,325.770325 104.000359,325.933746 
	C97.240334,326.134949 94.303276,328.706177 94.305099,334.047089 
	C94.306900,339.341492 97.434563,341.805573 104.082748,342.032013 
	C111.042694,342.269043 118.104767,342.038086 124.925560,343.183136 
	C133.273300,344.584442 138.406128,352.354095 138.126343,361.293427 
	C137.844757,370.290375 132.311005,377.938232 123.911240,378.609070 
	C112.163475,379.547211 100.315506,379.307129 88.509186,379.385071 
	C85.284897,379.406372 83.854034,377.234650 83.877190,374.068970 
	C83.902290,370.635895 85.515633,368.744537 89.023270,368.730316 
	C98.679405,368.691193 108.336807,368.766968 117.991440,368.633240 
	C123.363701,368.558807 126.270065,366.095978 126.743675,361.698761 
	C127.284363,356.678772 124.433281,353.218536 118.874458,352.923889 
	C112.730667,352.598236 106.548866,352.996124 100.404160,352.679871 
	C91.611107,352.227325 84.857185,346.507385 83.204155,338.578613 
	C81.320389,329.543060 84.852417,321.061890 92.653664,317.549988 
	C96.039566,316.025757 100.003586,315.301270 103.743561,315.146851 
	C112.054024,314.803741 120.389915,315.131683 128.713150,315.018463 
	C132.536270,314.966431 134.647964,316.220734 134.785187,320.389130 
	C134.925964,324.666107 132.791229,325.972229 128.965240,325.837982 
	C126.471626,325.750519 123.971207,325.857391 120.978035,325.878601 
z"/>
<path fill="#EDEDED" opacity="1.000000" stroke="none" 
	d="
M209.111221,321.112671 
	C213.241745,316.610809 218.357086,315.223907 223.793655,315.112579 
	C232.778748,314.928650 241.770950,315.125397 250.759064,315.042511 
	C254.502335,315.007996 256.195007,316.583679 256.292114,320.385956 
	C256.391571,324.282593 254.590652,325.827759 250.906570,325.829834 
	C242.417374,325.834625 233.927261,325.830902 225.439331,325.954834 
	C218.937897,326.049744 215.855545,328.849030 215.987946,334.254395 
	C216.110565,339.260498 219.216141,341.687683 225.561829,341.954865 
	C232.351059,342.240662 239.252319,342.001038 245.891678,343.185150 
	C254.739044,344.763062 259.652435,352.150269 259.349915,361.527008 
	C259.060516,370.497009 253.553650,377.976166 244.969955,378.652924 
	C233.393661,379.565735 221.712860,379.225159 210.076431,379.257233 
	C206.781372,379.266327 206.154037,376.730957 206.150406,373.991730 
	C206.146271,370.886108 207.301758,368.829498 210.766220,368.807678 
	C218.755966,368.757355 226.745728,368.705536 234.735336,368.637970 
	C236.731308,368.621094 238.742065,368.681122 240.719330,368.463470 
	C245.179688,367.972443 248.113861,364.797516 248.062180,360.521973 
	C248.006699,355.933380 245.489975,353.327545 241.016891,353.063538 
	C235.706909,352.750153 230.371567,352.722198 225.049820,352.786438 
	C217.107590,352.882294 210.389572,350.382263 206.831955,342.969788 
	C203.292862,335.595886 203.547821,328.134369 209.111221,321.112671 
z"/>
<path fill="#ECECEC" opacity="1.000000" stroke="none" 
	d="
M181.990631,348.172302 
	C178.318924,352.474854 177.090164,357.073883 177.581604,362.340393 
	C177.905243,365.808563 177.511169,369.339203 177.742676,372.821655 
	C178.037735,377.260162 176.246582,379.099091 171.736832,379.315399 
	C167.167419,379.534576 165.061707,378.064667 165.768188,373.385132 
	C167.750229,360.256866 163.870178,349.024506 155.510574,338.825348 
	C150.996979,333.318481 147.423904,327.026520 143.573700,320.994781 
	C140.660233,316.430511 141.437729,315.314362 146.614609,314.810944 
	C151.687622,314.317657 154.932098,315.997253 157.517502,320.546814 
	C161.688354,327.886292 166.524353,334.847809 171.575897,342.745178 
	C173.154495,340.773926 174.362167,339.524292 175.271301,338.085938 
	C179.273285,331.754333 183.138321,325.336029 187.155945,319.014526 
	C189.428680,315.438507 195.945312,313.226593 199.368881,315.286163 
	C200.259506,315.821930 200.461807,319.225433 199.679489,320.534302 
	C195.157410,328.099854 190.247986,335.434021 185.464020,342.842834 
	C184.380493,344.520874 183.274490,346.184357 181.990631,348.172302 
z"/>
<path fill="#EFEFEF" opacity="1.000000" stroke="none" 
	d="
M318.103363,325.693817 
	C312.874420,325.887756 308.044342,326.167938 303.236847,325.949921 
	C299.378204,325.774994 298.021118,326.982758 298.091156,331.025116 
	C298.336121,345.160217 298.025391,359.305542 298.318359,373.438873 
	C298.419830,378.334900 296.284454,379.281494 292.057220,379.349915 
	C287.549561,379.422882 286.434631,377.503448 286.489502,373.319519 
	C286.670593,359.515961 286.407013,345.706696 286.569855,331.902649 
	C286.621094,327.561188 285.605865,325.345306 280.706604,325.914459 
	C276.928436,326.353394 273.055634,325.902893 269.241455,326.128052 
	C265.622040,326.341736 264.635590,324.491150 264.558746,321.318329 
	C264.478943,318.019836 264.810883,315.193329 269.029572,315.097748 
	C272.022522,315.029907 275.017059,314.997284 278.010773,315.004059 
	C289.987396,315.031128 301.965973,314.978638 313.938599,315.217865 
	C315.980621,315.258636 319.554413,316.332458 319.719574,317.362183 
	C320.136963,319.964935 319.016388,322.814362 318.103363,325.693817 
z"/>
<path fill="#090909" opacity="1.000000" stroke="none" 
	d="
M507.607910,311.208069 
	C518.856934,311.231415 517.557739,310.146362 521.793213,320.232300 
	C529.716553,339.100098 537.614319,357.978607 545.502502,376.861115 
	C547.510620,381.668091 546.771790,382.821808 541.647400,383.107269 
	C532.364563,383.624329 532.000977,383.743408 529.012207,374.616638 
	C527.266479,369.285767 524.756653,367.257507 519.056458,367.864166 
	C512.962158,368.512787 506.744476,368.237152 500.592834,368.020142 
	C497.188965,367.900055 495.224609,369.109253 494.372345,372.343140 
	C494.118835,373.304993 493.714996,374.228821 493.358032,375.161652 
	C489.987823,383.968231 488.673645,384.680054 479.424500,383.127533 
	C476.383606,382.617096 475.414703,381.203918 476.606018,378.278961 
	C485.200989,357.175934 493.703827,336.034760 502.465179,315.001221 
	C503.144287,313.370850 505.573151,312.469360 507.607910,311.208069 
M502.705109,352.168610 
	C503.093475,353.267761 503.445068,355.306671 503.875793,355.323578 
	C509.392303,355.539398 514.920166,355.466034 521.360901,355.466034 
	C517.831421,346.916687 514.831116,339.649139 511.830841,332.381592 
	C511.419769,332.345642 511.008698,332.309692 510.597626,332.273773 
	C508.061279,338.662537 505.524963,345.051300 502.705109,352.168610 
z"/>
<path fill="#0B0B0B" opacity="1.000000" stroke="none" 
	d="
M554.540405,341.091858 
	C554.491150,332.612793 554.563171,324.617157 554.344910,316.629456 
	C554.232422,312.515991 555.842834,310.755707 559.949829,311.153259 
	C561.599976,311.312927 563.526428,310.674957 564.877502,311.328949 
	C566.439209,312.084839 568.604309,313.850677 568.621887,315.202454 
	C568.898254,336.512695 568.854980,357.826996 568.932983,379.140167 
	C568.942749,381.813416 567.903992,383.228973 565.130676,383.146942 
	C564.466064,383.127289 563.799438,383.184052 563.133606,383.199097 
	C554.888123,383.385406 554.661072,383.153229 554.645081,375.046967 
	C554.623108,363.890778 554.577148,352.734680 554.540405,341.091858 
z"/>
<path fill="#191919" opacity="1.000000" stroke="none" 
	d="
M538.377563,293.354492 
	C540.545410,291.402527 542.695129,288.383392 544.955750,291.762787 
	C545.703308,292.880310 543.649780,296.133667 542.465820,298.171570 
	C541.866943,299.202332 539.924805,299.462402 539.348755,300.494446 
	C538.457214,302.091858 537.532532,304.217590 537.917542,305.805084 
	C538.217957,307.043671 540.462708,307.844208 541.890015,308.767395 
	C543.599060,309.872742 545.357666,310.901428 547.094788,311.963348 
	C546.184143,313.424805 545.434875,315.950226 544.327942,316.118164 
	C542.254639,316.432739 539.904297,315.573761 537.810852,314.813141 
	C536.846802,314.462860 536.247986,313.161896 535.430420,312.345093 
	C529.912903,306.832642 529.885864,301.832001 535.352417,296.463776 
	C536.299438,295.533752 537.209961,294.566620 538.377563,293.354492 
z"/>
<path fill="#171717" opacity="1.000000" stroke="none" 
	d="
M560.992737,404.862671 
	C566.582397,404.862793 571.680298,404.862793 577.573364,404.862793 
	C575.266052,409.051392 571.743164,410.994476 567.718750,411.430206 
	C562.463013,411.999268 557.099060,412.123840 551.834717,411.730316 
	C550.182373,411.606750 548.700928,409.195648 547.141296,407.831635 
	C548.773865,406.850494 550.310059,405.323608 552.061279,405.014099 
	C554.797974,404.530426 557.680298,404.871124 560.992737,404.862671 
z"/>
<path fill="#E9E9E9" opacity="1.000000" stroke="none" 
	d="
M502.846863,351.804321 
	C505.524963,345.051300 508.061279,338.662537 510.597626,332.273773 
	C511.008698,332.309692 511.419769,332.345642 511.830841,332.381592 
	C514.831116,339.649139 517.831421,346.916687 521.360901,355.466034 
	C514.920166,355.466034 509.392303,355.539398 503.875793,355.323578 
	C503.445068,355.306671 503.093475,353.267761 502.846863,351.804321 
z"/>
</svg>