<svg version="1.1" id="Layer_1" xmlns="http://www.w3.org/2000/svg" xmlns:xlink="http://www.w3.org/1999/xlink" x="0px" y="0px"
	 width="100%" viewBox="0 0 678 685" enable-background="new 0 0 678 685" xml:space="preserve">
<path fill="#121214" opacity="1.000000" stroke="none" 
	d="
M372.000000,686.000000 
	C248.000000,686.000000 124.500000,686.000000 1.000000,686.000000 
	C1.000000,457.666656 1.000000,229.333328 1.000000,1.000000 
	C227.000000,1.000000 453.000000,1.000000 679.000000,1.000000 
	C679.000000,229.333328 679.000000,457.666656 679.000000,686.000000 
	C576.833313,686.000000 474.666656,686.000000 372.000000,686.000000 
M524.218018,246.323776 
	C514.499390,244.512100 505.382874,245.511505 497.018005,251.406616 
	C495.781281,252.278198 492.913452,252.068985 491.472748,251.219452 
	C481.362915,245.257996 469.934052,245.595108 460.332092,252.014984 
	C458.039398,253.547882 454.919281,254.498871 452.153992,254.560379 
	C436.917419,254.899292 425.808380,261.482239 418.730194,275.104095 
	C417.667816,277.148682 415.299713,279.116028 413.106201,279.870270 
	C402.138275,283.641693 395.026367,290.877655 392.150757,302.080963 
	C391.561340,304.377258 390.091156,307.788879 394.494232,308.260651 
	C397.712585,308.605499 400.885925,309.207733 401.654846,304.023468 
	C402.885498,295.726074 408.153412,289.627960 416.254150,288.113434 
	C422.235748,286.995148 424.621307,284.781677 426.860291,279.123932 
	C431.726349,266.827667 442.202454,262.195618 455.048492,262.887329 
	C459.043549,263.102417 462.205872,262.680695 465.227722,259.441895 
	C468.941986,255.460999 479.434479,254.511230 484.114624,257.102509 
	C485.066040,257.629272 486.230164,259.189758 486.046173,259.984161 
	C485.825012,260.938995 484.350861,262.058990 483.267548,262.250732 
	C481.689301,262.530121 479.883087,261.628601 478.338928,261.971985 
	C475.052917,262.702728 470.931854,262.993835 468.856140,265.124420 
	C465.147278,268.931366 461.490601,269.672607 456.463196,269.301331 
	C441.924530,268.227661 433.526550,275.015869 431.491730,288.996124 
	C431.010590,292.301575 429.524139,293.713043 426.305634,293.672455 
	C424.643036,293.651459 422.971832,293.748566 421.315338,293.906067 
	C410.760956,294.909821 405.255951,305.869751 410.831085,314.901306 
	C414.855164,321.420197 419.014526,327.856262 423.172485,334.291168 
	C423.910522,335.433411 424.937531,336.388947 426.234558,337.901062 
	C431.282715,329.300507 435.685913,321.283447 440.666565,313.642761 
	C442.070312,311.489288 445.391113,308.854156 447.448669,309.146088 
	C458.735474,310.747437 466.696899,306.321686 472.637085,297.161743 
	C472.904297,296.749725 473.251892,296.286987 473.674347,296.094940 
	C476.703125,294.718079 479.697449,292.465485 482.821960,292.254089 
	C491.117737,291.692871 499.488464,292.292419 507.797180,291.839569 
	C510.470581,291.693817 513.572021,290.281769 515.561401,288.452637 
	C521.071350,283.386658 525.892517,277.571777 531.400330,272.503265 
	C534.316040,269.820038 533.330566,268.125183 531.296631,265.940155 
	C525.235291,259.428497 512.716248,258.054871 505.552979,263.367645 
	C504.059723,264.475098 502.784821,266.292877 502.136719,268.051453 
	C499.425934,275.406891 498.760468,276.311859 491.034882,275.954651 
	C485.145111,275.682312 480.749084,277.360107 477.412750,282.320923 
	C473.976410,287.430511 469.141876,289.856873 462.820404,288.772522 
	C459.153351,288.143463 456.485535,289.616455 454.314209,292.653412 
	C450.941193,297.371124 446.670715,300.663239 440.693268,302.029358 
	C436.655701,302.952179 433.039764,305.593048 429.089050,307.076050 
	C427.101776,307.821960 424.624146,308.288971 422.685760,307.746826 
	C421.547485,307.428467 420.524628,304.911530 420.428406,303.324158 
	C420.370880,302.375183 422.037811,300.735260 423.215118,300.395660 
	C429.557587,298.565948 436.002136,297.093842 442.386078,295.402649 
	C446.550201,294.299530 450.283264,288.940430 450.119629,285.140839 
	C450.051270,283.552948 450.498260,281.119507 451.538483,280.529510 
	C452.669495,279.888000 454.965729,280.560425 456.398804,281.325287 
	C461.512390,284.054474 469.048218,283.054901 472.450073,278.337128 
	C476.604187,272.576111 481.565094,269.406769 488.918213,270.556061 
	C492.513458,271.118011 494.456604,269.604156 496.387451,265.936401 
	C498.469421,261.981445 502.445862,258.284180 506.488770,256.244385 
	C517.192871,250.843796 531.283264,254.783218 537.911865,264.996704 
	C540.709045,269.306702 543.373352,270.334900 548.305298,269.961975 
	C557.790466,269.244690 566.051575,272.412170 571.618164,280.719604 
	C573.964111,284.220581 573.768677,287.226593 569.682068,289.429108 
	C568.381042,290.130310 567.309937,291.258148 566.133606,292.190735 
	C577.097534,293.016693 587.066345,294.907562 592.632874,305.014893 
	C598.184448,315.095245 595.992554,324.527802 587.815613,332.963928 
	C589.768677,333.877777 591.272034,334.522430 592.722534,335.269653 
	C601.019409,339.543762 605.203247,348.284973 603.362000,357.438049 
	C601.543091,366.480286 595.700928,371.419861 585.973022,372.399384 
	C584.425537,372.555176 582.997803,373.837555 581.445435,374.024994 
	C579.835510,374.219421 578.141296,373.716064 576.483948,373.517883 
	C576.725220,371.812927 576.375610,369.221558 577.329529,368.585663 
	C579.379150,367.219330 582.079834,366.785095 584.552185,366.108734 
	C587.659302,365.258759 591.494690,365.424377 593.799927,363.608368 
	C599.945435,358.766968 599.990967,342.810394 587.447388,340.097382 
	C587.688904,342.786285 588.328735,345.403931 587.993774,347.890167 
	C587.796265,349.355927 586.301331,351.209747 584.928833,351.780731 
	C583.777466,352.259705 581.415894,351.581726 580.592651,350.586670 
	C579.823181,349.656647 580.334290,347.635376 580.352661,346.095245 
	C580.368225,344.793213 580.394470,343.479767 580.573486,342.193329 
	C581.239441,337.406067 577.662720,331.874573 583.128479,327.922241 
	C592.483459,321.157623 592.531372,309.062531 582.622437,303.110260 
	C578.747559,300.782684 573.549011,300.532623 568.891052,299.673462 
	C564.935791,298.943970 560.576172,299.032318 559.541138,293.913788 
	C558.572205,289.122589 561.212646,286.415039 565.393127,284.771240 
	C565.769836,284.623047 565.976868,284.043182 566.401428,283.479584 
	C561.704834,276.941406 555.161743,275.026306 547.580688,275.505646 
	C544.931641,275.673157 542.242981,275.638916 539.648804,276.114014 
	C537.614197,276.486633 535.176331,276.978027 533.821533,278.325470 
	C528.865662,283.254425 524.173218,288.464783 519.611267,293.766907 
	C516.907349,296.909607 513.910645,298.485901 509.654907,298.231781 
	C504.507202,297.924408 499.204865,298.867035 494.186676,298.004700 
	C483.252960,296.125824 476.119781,301.124268 470.521271,309.570923 
	C469.572723,311.001984 468.635254,312.808197 468.633392,314.442169 
	C468.614838,330.768951 468.871246,347.096161 468.835602,363.422729 
	C468.830048,365.971619 468.365570,368.906342 467.052277,370.995667 
	C462.426483,378.354767 456.454926,383.886810 446.800476,383.084106 
	C445.421631,382.969421 444.003906,383.322388 442.486298,383.470428 
	C447.365692,397.046783 463.145020,405.348572 477.586060,402.208344 
	C480.991089,401.467926 484.310455,400.323792 487.654785,399.317322 
	C490.047302,398.597229 491.910034,399.142273 491.676239,401.885040 
	C491.279022,406.544281 494.097107,409.219391 497.019379,412.026154 
	C502.306519,417.104309 507.689911,422.103394 512.654419,427.484863 
	C514.392090,429.368469 515.701538,432.199829 516.000427,434.740265 
	C516.581482,439.679962 516.333374,444.719727 516.382874,449.718506 
	C516.412537,452.717316 517.654297,454.510284 520.859558,454.391113 
	C523.980042,454.275116 525.258118,452.454041 525.243103,449.488831 
	C525.229675,446.822662 524.870239,444.092804 525.311218,441.501221 
	C527.091309,431.038483 523.252441,423.147156 514.867798,417.062683 
	C506.342499,410.876129 502.313538,402.762115 504.308533,392.056610 
	C504.669373,390.120392 504.076019,387.993561 504.506897,386.086609 
	C504.973297,384.022583 505.908447,380.611023 507.020172,380.452057 
	C509.260590,380.131714 512.197754,381.050964 514.053284,382.485870 
	C517.182129,384.905273 519.806213,388.025269 522.430542,391.035431 
	C524.902771,393.871002 527.683411,395.032837 531.563904,394.966278 
	C545.057678,394.734833 558.558228,394.897980 572.056213,394.909821 
	C575.170654,394.912537 578.285034,394.910217 581.445007,394.910217 
	C582.207825,399.464203 580.882751,401.480988 576.617554,401.451813 
	C560.287415,401.340210 543.954651,401.447418 527.628174,401.165619 
	C525.433167,401.127716 522.911194,399.753479 521.167175,398.264343 
	C517.927979,395.498444 515.150879,392.191376 511.228302,388.120453 
	C510.659760,397.355194 509.183075,405.004395 516.960999,410.679749 
	C520.694641,413.404053 523.573792,417.270935 527.153625,420.242432 
	C530.700745,423.186737 531.967224,426.618011 531.694641,431.161194 
	C531.365967,436.639923 531.650818,442.154694 531.643555,447.653809 
	C531.639343,450.819550 531.763977,454.025726 536.051880,454.004547 
	C540.116089,453.984497 540.749268,451.055145 540.731140,447.752655 
	C540.693604,440.920502 540.701111,434.088135 540.690674,427.255859 
	C540.679138,419.718384 540.679932,419.811951 547.994873,419.775391 
	C555.149292,419.739655 562.411194,420.219330 569.434448,419.179443 
	C585.368958,416.820099 594.788879,400.558228 589.655579,385.336395 
	C589.239380,384.102203 588.887329,382.846344 588.449768,381.419037 
	C589.621704,380.957672 590.505493,380.536255 591.432007,380.255798 
	C612.930481,373.747742 619.200623,348.638702 603.090210,333.097992 
	C600.835938,330.923431 600.939819,329.123352 601.878784,326.497192 
	C607.423157,310.989746 600.861023,295.455902 586.149780,288.296295 
	C584.328613,287.409973 582.460083,285.474060 581.767822,283.598450 
	C576.714783,269.908386 564.170410,261.120819 549.544006,261.003448 
	C547.581299,260.987701 545.111145,259.767029 543.768738,258.291840 
	C538.571350,252.580246 532.546387,248.419052 524.218018,246.323776 
M390.261749,318.244568 
	C390.196808,336.903229 390.207214,355.562683 390.008179,374.219910 
	C389.964386,378.325012 391.821686,379.439941 395.487030,379.294739 
	C399.061279,379.153168 402.136230,379.036316 402.005005,374.040985 
	C401.760071,364.716553 401.860443,355.382690 401.849152,346.052765 
	C401.847260,344.497253 402.007324,342.941528 402.092529,341.385925 
	C402.503571,341.277100 402.914612,341.168304 403.325653,341.059479 
	C404.170135,342.344330 405.060425,343.601624 405.851562,344.918549 
	C410.394989,352.481659 414.789276,360.137878 419.482239,367.606659 
	C423.304718,373.690125 428.675049,373.609711 432.301880,367.494781 
	C436.973724,359.617889 441.436890,351.617371 446.027161,343.691681 
	C446.622528,342.663757 447.439514,341.764221 448.992340,339.679443 
	C449.132050,342.661438 449.263641,344.238831 449.270233,345.816772 
	C449.303619,353.813904 449.299744,361.811157 449.319305,369.808380 
	C449.326904,372.911316 450.838928,375.584290 453.895111,375.045441 
	C456.381836,374.607025 458.617523,372.311127 460.743500,370.569122 
	C461.265961,370.141052 460.977875,368.660797 460.975494,367.664490 
	C460.939545,352.669434 460.924103,337.674164 460.811462,322.679657 
	C460.789642,319.771851 461.291870,316.269196 456.953888,315.771210 
	C452.883606,315.303955 448.878510,314.260254 446.214050,319.341980 
	C440.726593,329.807861 434.730927,340.007782 428.911102,350.298370 
	C428.065399,351.793671 427.036316,353.185211 425.859314,354.979675 
	C424.731445,353.623962 423.986816,352.949829 423.509369,352.121643 
	C417.439453,341.592712 411.369232,331.063568 405.381866,320.487610 
	C402.055511,314.611969 396.195770,313.345551 390.261749,318.244568 
M347.502289,379.339355 
	C356.333496,379.329437 365.164795,379.297943 373.995911,379.319397 
	C377.922729,379.328949 379.238983,377.213074 379.095581,373.576202 
	C378.959473,370.125366 377.569092,368.497253 373.859741,368.585999 
	C366.366394,368.765259 358.863892,368.676575 351.367035,368.568146 
	C338.040436,368.375427 340.041779,371.422089 339.712799,356.597351 
	C339.639465,353.290924 340.872894,352.206299 344.092438,352.275055 
	C351.087158,352.424469 358.087891,352.279999 365.086182,352.277588 
	C368.912842,352.276276 372.837952,353.109039 372.769897,346.860931 
	C372.700562,340.493958 368.530273,341.724365 364.866882,341.674225 
	C360.035614,341.608093 355.202240,341.708282 350.370605,341.656372 
	C338.000061,341.523499 340.083710,343.582092 339.633850,330.693665 
	C339.492889,326.656097 340.942322,325.519409 344.838165,325.611908 
	C354.496979,325.841156 364.165680,325.613953 373.829254,325.699280 
	C377.568756,325.732300 378.783325,323.867401 378.781250,320.428558 
	C378.779358,317.312897 377.937439,315.196869 374.357239,315.207428 
	C360.527649,315.248169 346.697876,315.245422 332.868469,315.317963 
	C329.702454,315.334564 328.023346,316.838165 328.034912,320.267548 
	C328.096039,338.429077 328.084381,356.591064 328.018158,374.752625 
	C328.006531,377.938873 329.401581,379.335999 332.507446,379.319000 
	C337.172760,379.293427 341.838470,379.329193 347.502289,379.339355 
M121.463486,325.831879 
	C123.795967,325.815338 126.129066,325.757477 128.460800,325.791992 
	C131.930557,325.843292 134.758179,325.413788 134.738907,320.809662 
	C134.720673,316.453125 132.710464,314.955475 128.564514,315.027618 
	C120.236588,315.172607 111.893517,314.812561 103.578522,315.169556 
	C99.842209,315.329956 95.879646,316.108185 92.507179,317.663208 
	C84.851227,321.193298 81.451286,329.349854 83.179749,338.306213 
	C84.719971,346.287201 91.372589,352.089691 100.196495,352.613586 
	C106.672157,352.998077 113.184395,352.725708 119.671371,352.977203 
	C123.146347,353.111908 126.229935,354.936127 126.344215,358.498138 
	C126.434967,361.327026 125.428986,364.745911 123.672874,366.889252 
	C122.449905,368.381836 119.141258,368.576935 116.749084,368.627258 
	C107.589653,368.819946 98.424065,368.716278 89.260780,368.730804 
	C85.842903,368.736206 83.981415,370.352753 83.908554,373.876038 
	C83.843933,377.000671 85.098305,379.321899 88.383995,379.307251 
	C100.199699,379.254517 112.056084,379.499786 123.815331,378.583374 
	C132.230057,377.927582 137.796860,370.288269 138.088943,361.295319 
	C138.378418,352.382538 133.189331,344.517578 124.853302,343.201172 
	C117.519997,342.043060 109.955002,342.372345 102.495277,341.987518 
	C97.331352,341.721130 94.497299,339.094971 94.262894,334.502045 
	C94.010178,329.550446 96.675674,326.369232 101.991516,326.082214 
	C108.139221,325.750214 114.312737,325.896393 121.463486,325.831879 
M247.133255,364.374359 
	C245.203857,367.952576 241.931900,368.681549 238.236359,368.682770 
	C229.244080,368.685791 220.251816,368.792908 211.259598,368.785828 
	C207.655045,368.782990 206.176895,370.586731 206.159698,374.042694 
	C206.142532,377.484863 207.539001,379.340546 211.186356,379.326294 
	C221.177292,379.287201 231.171204,379.477875 241.158737,379.293884 
	C247.264023,379.181427 252.585968,376.969086 256.099030,371.637329 
	C260.197845,365.416504 260.536743,358.709656 257.446686,352.122925 
	C254.116364,345.024078 247.607895,342.481506 240.258179,342.054169 
	C234.613800,341.726013 228.927292,342.120148 223.283371,341.787689 
	C218.074356,341.480896 215.176041,337.557587 216.043594,332.519867 
	C216.865616,327.746643 220.068268,325.930023 224.620514,325.910492 
	C233.445877,325.872559 242.271255,325.830627 251.096451,325.767334 
	C254.158798,325.745361 256.244965,324.664978 256.217651,321.118591 
	C256.194000,318.050415 255.839569,315.171875 251.928787,315.152161 
	C241.774689,315.101013 231.571411,314.619934 221.477844,315.431244 
	C209.913712,316.360840 204.198303,323.888947 204.817963,335.521729 
	C205.358002,345.659729 212.815720,352.447601 223.789413,352.691925 
	C228.949341,352.806854 234.121826,352.589142 239.272186,352.848358 
	C246.670670,353.220703 248.884918,356.272003 247.133255,364.374359 
M162.346695,349.448456 
	C165.300781,352.957306 166.212326,356.983704 165.912170,361.533356 
	C165.616562,366.014099 165.642914,370.536255 165.888962,375.020416 
	C165.963623,376.380981 166.926178,378.418579 168.015091,378.875336 
	C173.481400,381.168304 178.215302,378.222290 177.520065,372.529907 
	C175.995941,360.050873 179.183228,349.256348 187.320419,339.793335 
	C188.073685,338.917328 188.608444,337.852692 189.239243,336.872162 
	C192.842361,331.271454 196.596695,325.757690 199.915466,319.993195 
	C200.571014,318.854553 200.076218,315.710754 199.208130,315.269379 
	C195.381531,313.323944 189.437424,315.434387 187.043671,319.209473 
	C183.118698,325.399445 179.331451,331.676575 175.425858,337.878998 
	C174.502472,339.345428 173.339523,340.660980 171.881531,342.579102 
	C170.563309,340.825104 169.627472,339.726044 168.852066,338.523529 
	C164.880737,332.364838 160.721664,326.310394 157.089325,319.955963 
	C154.788437,315.930725 151.841766,314.124847 147.354233,314.925171 
	C145.641769,315.230530 143.980743,315.824371 142.296280,316.286774 
	C142.786194,317.955261 142.921646,319.851410 143.823441,321.255310 
	C149.764465,330.504059 155.870483,339.646790 162.346695,349.448456 
M286.490845,340.508240 
	C286.526031,351.158051 286.690887,361.809784 286.532104,372.456726 
	C286.469238,376.671631 286.855621,379.396088 292.251526,379.344849 
	C297.308990,379.296814 298.336151,377.191132 298.258240,372.668121 
	C298.020447,358.860382 298.308655,345.043365 298.048798,331.236420 
	C297.968964,326.995453 299.401428,325.665314 303.460571,325.913879 
	C307.769745,326.177765 312.109619,325.970978 316.435516,325.921631 
	C319.865417,325.882507 320.418976,323.575531 320.378052,320.808441 
	C320.336639,318.006775 320.197723,315.190430 316.402344,315.176056 
	C300.594849,315.116180 284.787018,315.105225 268.979492,315.140564 
	C265.944946,315.147339 264.620026,316.811096 264.570831,319.915436 
	C264.482178,325.510529 265.031677,326.067657 271.892975,326.029724 
	C286.565948,325.948608 286.565948,325.948608 286.490845,340.508240 
z"/>
<path fill="#F0F0F0" opacity="1.000000" stroke="none" 
	d="
M524.611816,246.443680 
	C532.546387,248.419052 538.571350,252.580246 543.768738,258.291840 
	C545.111145,259.767029 547.581299,260.987701 549.544006,261.003448 
	C564.170410,261.120819 576.714783,269.908386 581.767822,283.598450 
	C582.460083,285.474060 584.328613,287.409973 586.149780,288.296295 
	C600.861023,295.455902 607.423157,310.989746 601.878784,326.497192 
	C600.939819,329.123352 600.835938,330.923431 603.090210,333.097992 
	C619.200623,348.638702 612.930481,373.747742 591.432007,380.255798 
	C590.505493,380.536255 589.621704,380.957672 588.449768,381.419037 
	C588.887329,382.846344 589.239380,384.102203 589.655579,385.336395 
	C594.788879,400.558228 585.368958,416.820099 569.434448,419.179443 
	C562.411194,420.219330 555.149292,419.739655 547.994873,419.775391 
	C540.679932,419.811951 540.679138,419.718384 540.690674,427.255859 
	C540.701111,434.088135 540.693604,440.920502 540.731140,447.752655 
	C540.749268,451.055145 540.116089,453.984497 536.051880,454.004547 
	C531.763977,454.025726 531.639343,450.819550 531.643555,447.653809 
	C531.650818,442.154694 531.365967,436.639923 531.694641,431.161194 
	C531.967224,426.618011 530.700745,423.186737 527.153625,420.242432 
	C523.573792,417.270935 520.694641,413.404053 516.960999,410.679749 
	C509.183075,405.004395 510.659760,397.355194 511.228302,388.120453 
	C515.150879,392.191376 517.927979,395.498444 521.167175,398.264343 
	C522.911194,399.753479 525.433167,401.127716 527.628174,401.165619 
	C543.954651,401.447418 560.287415,401.340210 576.617554,401.451813 
	C580.882751,401.480988 582.207825,399.464203 581.445007,394.910217 
	C578.285034,394.910217 575.170654,394.912537 572.056213,394.909821 
	C558.558228,394.897980 545.057678,394.734833 531.563904,394.966278 
	C527.683411,395.032837 524.902771,393.871002 522.430542,391.035431 
	C519.806213,388.025269 517.182129,384.905273 514.053284,382.485870 
	C512.197754,381.050964 509.260590,380.131714 507.020172,380.452057 
	C505.908447,380.611023 504.973297,384.022583 504.506897,386.086609 
	C504.076019,387.993561 504.669373,390.120392 504.308533,392.056610 
	C502.313538,402.762115 506.342499,410.876129 514.867798,417.062683 
	C523.252441,423.147156 527.091309,431.038483 525.311218,441.501221 
	C524.870239,444.092804 525.229675,446.822662 525.243103,449.488831 
	C525.258118,452.454041 523.980042,454.275116 520.859558,454.391113 
	C517.654297,454.510284 516.412537,452.717316 516.382874,449.718506 
	C516.333374,444.719727 516.581482,439.679962 516.000427,434.740265 
	C515.701538,432.199829 514.392090,429.368469 512.654419,427.484863 
	C507.689911,422.103394 502.306519,417.104309 497.019379,412.026154 
	C494.097107,409.219391 491.279022,406.544281 491.676239,401.885040 
	C491.910034,399.142273 490.047302,398.597229 487.654785,399.317322 
	C484.310455,400.323792 480.991089,401.467926 477.586060,402.208344 
	C463.145020,405.348572 447.365692,397.046783 442.486298,383.470428 
	C444.003906,383.322388 445.421631,382.969421 446.800476,383.084106 
	C456.454926,383.886810 462.426483,378.354767 467.052277,370.995667 
	C468.365570,368.906342 468.830048,365.971619 468.835602,363.422729 
	C468.871246,347.096161 468.614838,330.768951 468.633392,314.442169 
	C468.635254,312.808197 469.572723,311.001984 470.521271,309.570923 
	C476.119781,301.124268 483.252960,296.125824 494.186676,298.004700 
	C499.204865,298.867035 504.507202,297.924408 509.654907,298.231781 
	C513.910645,298.485901 516.907349,296.909607 519.611267,293.766907 
	C524.173218,288.464783 528.865662,283.254425 533.821533,278.325470 
	C535.176331,276.978027 537.614197,276.486633 539.648804,276.114014 
	C542.242981,275.638916 544.931641,275.673157 547.580688,275.505646 
	C555.161743,275.026306 561.704834,276.941406 566.401428,283.479584 
	C565.976868,284.043182 565.769836,284.623047 565.393127,284.771240 
	C561.212646,286.415039 558.572205,289.122589 559.541138,293.913788 
	C560.576172,299.032318 564.935791,298.943970 568.891052,299.673462 
	C573.549011,300.532623 578.747559,300.782684 582.622437,303.110260 
	C592.531372,309.062531 592.483459,321.157623 583.128479,327.922241 
	C577.662720,331.874573 581.239441,337.406067 580.573486,342.193329 
	C580.394470,343.479767 580.368225,344.793213 580.352661,346.095245 
	C580.334290,347.635376 579.823181,349.656647 580.592651,350.586670 
	C581.415894,351.581726 583.777466,352.259705 584.928833,351.780731 
	C586.301331,351.209747 587.796265,349.355927 587.993774,347.890167 
	C588.328735,345.403931 587.688904,342.786285 587.447388,340.097382 
	C599.990967,342.810394 599.945435,358.766968 593.799927,363.608368 
	C591.494690,365.424377 587.659302,365.258759 584.552185,366.108734 
	C582.079834,366.785095 579.379150,367.219330 577.329529,368.585663 
	C576.375610,369.221558 576.725220,371.812927 576.483948,373.517883 
	C578.141296,373.716064 579.835510,374.219421 581.445435,374.024994 
	C582.997803,373.837555 584.425537,372.555176 585.973022,372.399384 
	C595.700928,371.419861 601.543091,366.480286 603.362000,357.438049 
	C605.203247,348.284973 601.019409,339.543762 592.722534,335.269653 
	C591.272034,334.522430 589.768677,333.877777 587.815613,332.963928 
	C595.992554,324.527802 598.184448,315.095245 592.632874,305.014893 
	C587.066345,294.907562 577.097534,293.016693 566.133606,292.190735 
	C567.309937,291.258148 568.381042,290.130310 569.682068,289.429108 
	C573.768677,287.226593 573.964111,284.220581 571.618164,280.719604 
	C566.051575,272.412170 557.790466,269.244690 548.305298,269.961975 
	C543.373352,270.334900 540.709045,269.306702 537.911865,264.996704 
	C531.283264,254.783218 517.192871,250.843796 506.488770,256.244385 
	C502.445862,258.284180 498.469421,261.981445 496.387451,265.936401 
	C494.456604,269.604156 492.513458,271.118011 488.918213,270.556061 
	C481.565094,269.406769 476.604187,272.576111 472.450073,278.337128 
	C469.048218,283.054901 461.512390,284.054474 456.398804,281.325287 
	C454.965729,280.560425 452.669495,279.888000 451.538483,280.529510 
	C450.498260,281.119507 450.051270,283.552948 450.119629,285.140839 
	C450.283264,288.940430 446.550201,294.299530 442.386078,295.402649 
	C436.002136,297.093842 429.557587,298.565948 423.215118,300.395660 
	C422.037811,300.735260 420.370880,302.375183 420.428406,303.324158 
	C420.524628,304.911530 421.547485,307.428467 422.685760,307.746826 
	C424.624146,308.288971 427.101776,307.821960 429.089050,307.076050 
	C433.039764,305.593048 436.655701,302.952179 440.693268,302.029358 
	C446.670715,300.663239 450.941193,297.371124 454.314209,292.653412 
	C456.485535,289.616455 459.153351,288.143463 462.820404,288.772522 
	C469.141876,289.856873 473.976410,287.430511 477.412750,282.320923 
	C480.749084,277.360107 485.145111,275.682312 491.034882,275.954651 
	C498.760468,276.311859 499.425934,275.406891 502.136719,268.051453 
	C502.784821,266.292877 504.059723,264.475098 505.552979,263.367645 
	C512.716248,258.054871 525.235291,259.428497 531.296631,265.940155 
	C533.330566,268.125183 534.316040,269.820038 531.400330,272.503265 
	C525.892517,277.571777 521.071350,283.386658 515.561401,288.452637 
	C513.572021,290.281769 510.470581,291.693817 507.797180,291.839569 
	C499.488464,292.292419 491.117737,291.692871 482.821960,292.254089 
	C479.697449,292.465485 476.703125,294.718079 473.674347,296.094940 
	C473.251892,296.286987 472.904297,296.749725 472.637085,297.161743 
	C466.696899,306.321686 458.735474,310.747437 447.448669,309.146088 
	C445.391113,308.854156 442.070312,311.489288 440.666565,313.642761 
	C435.685913,321.283447 431.282715,329.300507 426.234558,337.901062 
	C424.937531,336.388947 423.910522,335.433411 423.172485,334.291168 
	C419.014526,327.856262 414.855164,321.420197 410.831085,314.901306 
	C405.255951,305.869751 410.760956,294.909821 421.315338,293.906067 
	C422.971832,293.748566 424.643036,293.651459 426.305634,293.672455 
	C429.524139,293.713043 431.010590,292.301575 431.491730,288.996124 
	C433.526550,275.015869 441.924530,268.227661 456.463196,269.301331 
	C461.490601,269.672607 465.147278,268.931366 468.856140,265.124420 
	C470.931854,262.993835 475.052917,262.702728 478.338928,261.971985 
	C479.883087,261.628601 481.689301,262.530121 483.267548,262.250732 
	C484.350861,262.058990 485.825012,260.938995 486.046173,259.984161 
	C486.230164,259.189758 485.066040,257.629272 484.114624,257.102509 
	C479.434479,254.511230 468.941986,255.460999 465.227722,259.441895 
	C462.205872,262.680695 459.043549,263.102417 455.048492,262.887329 
	C442.202454,262.195618 431.726349,266.827667 426.860291,279.123932 
	C424.621307,284.781677 422.235748,286.995148 416.254150,288.113434 
	C408.153412,289.627960 402.885498,295.726074 401.654846,304.023468 
	C400.885925,309.207733 397.712585,308.605499 394.494232,308.260651 
	C390.091156,307.788879 391.561340,304.377258 392.150757,302.080963 
	C395.026367,290.877655 402.138275,283.641693 413.106201,279.870270 
	C415.299713,279.116028 417.667816,277.148682 418.730194,275.104095 
	C425.808380,261.482239 436.917419,254.899292 452.153992,254.560379 
	C454.919281,254.498871 458.039398,253.547882 460.332092,252.014984 
	C469.934052,245.595108 481.362915,245.257996 491.472748,251.219452 
	C492.913452,252.068985 495.781281,252.278198 497.018005,251.406616 
	C505.382874,245.511505 514.499390,244.512100 524.611816,246.443680 
M506.351837,311.288361 
	C504.845032,312.906921 502.801300,314.280609 501.930786,316.189362 
	C499.171021,322.240265 496.862762,328.496429 494.355560,334.663330 
	C488.590393,348.843597 482.797943,363.012787 477.044708,377.197906 
	C475.205170,381.733490 475.902283,382.822998 480.715302,383.206146 
	C489.995270,383.944946 489.997101,383.945648 493.295135,375.374847 
	C493.713837,374.286835 494.174988,373.207458 494.489075,372.088348 
	C495.339935,369.056885 497.229675,367.946442 500.407013,368.045929 
	C506.397003,368.233429 512.443542,368.502167 518.382324,367.902710 
	C524.285034,367.306915 527.273682,369.112488 529.121582,374.979156 
	C531.883179,383.746429 532.339722,383.602631 541.503540,383.126465 
	C546.680115,382.857452 547.522949,381.655090 545.585510,377.007233 
	C537.772217,358.263000 529.989624,339.505524 522.059814,320.810516 
	C517.551880,310.182892 519.481689,311.087952 506.351837,311.288361 
M560.607422,383.234924 
	C569.010010,383.165161 568.945496,383.165436 568.910156,374.721924 
	C568.834229,356.601868 568.817810,338.481506 568.804749,320.361267 
	C568.797791,310.724487 568.826721,310.832794 559.182129,311.080658 
	C555.800415,311.167542 554.322021,312.446716 554.341370,315.815765 
	C554.460510,336.595459 554.543457,357.375397 554.593811,378.155334 
	C554.602295,381.648865 556.050659,383.484802 560.607422,383.234924 
M536.640381,295.154114 
	C530.800293,300.763275 529.731506,304.339905 532.972229,309.416260 
	C534.555542,311.896332 536.567871,314.360291 538.966309,315.963104 
	C540.351685,316.888977 543.170044,316.661285 544.820618,315.866669 
	C546.007690,315.295227 547.278198,312.484039 546.803894,311.473175 
	C546.182861,310.149719 543.850769,309.662872 542.307312,308.729156 
	C540.734802,307.777924 538.183289,306.918945 537.944946,305.662140 
	C537.623657,303.967987 538.798767,301.720490 539.910400,300.109894 
	C540.791809,298.832855 543.042175,298.440674 543.782715,297.141449 
	C544.713257,295.508820 544.724121,293.351990 545.131836,291.421326 
	C543.262573,291.644135 541.316162,291.624542 539.554688,292.185638 
	C538.582947,292.495209 537.921753,293.779510 536.640381,295.154114 
M570.845032,410.665039 
	C573.099609,409.067749 575.354187,407.470459 577.608765,405.873169 
	C568.595337,404.870758 560.245361,404.711182 551.911560,405.007721 
	C550.279236,405.065826 548.709778,406.890106 547.111328,407.899780 
	C548.686951,409.246002 550.230286,411.695007 551.843872,411.742126 
	C557.921387,411.919739 564.021729,411.315491 570.845032,410.665039 
z"/>
<path fill="#EDEDED" opacity="1.000000" stroke="none" 
	d="
M390.382782,317.832520 
	C396.195770,313.345551 402.055511,314.611969 405.381866,320.487610 
	C411.369232,331.063568 417.439453,341.592712 423.509369,352.121643 
	C423.986816,352.949829 424.731445,353.623962 425.859314,354.979675 
	C427.036316,353.185211 428.065399,351.793671 428.911102,350.298370 
	C434.730927,340.007782 440.726593,329.807861 446.214050,319.341980 
	C448.878510,314.260254 452.883606,315.303955 456.953888,315.771210 
	C461.291870,316.269196 460.789642,319.771851 460.811462,322.679657 
	C460.924103,337.674164 460.939545,352.669434 460.975494,367.664490 
	C460.977875,368.660797 461.265961,370.141052 460.743500,370.569122 
	C458.617523,372.311127 456.381836,374.607025 453.895111,375.045441 
	C450.838928,375.584290 449.326904,372.911316 449.319305,369.808380 
	C449.299744,361.811157 449.303619,353.813904 449.270233,345.816772 
	C449.263641,344.238831 449.132050,342.661438 448.992340,339.679443 
	C447.439514,341.764221 446.622528,342.663757 446.027161,343.691681 
	C441.436890,351.617371 436.973724,359.617889 432.301880,367.494781 
	C428.675049,373.609711 423.304718,373.690125 419.482239,367.606659 
	C414.789276,360.137878 410.394989,352.481659 405.851562,344.918549 
	C405.060425,343.601624 404.170135,342.344330 403.325653,341.059479 
	C402.914612,341.168304 402.503571,341.277100 402.092529,341.385925 
	C402.007324,342.941528 401.847260,344.497253 401.849152,346.052765 
	C401.860443,355.382690 401.760071,364.716553 402.005005,374.040985 
	C402.136230,379.036316 399.061279,379.153168 395.487030,379.294739 
	C391.821686,379.439941 389.964386,378.325012 390.008179,374.219910 
	C390.207214,355.562683 390.196808,336.903229 390.382782,317.832520 
z"/>
<path fill="#ECECEC" opacity="1.000000" stroke="none" 
	d="
M347.003143,379.339111 
	C341.838470,379.329193 337.172760,379.293427 332.507446,379.319000 
	C329.401581,379.335999 328.006531,377.938873 328.018158,374.752625 
	C328.084381,356.591064 328.096039,338.429077 328.034912,320.267548 
	C328.023346,316.838165 329.702454,315.334564 332.868469,315.317963 
	C346.697876,315.245422 360.527649,315.248169 374.357239,315.207428 
	C377.937439,315.196869 378.779358,317.312897 378.781250,320.428558 
	C378.783325,323.867401 377.568756,325.732300 373.829254,325.699280 
	C364.165680,325.613953 354.496979,325.841156 344.838165,325.611908 
	C340.942322,325.519409 339.492889,326.656097 339.633850,330.693665 
	C340.083710,343.582092 338.000061,341.523499 350.370605,341.656372 
	C355.202240,341.708282 360.035614,341.608093 364.866882,341.674225 
	C368.530273,341.724365 372.700562,340.493958 372.769897,346.860931 
	C372.837952,353.109039 368.912842,352.276276 365.086182,352.277588 
	C358.087891,352.279999 351.087158,352.424469 344.092438,352.275055 
	C340.872894,352.206299 339.639465,353.290924 339.712799,356.597351 
	C340.041779,371.422089 338.040436,368.375427 351.367035,368.568146 
	C358.863892,368.676575 366.366394,368.765259 373.859741,368.585999 
	C377.569092,368.497253 378.959473,370.125366 379.095581,373.576202 
	C379.238983,377.213074 377.922729,379.328949 373.995911,379.319397 
	C365.164795,379.297943 356.333496,379.329437 347.003143,379.339111 
z"/>
<path fill="#EEEEEE" opacity="1.000000" stroke="none" 
	d="
M120.969269,325.833435 
	C114.312737,325.896393 108.139221,325.750214 101.991516,326.082214 
	C96.675674,326.369232 94.010178,329.550446 94.262894,334.502045 
	C94.497299,339.094971 97.331352,341.721130 102.495277,341.987518 
	C109.955002,342.372345 117.519997,342.043060 124.853302,343.201172 
	C133.189331,344.517578 138.378418,352.382538 138.088943,361.295319 
	C137.796860,370.288269 132.230057,377.927582 123.815331,378.583374 
	C112.056084,379.499786 100.199699,379.254517 88.383995,379.307251 
	C85.098305,379.321899 83.843933,377.000671 83.908554,373.876038 
	C83.981415,370.352753 85.842903,368.736206 89.260780,368.730804 
	C98.424065,368.716278 107.589653,368.819946 116.749084,368.627258 
	C119.141258,368.576935 122.449905,368.381836 123.672874,366.889252 
	C125.428986,364.745911 126.434967,361.327026 126.344215,358.498138 
	C126.229935,354.936127 123.146347,353.111908 119.671371,352.977203 
	C113.184395,352.725708 106.672157,352.998077 100.196495,352.613586 
	C91.372589,352.089691 84.719971,346.287201 83.179749,338.306213 
	C81.451286,329.349854 84.851227,321.193298 92.507179,317.663208 
	C95.879646,316.108185 99.842209,315.329956 103.578522,315.169556 
	C111.893517,314.812561 120.236588,315.172607 128.564514,315.027618 
	C132.710464,314.955475 134.720673,316.453125 134.738907,320.809662 
	C134.758179,325.413788 131.930557,325.843292 128.460800,325.791992 
	C126.129066,325.757477 123.795967,325.815338 120.969269,325.833435 
z"/>
<path fill="#EEEEEE" opacity="1.000000" stroke="none" 
	d="
M247.323425,364.014130 
	C248.884918,356.272003 246.670670,353.220703 239.272186,352.848358 
	C234.121826,352.589142 228.949341,352.806854 223.789413,352.691925 
	C212.815720,352.447601 205.358002,345.659729 204.817963,335.521729 
	C204.198303,323.888947 209.913712,316.360840 221.477844,315.431244 
	C231.571411,314.619934 241.774689,315.101013 251.928787,315.152161 
	C255.839569,315.171875 256.194000,318.050415 256.217651,321.118591 
	C256.244965,324.664978 254.158798,325.745361 251.096451,325.767334 
	C242.271255,325.830627 233.445877,325.872559 224.620514,325.910492 
	C220.068268,325.930023 216.865616,327.746643 216.043594,332.519867 
	C215.176041,337.557587 218.074356,341.480896 223.283371,341.787689 
	C228.927292,342.120148 234.613800,341.726013 240.258179,342.054169 
	C247.607895,342.481506 254.116364,345.024078 257.446686,352.122925 
	C260.536743,358.709656 260.197845,365.416504 256.099030,371.637329 
	C252.585968,376.969086 247.264023,379.181427 241.158737,379.293884 
	C231.171204,379.477875 221.177292,379.287201 211.186356,379.326294 
	C207.539001,379.340546 206.142532,377.484863 206.159698,374.042694 
	C206.176895,370.586731 207.655045,368.782990 211.259598,368.785828 
	C220.251816,368.792908 229.244080,368.685791 238.236359,368.682770 
	C241.931900,368.681549 245.203857,367.952576 247.323425,364.014130 
z"/>
<path fill="#EDEDED" opacity="1.000000" stroke="none" 
	d="
M162.134705,349.136292 
	C155.870483,339.646790 149.764465,330.504059 143.823441,321.255310 
	C142.921646,319.851410 142.786194,317.955261 142.296280,316.286774 
	C143.980743,315.824371 145.641769,315.230530 147.354233,314.925171 
	C151.841766,314.124847 154.788437,315.930725 157.089325,319.955963 
	C160.721664,326.310394 164.880737,332.364838 168.852066,338.523529 
	C169.627472,339.726044 170.563309,340.825104 171.881531,342.579102 
	C173.339523,340.660980 174.502472,339.345428 175.425858,337.878998 
	C179.331451,331.676575 183.118698,325.399445 187.043671,319.209473 
	C189.437424,315.434387 195.381531,313.323944 199.208130,315.269379 
	C200.076218,315.710754 200.571014,318.854553 199.915466,319.993195 
	C196.596695,325.757690 192.842361,331.271454 189.239243,336.872162 
	C188.608444,337.852692 188.073685,338.917328 187.320419,339.793335 
	C179.183228,349.256348 175.995941,360.050873 177.520065,372.529907 
	C178.215302,378.222290 173.481400,381.168304 168.015091,378.875336 
	C166.926178,378.418579 165.963623,376.380981 165.888962,375.020416 
	C165.642914,370.536255 165.616562,366.014099 165.912170,361.533356 
	C166.212326,356.983704 165.300781,352.957306 162.134705,349.136292 
z"/>
<path fill="#F0F0F0" opacity="1.000000" stroke="none" 
	d="
M286.493805,340.010040 
	C286.565948,325.948608 286.565948,325.948608 271.892975,326.029724 
	C265.031677,326.067657 264.482178,325.510529 264.570831,319.915436 
	C264.620026,316.811096 265.944946,315.147339 268.979492,315.140564 
	C284.787018,315.105225 300.594849,315.116180 316.402344,315.176056 
	C320.197723,315.190430 320.336639,318.006775 320.378052,320.808441 
	C320.418976,323.575531 319.865417,325.882507 316.435516,325.921631 
	C312.109619,325.970978 307.769745,326.177765 303.460571,325.913879 
	C299.401428,325.665314 297.968964,326.995453 298.048798,331.236420 
	C298.308655,345.043365 298.020447,358.860382 298.258240,372.668121 
	C298.336151,377.191132 297.308990,379.296814 292.251526,379.344849 
	C286.855621,379.396088 286.469238,376.671631 286.532104,372.456726 
	C286.690887,361.809784 286.526031,351.158051 286.493805,340.010040 
z"/>
<path fill="#1A1A1B" opacity="1.000000" stroke="none" 
	d="
M506.772583,311.238647 
	C519.481689,311.087952 517.551880,310.182892 522.059814,320.810516 
	C529.989624,339.505524 537.772217,358.263000 545.585510,377.007233 
	C547.522949,381.655090 546.680115,382.857452 541.503540,383.126465 
	C532.339722,383.602631 531.883179,383.746429 529.121582,374.979156 
	C527.273682,369.112488 524.285034,367.306915 518.382324,367.902710 
	C512.443542,368.502167 506.397003,368.233429 500.407013,368.045929 
	C497.229675,367.946442 495.339935,369.056885 494.489075,372.088348 
	C494.174988,373.207458 493.713837,374.286835 493.295135,375.374847 
	C489.997101,383.945648 489.995270,383.944946 480.715302,383.206146 
	C475.902283,382.822998 475.205170,381.733490 477.044708,377.197906 
	C482.797943,363.012787 488.590393,348.843597 494.355560,334.663330 
	C496.862762,328.496429 499.171021,322.240265 501.930786,316.189362 
	C502.801300,314.280609 504.845032,312.906921 506.772583,311.238647 
M515.123413,340.358490 
	C513.963501,337.737183 512.803528,335.115875 511.643616,332.494568 
	C511.225372,332.495728 510.807129,332.496857 510.388885,332.498016 
	C507.545319,339.889038 504.701721,347.280060 501.739594,354.979279 
	C508.453979,354.979279 514.286987,354.979279 521.075867,354.979279 
	C518.993286,349.858917 517.206421,345.465698 515.123413,340.358490 
z"/>
<path fill="#1C1C1D" opacity="1.000000" stroke="none" 
	d="
M560.147827,383.232758 
	C556.050659,383.484802 554.602295,381.648865 554.593811,378.155334 
	C554.543457,357.375397 554.460510,336.595459 554.341370,315.815765 
	C554.322021,312.446716 555.800415,311.167542 559.182129,311.080658 
	C568.826721,310.832794 568.797791,310.724487 568.804749,320.361267 
	C568.817810,338.481506 568.834229,356.601868 568.910156,374.721924 
	C568.945496,383.165436 569.010010,383.165161 560.147827,383.232758 
z"/>
<path fill="#29292B" opacity="1.000000" stroke="none" 
	d="
M536.880493,294.889252 
	C537.921753,293.779510 538.582947,292.495209 539.554688,292.185638 
	C541.316162,291.624542 543.262573,291.644135 545.131836,291.421326 
	C544.724121,293.351990 544.713257,295.508820 543.782715,297.141449 
	C543.042175,298.440674 540.791809,298.832855 539.910400,300.109894 
	C538.798767,301.720490 537.623657,303.967987 537.944946,305.662140 
	C538.183289,306.918945 540.734802,307.777924 542.307312,308.729156 
	C543.850769,309.662872 546.182861,310.149719 546.803894,311.473175 
	C547.278198,312.484039 546.007690,315.295227 544.820618,315.866669 
	C543.170044,316.661285 540.351685,316.888977 538.966309,315.963104 
	C536.567871,314.360291 534.555542,311.896332 532.972229,309.416260 
	C529.731506,304.339905 530.800293,300.763275 536.880493,294.889252 
z"/>
<path fill="#252527" opacity="1.000000" stroke="none" 
	d="
M570.479248,410.834534 
	C564.021729,411.315491 557.921387,411.919739 551.843872,411.742126 
	C550.230286,411.695007 548.686951,409.246002 547.111328,407.899780 
	C548.709778,406.890106 550.279236,405.065826 551.911560,405.007721 
	C560.245361,404.711182 568.595337,404.870758 577.608765,405.873169 
	C575.354187,407.470459 573.099609,409.067749 570.479248,410.834534 
z"/>
<path fill="#EBEBEB" opacity="1.000000" stroke="none" 
	d="
M515.271484,340.715515 
	C517.206421,345.465698 518.993286,349.858917 521.075867,354.979279 
	C514.286987,354.979279 508.453979,354.979279 501.739594,354.979279 
	C504.701721,347.280060 507.545319,339.889038 510.388885,332.498016 
	C510.807129,332.496857 511.225372,332.495728 511.643616,332.494568 
	C512.803528,335.115875 513.963501,337.737183 515.271484,340.715515 
z"/>
</svg>