<?xml version="1.0" encoding="UTF-8"?><svg id="Layer_2" xmlns="http://www.w3.org/2000/svg" viewBox="0 0 840.379 115.0001"><g id="Components"><g id="_53f0a938-c1a7-40e4-bc74-964757c6be43_10"><path d="M417.3114,4.6583c-.567-1.2598-1.8127-2.0605-3.1915-2.0605h-40.5945c-1.3745,0-2.6172.8008-3.1866,2.0508-11.6559,25.5957-41.308,89.4043-51.629,110.3516h26.1267c1.2488,0,2.3798-.7324,2.887-1.875l8.0304-18.0762h74.0875l7.8796,18.0566c.5029,1.1523,1.6394,1.8945,2.8955,1.8945h27.3761c-9.8547-20.9375-39.1797-84.8633-50.6812-110.3418ZM365.4107,73.3692s14.696-34.3359,19.3451-45.625c.2704-.6543.907-1.084,1.6174-1.084h13.0054c.7117,0,1.3483.4297,1.618,1.084,4.8151,11.7773,19.3469,45.625,19.3469,45.625h-54.9329Z" style="fill:#a18f74;"/><path d="M789.6978,4.6583c-.567-1.2598-1.8134-2.0605-3.1915-2.0605h-40.5951c-1.3739,0-2.6166.8008-3.186,2.0508-11.6565,25.5957-41.308,89.4043-51.629,110.3516h25.9009c1.3855,0,2.6416-.8203,3.2037-2.0801l7.9395-17.8711h74.0869l7.7893,17.8516c.5579,1.2695,1.8195,2.0996,3.2135,2.0996h27.149c-9.8547-20.9375-39.1803-84.8633-50.6812-110.3418ZM737.7972,73.3692s14.696-34.3359,19.3451-45.625c.2704-.6543.907-1.084,1.6168-1.084h13.0054c.7117,0,1.3489.4297,1.618,1.084,4.8151,11.7773,19.3469,45.625,19.3469,45.625h-54.9323Z" style="fill:#a18f74;"/><path d="M159.1232,5.7663c-.031-1.7677,1.3909-3.2188,3.1589-3.2189l79.2906-.0003c38.8048,0,51.6337,9.0284,51.6337,36.2706v.4749c0,19.6398-6.8109,30.5679-26.7673,35.3196,3.4852,4.5933,7.1275,9.5033,10.6115,14.7299,5.3861,8.2356,11.4042,16.7891,17.5806,25.658h-28.8074c-1.0947,0-2.0995-.5592-2.6771-1.4891-3.7667-6.0647-8.1793-12.5161-12.8623-19.1006l-10.7698-15.0465h-53.6929v10.1365c0,11.3832,0,16.8495.1238,23.7096.0177.9818-.7717,1.79-1.7538,1.79h-25.0642c0-7.3737.0863-104.0635-.0045-109.2337ZM185.8218,28.1992v28.9908h54.8011c19.9565,0,25.183-5.2266,25.183-16.6296v-.3166c0-11.0876-5.2266-15.2048-25.183-15.2048h-51.6409c-1.7453,0-3.1602,1.4149-3.1602,3.1602Z" style="fill:#a18f74;"/><path d="M492.8721,5.976c0-1.9647,1.4603-3.5796,3.425-3.5796h46.5353c1.4356,0,2.7267.8736,3.2606,2.2063l19.2567,48.07c5.2348,13.4803,10.4684,27.7543,14.5911,39.8067h.6341c4.2825-12.0524,9.3575-26.1679,14.5911-39.4896l19.7261-48.4064c.5389-1.3224,1.8248-2.1869,3.2527-2.1869h44.647c1.9647,0,3.425,1.615,3.425,3.5798v109.0239h-23.2496c-1.9555,0-3.532-1.5906-3.512-3.546.1181-11.5791.266-66.7315.4189-83.5076.0089-.9762-.7799-1.7601-1.7562-1.7601h-5.6816c-5.075,12.3706-11.4195,27.7543-17.6042,42.3455l-18.6039,44.3153c-.5476,1.3043-1.8241,2.1529-3.2386,2.1529h-27.0541c-1.4119,0-2.6865-.8454-3.2358-2.146l-18.9184-44.7989c-6.0262-14.5899-12.3707-29.6567-17.6042-41.8687h-5.9965c-.9771,0-1.7662.7865-1.7562,1.7635.1521,14.761.2986,71.7056.4172,83.5019.0196,1.9534-1.5585,3.5482-3.512,3.5482h-22.4575V5.976Z" style="fill:#a18f74;"/><path d="M132.685,37.0038c0-10.9768-1.5664-20.6794-8.433-26.4192C115.5614,3.3202,98.3794,0,65.114,0c-15.4005,0-27.2717.8576-36.3927,2.6176C7.4968,6.7142,1.2006,15.7183.1691,30.2465c-.1119,1.5793-.1691,3.2169-.1691,4.9284,0,5.3704.4193,9.9354,1.6328,13.8292,1.9825,6.3632,6.1081,10.9246,13.9921,14.2644,2.2961,1.3076,114.748,51.7316,114.748,51.7316l.0154-22.0545c0-4.9806-2.7141-9.5229-6.9865-11.6948L35.9021,44.9485s-7.8746-2.3312-7.8746-8.0028v-3.406c0-8.1804,4.3662-11.2897,37.2511-11.2897,34.8478,0,40.2458,3.1094,40.2458,12.1085v.904c0,.9513.7712,1.7225,1.7225,1.7225l25.438.0188Z" style="fill:#a18f74;"/><path d="M9.9335,88.4229h14.0331c7.2133,0,13.0695,5.8563,13.0695,13.0695v13.5077H9.9335v-26.5772h0Z" style="fill:#a18f74;"/></g></g></svg>