<svg version="1.1" id="Layer_1" xmlns="http://www.w3.org/2000/svg" xmlns:xlink="http://www.w3.org/1999/xlink" x="0px" y="0px"
	 width="100%" viewBox="0 0 640 640" enable-background="new 0 0 640 640" xml:space="preserve">
<path fill="#161618" opacity="1.000000" stroke="none" 
	d="
M419.000000,641.000000 
	C279.333344,641.000000 140.166718,641.000000 1.000037,641.000000 
	C1.000000,534.333374 1.000000,427.666748 1.000000,321.000122 
	C1.000000,214.333481 1.000000,107.666832 1.000000,1.000142 
	C214.333237,1.000095 427.666473,1.000095 640.999756,1.000047 
	C640.999878,214.333191 640.999878,427.666382 640.999939,640.999756 
	C567.166687,641.000000 493.333344,641.000000 419.000000,641.000000 
M115.281921,272.062012 
	C115.559235,274.041260 115.874405,276.016083 116.108170,278.000458 
	C119.307518,305.159760 132.851944,324.966797 157.902084,336.446899 
	C181.517349,347.269470 205.187744,357.972565 228.871933,368.643799 
	C282.471680,392.793762 336.098816,416.882843 389.707184,441.013702 
	C431.316650,459.743469 472.913025,478.502441 514.523315,497.230408 
	C516.108337,497.943817 517.777893,498.469635 519.536316,499.131104 
	C519.766724,497.997284 519.951965,497.511292 519.951782,497.025360 
	C519.943787,473.863586 520.637878,450.671143 519.650330,427.550598 
	C518.968201,411.580048 510.372864,399.591370 495.269379,393.238220 
	C473.782532,384.200043 452.159149,375.487183 430.623749,366.563721 
	C387.238953,348.586670 343.876801,330.554932 300.500122,312.558289 
	C274.349762,301.708679 248.180527,290.904480 222.037323,280.037628 
	C206.515869,273.585907 201.909286,266.639191 201.938644,249.983383 
	C201.942459,247.817383 202.021591,245.651169 202.005661,243.485504 
	C201.921555,232.044434 207.530716,224.134354 218.104813,220.785309 
	C227.720917,217.739685 237.715210,215.216095 247.720139,214.188004 
	C288.250458,210.023071 328.906708,210.503754 369.548248,212.437515 
	C386.688599,213.253052 403.842194,214.291092 420.361237,219.595367 
	C436.517761,224.783234 441.880585,231.851349 442.581512,248.668869 
	C442.884247,255.933090 443.973999,257.033417 451.183868,257.038818 
	C474.679779,257.056458 498.175720,257.048096 521.671631,257.030121 
	C523.293152,257.028900 524.914551,256.866638 526.741516,256.768219 
	C526.908569,255.682114 527.196106,254.878601 527.126343,254.107391 
	C525.973328,241.354080 525.659302,228.445435 523.395081,215.889374 
	C519.261108,192.964722 507.320618,174.893890 485.628479,165.042542 
	C474.490265,159.984207 462.707947,155.958649 450.837677,152.973755 
	C421.282776,145.541870 390.960968,143.788742 360.633240,142.740036 
	C314.968964,141.160995 269.321899,141.134125 223.901443,146.990967 
	C201.225388,149.914978 178.837769,154.225769 158.127457,164.698883 
	C136.538605,175.616287 123.063255,192.712692 117.847160,216.396698 
	C113.856949,234.514496 114.354279,252.804871 115.281921,272.062012 
M212.497055,499.658813 
	C216.996429,499.636047 221.498001,499.519531 225.994339,499.625458 
	C228.723038,499.689728 229.893661,498.732147 229.868652,495.874329 
	C229.750595,482.376740 230.275757,468.853149 229.619064,455.385254 
	C228.531250,433.074921 210.896576,416.864014 188.482361,416.768982 
	C181.816284,416.740723 175.150024,416.759003 168.483841,416.757874 
	C161.023392,416.756653 153.562943,416.757568 145.985733,416.757568 
	C145.739014,418.081573 145.464951,418.868561 145.464157,419.655792 
	C145.438629,444.987183 145.504135,470.318939 145.371033,495.649689 
	C145.349503,499.746307 147.616074,499.667633 150.503098,499.661743 
	C170.834732,499.620392 191.166519,499.651093 212.497055,499.658813 
z"/>
<path fill="#9F8E75" opacity="1.000000" stroke="none" 
	d="
M115.257248,271.597656 
	C114.354279,252.804871 113.856949,234.514496 117.847160,216.396698 
	C123.063255,192.712692 136.538605,175.616287 158.127457,164.698883 
	C178.837769,154.225769 201.225388,149.914978 223.901443,146.990967 
	C269.321899,141.134125 314.968964,141.160995 360.633240,142.740036 
	C390.960968,143.788742 421.282776,145.541870 450.837677,152.973755 
	C462.707947,155.958649 474.490265,159.984207 485.628479,165.042542 
	C507.320618,174.893890 519.261108,192.964722 523.395081,215.889374 
	C525.659302,228.445435 525.973328,241.354080 527.126343,254.107391 
	C527.196106,254.878601 526.908569,255.682114 526.741516,256.768219 
	C524.914551,256.866638 523.293152,257.028900 521.671631,257.030121 
	C498.175720,257.048096 474.679779,257.056458 451.183868,257.038818 
	C443.973999,257.033417 442.884247,255.933090 442.581512,248.668869 
	C441.880585,231.851349 436.517761,224.783234 420.361237,219.595367 
	C403.842194,214.291092 386.688599,213.253052 369.548248,212.437515 
	C328.906708,210.503754 288.250458,210.023071 247.720139,214.188004 
	C237.715210,215.216095 227.720917,217.739685 218.104813,220.785309 
	C207.530716,224.134354 201.921555,232.044434 202.005661,243.485504 
	C202.021591,245.651169 201.942459,247.817383 201.938644,249.983383 
	C201.909286,266.639191 206.515869,273.585907 222.037323,280.037628 
	C248.180527,290.904480 274.349762,301.708679 300.500122,312.558289 
	C343.876801,330.554932 387.238953,348.586670 430.623749,366.563721 
	C452.159149,375.487183 473.782532,384.200043 495.269379,393.238220 
	C510.372864,399.591370 518.968201,411.580048 519.650330,427.550598 
	C520.637878,450.671143 519.943787,473.863586 519.951782,497.025360 
	C519.951965,497.511292 519.766724,497.997284 519.536316,499.131104 
	C517.777893,498.469635 516.108337,497.943817 514.523315,497.230408 
	C472.913025,478.502441 431.316650,459.743469 389.707184,441.013702 
	C336.098816,416.882843 282.471680,392.793762 228.871933,368.643799 
	C205.187744,357.972565 181.517349,347.269470 157.902084,336.446899 
	C132.851944,324.966797 119.307518,305.159760 116.108170,278.000458 
	C115.874405,276.016083 115.559235,274.041260 115.257248,271.597656 
z"/>
<path fill="#9E8D74" opacity="1.000000" stroke="none" 
	d="
M211.997650,499.658813 
	C191.166519,499.651093 170.834732,499.620392 150.503098,499.661743 
	C147.616074,499.667633 145.349503,499.746307 145.371033,495.649689 
	C145.504135,470.318939 145.438629,444.987183 145.464157,419.655792 
	C145.464951,418.868561 145.739014,418.081573 145.985733,416.757568 
	C153.562943,416.757568 161.023392,416.756653 168.483841,416.757874 
	C175.150024,416.759003 181.816284,416.740723 188.482361,416.768982 
	C210.896576,416.864014 228.531250,433.074921 229.619064,455.385254 
	C230.275757,468.853149 229.750595,482.376740 229.868652,495.874329 
	C229.893661,498.732147 228.723038,499.689728 225.994339,499.625458 
	C221.498001,499.519531 216.996429,499.636047 211.997650,499.658813 
z"/>
</svg>