<svg xmlns="http://www.w3.org/2000/svg" viewBox="35.3326 106.554 232.7196 92.5535" width="232.7196" height="92.5535">
  <defs>
    <mask id="ai-knockout">
      <!-- White = show, Black = cut out (transparent) -->
      <rect x="35.3326" y="106.554" width="232.7196" height="92.5535" fill="white"/>
      <!-- A letter shape — punched as hole -->
      <path fill="black" d="M222.34476,135.8625c1.22758,-0.01201 2.97081,-0.1834 3.98305,0.39185c0.96097,1.25054 3.05724,6.62168 3.82924,8.41509c1.69928,3.95654 3.36926,7.9248 5.00701,11.90625c1.01078,2.40674 3.23302,7.16309 3.71351,9.89355c0.03955,0.22852 -0.27394,0.49512 -0.4922,0.58154c-1.1016,0.43652 -4.43277,0.54639 -5.47138,0.18164c-0.82913,-0.74121 -2.39217,-5.23389 -2.91075,-6.55664l-5.25165,0.07471c-2.62509,0 -5.25165,0.03516 -7.87674,0.104c-0.72366,1.53809 -1.69049,5.28369 -2.88584,6.29443c-0.79544,0.67236 -5.20917,0.57129 -5.95041,-0.57422c0.07617,-1.40479 11.68401,-29.7501 12.22162,-30.21885c0.605,-0.52778 1.33013,-0.46406 2.08455,-0.49336z"/>
      <!-- A counter — refilled white so the counter stays see-through correctly -->
      <path fill="white" d="M223.34968,144.79614c0.63576,0.40928 3.92153,8.99487 4.3859,10.34106c-1.34038,0.0498 -2.68222,0.0835 -4.0226,0.09961c-1.48687,0.01904 -2.97374,0.00146 -4.45914,-0.0498c1.02689,-2.91357 2.81699,-7.65234 4.09585,-10.39087z"/>
      <!-- I bar — punched as hole -->
      <path fill="black" d="M244.04719,135.86162c1.22319,-0.01099 3.37072,-0.17637 4.37271,0.38306c0.35304,0.66636 0.26515,15.31831 0.22266,17.35737c-0.07031,3.37207 0.31349,10.34473 -0.04981,13.55127l-1.55718,0.25195c-0.97416,0.02637 -3.255,0.16113 -3.97133,-0.28564c-0.82034,-0.5127 -0.61233,-4.76221 -0.61233,-5.62793l-0.00879,-7.69629l-0.06153,-10.01133c-0.01465,-1.39702 -0.2754,-6.73945 0.36622,-7.61616c0.45998,-0.32227 0.73684,-0.27744 1.29936,-0.3063z"/>
      <!-- I dot — punched as hole -->
      <path fill="black" d="M236.95416,126.68306c0.72219,-0.02344 1.36968,0.21665 1.71393,0.86514c0.09375,2.17925 -2.87852,2.87886 -3.88637,5.0792c-0.05713,2.96221 3.79261,1.41064 4.60856,3.51724c-0.09961,0.79819 -0.68411,1.43818 -1.28032,1.93301c-2.56943,0.98262 -3.07042,-0.76025 -4.79753,-2.5686c-2.921,-3.05859 0.95218,-6.95493 3.64173,-8.82598z"/>
      <!-- I underline — punched as hole -->
      <path fill="black" d="M251.51962,176.72461c0.42042,-0.04834 0.42335,-0.06006 0.83499,0.00879l0.13331,0.27393c-0.24903,0.71484 -0.87161,1.08545 -1.44585,1.52783c-2.40243,1.85889 -7.61013,1.61719 -10.54725,1.33301c-0.73831,-0.28125 -1.21,-0.5874 -1.32427,-1.44287c-0.05274,-0.38965 0.06592,-0.78223 0.32521,-1.07666c0.19776,-0.22266 0.74417,-0.375 1.03422,-0.38818c3.6637,-0.16846 7.32008,0.02197 10.98965,-0.23584z"/>
    </mask>
  </defs>

  <!-- Brain shape with AI letters knocked out transparently -->
  <path fill="#fcfcfc" mask="url(#ai-knockout)" d="M224.38097,107.13398c6.02511,-0.60132 10.71718,2.23813 14.29152,6.85723c2.43319,-0.08569 4.15444,-0.15674 6.47777,0.70107c5.2663,1.94429 8.03056,5.32661 9.58335,10.5605c8.78351,3.56777 10.9706,10.47554 7.80496,19.09219c0.73684,0.652 1.46197,1.30034 2.12703,2.0146c4.40348,4.72148 3.64319,13.44756 -1.42388,17.43486c-1.98933,1.56445 -3.6681,2.06836 -6.11887,2.66309c0.35743,0.9624 0.69583,1.86475 0.94632,2.85059c1.84284,7.26416 -3.71058,13.92188 -11.06729,14.09473c-3.40588,0.0791 -7.07544,-0.14502 -10.4447,0.05566c-0.33839,2.31299 0.04981,13.3125 -0.47463,14.09619c-0.334,0.49219 -0.86575,0.81592 -1.45611,0.88623c-0.55666,0.06445 -1.18657,-0.06885 -1.62017,-0.43945c-1.09721,-0.93164 -0.5552,-10.38574 -0.6929,-12.3999c-0.65041,-0.85547 -1.91755,-1.99072 -2.70713,-2.76416c-2.17683,-2.13135 -4.33609,-3.99463 -6.26682,-6.36621c-0.15674,-2.12988 -0.0249,-4.67285 0.06006,-6.81152c1.94831,1.72266 3.85121,4.09717 5.78927,5.625c2.88731,0.18164 7.07105,0.03369 10.08434,0.04541c4.74919,0.01904 9.70933,0.11719 14.43654,0.01758c0.43214,-0.78955 1.03422,-1.8501 0.52443,-2.69238c-1.2935,-0.28418 -4.8781,-0.10547 -6.44847,-0.15234c-5.65596,-0.17285 -12.16303,0.26807 -17.72963,-0.08057c-0.84671,-0.79541 -8.67072,-10.39453 -9.52914,-5.03613c-0.19483,1.21582 -0.27247,9.38525 0.24171,10.11475c2.19881,3.10986 5.97384,6.29883 8.74396,9.19043c0.09229,1.69189 0.39992,9.91699 -0.14502,11.02734c-0.18897,0.38232 -0.5215,0.61084 -0.91702,0.74854c-0.64602,0.22559 -1.4898,0.18896 -2.08162,-0.18311c-1.09135,-0.68408 -0.59621,-8.48437 -0.94486,-10.17334c-0.01172,-0.05566 -0.0249,-0.11133 -0.03809,-0.16699c-0.66799,-0.77637 -1.73151,-1.67871 -2.47128,-2.43164c-2.46835,-2.51221 -5.59737,-5.15479 -7.83133,-7.82227c-0.05567,-0.82471 -0.09522,-2.58252 -0.39552,-3.28125c-0.6592,-0.30762 -2.75986,0.45996 -3.53186,0.7002c-7.76688,2.41846 -14.3882,-0.36475 -18.09878,-7.65381c4.30972,-0.18604 6.85718,0.00439 9.87633,-3.62549c1.93513,-2.32471 2.11677,-3.86426 2.00837,-6.86572c-0.06885,-1.86621 -0.02783,-3.85107 -0.06885,-5.72607c-0.15381,-4.91396 0.26515,-10.07563 -0.15235,-14.95605c1.12504,-1.60884 4.00502,-4.67256 5.42451,-6.06753c3.1964,-0.10312 6.42943,-0.00073 9.62729,-0.02314c1.72565,-0.01201 3.59778,0.08174 5.29853,-0.14824c1.4063,-0.90806 7.83573,-8.20078 9.53061,-9.97515c5.14032,1.81567 8.10087,-2.61328 13.32762,3.98013c-1.19242,0.39097 -2.98692,1.08105 -3.28869,2.46079c-1.14408,5.24985 4.77263,3.84375 7.91044,4.69409c3.6637,0.99302 6.30784,4.8627 5.13446,8.63877c-0.63723,2.04595 -2.1534,3.10254 -3.97133,4.04839c-0.02051,1.27354 -0.15674,4.87529 0.11573,5.97832l0.66067,0.38525l0.03076,0.22412c-0.94486,0.73975 -1.94685,1.62891 -0.70315,2.80664c0.42189,0.39111 0.9888,0.5874 1.56158,0.54199c2.75986,-0.20068 1.53228,-3.8833 1.33159,-5.64551c3.53479,1.24805 4.70817,3.34277 4.6027,6.98145c-0.37648,2.28223 -0.78665,3.14355 -2.6456,4.53369c-1.48394,0.22266 -4.86785,-0.03369 -5.89327,0.75146c-2.16658,1.65967 -0.4966,4.93799 2.29549,2.28076c4.72282,-0.08789 8.35723,-2.26318 8.88166,-7.36084c0.5508,-5.36133 -2.49325,-8.16797 -7.11646,-9.95435c6.92017,-6.33457 3.2257,-16.31426 -5.84493,-17.31211c-1.13676,-0.12495 -2.2574,0.05464 -3.43225,-0.11528l-0.11426,-0.2228c0.48781,-1.52534 7.13844,-2.5333 -0.31202,-8.08286c-2.93272,-2.18525 -6.86011,-2.27417 -10.34949,-1.59316l-0.15821,-0.27129c-0.60354,-1.03623 -1.2144,-2.04463 -1.97028,-2.98608c-3.83217,-4.77729 -12.18354,-5.53623 -16.45078,-0.93662c-1.17924,1.27061 -1.55425,2.35283 -1.93513,4.00503c-2.18709,0.21489 -4.39469,0.02666 -6.49828,0.2833c-1.92634,1.39204 -3.13781,3.31025 -4.83855,5.0335c-1.60992,0.06343 -3.21984,0.08115 -4.82976,0.05317c-2.58554,-2.23359 -4.45035,-1.0998 -3.06456,2.16489c-0.92581,1.19136 -1.8443,2.42021 -3.0045,3.38599c-2.50351,0.38013 -5.1037,1.24863 -7.47097,2.16343c-0.37208,0.19189 -0.71926,0.23511 -1.1558,0.12407c-1.23198,-0.31274 -1.48687,0.52588 -2.01423,1.50879c0.45998,1.1269 0.89359,2.11274 2.2574,2.15669c1.65387,0.05317 2.63388,-1.63989 4.00209,-2.25996c1.99519,-0.90366 4.42838,-0.64248 6.24192,-2.00376c1.58502,-1.20029 2.60898,-2.91152 4.06508,-4.29492l0.14502,-0.13579c1.68024,-0.17886 4.00942,0.19277 5.52412,-0.24111c2.25301,-0.64556 3.59632,-4.36011 5.77462,-5.10996c1.89411,-0.65186 5.06268,0.36079 6.68432,-0.98306c1.53668,-1.27368 1.0181,-3.88433 3.12902,-5.10132c1.95417,-1.1269 4.71843,-1.42573 6.88794,-0.91729c2.64414,0.61963 4.04751,1.91191 5.40107,4.07944c-2.25447,1.72603 -4.67888,4.67461 -6.71948,6.69785c-0.94046,0.93252 -1.77545,2.0165 -2.88438,2.76826c-1.49273,0.29473 -9.26693,0.29224 -10.808,0.16084c-7.35378,-0.62681 -6.35325,3.97588 -11.33536,7.09556c-0.79251,0.49614 -5.85519,0.12729 -7.73172,0.49658l-0.19337,0.03999c-1.26274,1.27661 -2.20613,3.44048 -3.19201,4.96348c-1.52935,2.36338 -2.8419,5.33965 -4.51774,7.56694c-1.50738,-1.64883 -6.31956,-9.2001 -7.22193,-11.27461c-0.29444,-0.67617 -0.48781,-1.36582 -0.46291,-2.10879c0.03955,-1.13774 0.44972,-2.27388 1.06498,-3.22427c2.79502,-4.32026 7.28053,-1.75679 8.63702,-3.36475c0.9097,-1.07827 -0.10254,-4.71035 3.20959,-7.71284c3.2799,-2.97422 7.29371,-2.41875 11.36759,-2.23447c1.20268,-1.01719 1.8443,-1.89287 3.25353,-2.87666c2.31161,-1.61514 6.12473,1.10186 6.68285,-1.55449c-0.37062,-1.89902 -4.6276,-1.73452 -6.11447,-1.53384c-2.16219,0.2918 -3.57434,1.44756 -4.81951,3.13447c-7.94413,-1.29697 -14.90678,1.91411 -16.21932,10.35718c-6.61693,0.37661 -9.39584,2.91548 -10.42127,9.38364c-0.7134,0.0208 -2.79649,0.11938 -3.34143,-0.0438c-1.56744,-0.66709 0.20069,-4.80205 0.6885,-5.74644c2.22664,-4.31016 5.45088,-5.752 9.80162,-7.12354c4.24234,-8.65884 8.07304,-10.31851 17.40442,-10.5687c5.69991,-4.05674 10.4447,-4.85933 16.40536,-0.56646c3.72962,-2.20576 3.70033,-2.87314 8.34404,-3.40093z"/>

  <!-- SYSTEM letters — unchanged, solid white -->
  <path fill="#fcfcfc" d="M171.88058,137.74644c1.31548,-0.08687 2.5123,-0.08013 3.81898,0.07764c1.15727,1.28408 2.69101,4.54937 3.63441,6.14297c1.4312,2.46372 2.85655,4.94165 4.30679,7.39526c0.69876,1.18066 1.47808,2.79053 2.40243,3.77637c1.1895,-1.36963 1.98347,-3.23584 2.85215,-4.82959c0.94486,-1.72998 6.24485,-11.70996 7.21168,-12.3668c0.81741,-0.55547 3.30627,-0.22705 4.22183,0.05508c0.28712,0.08848 0.57277,0.2395 0.70754,0.51621c0.28272,0.58403 0.32228,1.44858 0.3545,2.0959c0.11133,2.21499 0.19483,20.91299 -0.18458,21.82998c-0.37355,0.89941 -1.5689,1.28613 -2.39657,1.6333c-2.99571,-0.74121 -2.38046,-1.74463 -2.44638,-4.61279c-0.04395,-1.85889 0.02197,-3.76465 0.03516,-5.62793c0,-1.87793 0.04248,-3.82617 -0.13331,-5.69092c-1.12211,1.16162 -1.63336,2.46826 -2.44638,3.75146c-1.84137,2.90479 -4.1061,7.91162 -6.2053,10.41211c-1.12211,0.06152 -1.878,0.04687 -3.00597,-0.00293c-2.18562,-2.41406 -4.50895,-7.17627 -6.30345,-10.06055c-0.90238,-1.45166 -1.37114,-2.64844 -2.61044,-3.96533c-0.39406,3.47607 -0.1128,7.87793 -0.14356,11.43457c-0.01611,1.99658 0.16114,3.46729 -0.13477,5.5166c-1.36528,0.45703 -3.56263,0.89795 -4.75652,-0.08496c-0.34572,-1.06934 -0.19337,-26.3562 0.04102,-26.91416c0.334,-0.3728 0.67825,-0.37588 1.18071,-0.48149z"/>
  <path fill="#fcfcfc" d="M144.36178,137.74453c6.14157,-0.39697 12.93429,0.09331 19.14106,-0.06182c0.8848,-0.02212 1.82819,0.1418 1.87214,1.19663c0.04981,1.16733 0.37648,3.23818 -1.34184,3.23613c-1.79596,0.12041 -3.47913,0.07017 -5.23847,0.06768c-3.44397,-0.03062 -6.8894,-0.01392 -10.33337,0.05039c-0.22706,2.20415 -0.13917,4.63608 -0.04688,6.85386c2.60605,0.28711 12.94968,-0.33398 14.06153,0.56104c0.3882,0.78516 0.47316,3.16113 -0.1377,3.86279c-1.40483,0.56543 -10.59998,0.36914 -12.58492,0.37646c-0.57277,0.00586 -0.6592,-0.01025 -1.19389,0.1582c-0.41896,0.71338 -0.18458,5.7832 -0.09668,6.89941c1.28471,0.12158 3.20519,0.0542 4.54264,0.05273l7.81961,0.00439c1.14555,0.00146 2.81406,-0.06592 3.8893,0.14941c1.14994,0.22998 1.27885,4.38574 -0.30616,4.4458c-6.31663,0.24463 -12.70797,0.11719 -19.0347,0.06445c-0.56428,-0.00586 -1.41978,-0.19629 -1.90056,-0.47168c-0.48195,-1.83252 -0.01773,-23.20869 -0.1125,-26.52173c-0.01216,-0.42642 0.6031,-0.73213 1.0014,-0.92417z"/>
  <path fill="#fcfcfc" d="M44.27412,137.61782c2.21272,-0.14487 12.14091,-0.39536 13.71113,0.40503c0.68938,0.79351 0.78035,2.80649 0.26222,3.63618c-2.06155,1.60356 -14.92523,-0.64937 -16.49209,1.604c-2.95499,4.24966 0.9346,6.84097 5.60615,6.1144c2.1761,-0.33838 8.49932,0.01172 10.24182,2.14307c5.18368,6.64014 2.10256,14.00537 -7.06182,14.19727c-2.20965,0.00146 -12.25693,0.49951 -13.5182,-0.43799c-0.49968,-0.37207 -0.68044,-0.95947 -0.73948,-1.55566c-0.06446,-0.65186 0.03516,-1.32422 0.47111,-1.83691c0.42233,-0.49658 1.03348,-0.70459 1.65724,-0.81445c1.13705,-0.20215 2.4184,-0.08936 3.57405,-0.08203c3.11613,0.01904 6.39998,0.2666 9.50058,0.04834c1.03275,-0.07324 2.22093,-0.33398 2.90577,-1.18066c0.65364,-0.80859 0.82752,-1.92773 0.71663,-2.93701c-0.1254,-1.13965 -0.69656,-1.93945 -1.75114,-2.40234c-2.61411,-1.14697 -7.83104,-0.11865 -10.93969,-0.66211c-1.3707,-0.24023 -2.66377,-0.78955 -3.7494,-1.66553c-1.62662,-1.31543 -2.56723,-3.22705 -2.78081,-5.28809c-0.22618,-2.18057 0.2212,-4.53501 1.65328,-6.24624c1.76403,-2.10747 4.10859,-2.79521 6.73266,-3.03926z"/>
  <path fill="#fcfcfc" d="M97.39885,137.61094c1.72037,-0.09067 12.90573,-0.32476 13.74394,0.32695c0.47565,0.36987 0.67825,1.23999 0.74695,1.80806c0.06988,0.57773 -0.02051,1.20293 -0.40724,1.65996c-0.41076,0.48574 -1.04286,0.69785 -1.65211,0.79658c-1.1788,0.19116 -2.52724,0.05068 -3.72259,0.04014c-2.7039,-0.02388 -5.47431,-0.10825 -8.17221,0.04658c-1.04784,0.06021 -2.19969,0.17607 -2.92291,1.02495c-0.73552,0.86353 -1.0058,1.97256 -0.87322,3.08906c0.11763,0.98936 0.78094,2.13926 1.73297,2.53916c1.04169,0.43799 2.41605,0.42041 3.52615,0.41895c3.63382,-0.00293 8.01957,-0.49805 11.02993,1.97754c1.59996,1.31543 2.51464,3.30029 2.67783,5.34375c0.17828,2.22949 -0.38805,4.67285 -1.90041,6.37207c-1.79538,2.01855 -4.13833,2.54004 -6.70453,2.66162c-4.32628,0.13623 -8.93528,-0.05713 -13.27371,-0.08643c-0.98397,-0.00732 -1.25527,-0.86865 -1.34975,-1.70801c-0.1629,-1.44873 0.18985,-2.51953 1.79772,-2.81543c4.18169,-0.2373 8.5919,0.04541 12.79337,-0.07617c2.466,-0.07178 4.06919,-1.75342 3.768,-4.22314c-0.3444,-3.03076 -4.74333,-2.93115 -7.13536,-2.78174c-5.30131,0.33105 -11.06128,-0.50244 -11.76751,-7.04004c-0.26544,-2.45654 -0.05728,-4.5832 1.69459,-6.60044c1.84123,-2.12021 3.68363,-2.53345 6.3701,-2.77397z"/>
  <path fill="#fcfcfc" d="M62.32573,137.5853c1.50606,-0.13887 2.92906,-0.09507 4.43263,-0.03003c1.8175,2.04434 4.15269,6.61274 5.88522,9.01553c0.78592,1.09131 1.17133,2.02148 2.22371,3.04248c2.76016,-2.73047 4.84836,-8.64551 7.67678,-11.53652c0.69876,-0.71426 4.44947,-0.90073 5.08465,-0.01333c0.02476,1.5249 -4.81365,8.44146 -5.97414,10.25054c-1.23681,1.93359 -3.42346,4.57324 -4.14478,6.68115c-0.85066,2.48584 0.65569,7.58789 -0.44972,9.6665c-0.25929,0.48779 -0.70066,0.8042 -1.22568,0.95508c-0.7263,0.20801 -2.59785,0.20508 -3.24841,-0.25049c-1.01576,-0.71191 0.29488,-8.87256 -0.89725,-11.14893c-1.28486,-2.45361 -10.03336,-14.47588 -9.96949,-15.79043c0.0208,-0.42817 0.31715,-0.58652 0.60647,-0.84155z"/>
  <path fill="#fcfcfc" d="M117.11151,137.61929c2.37489,-0.1396 20.96383,-0.23818 22.244,0.29458c0.31627,0.3832 0.42804,0.74692 0.49982,1.23853c0.10137,0.69434 0.22442,1.92422 -0.26134,2.4917c-0.98763,1.15371 -7.62097,0.69756 -9.37943,0.75264c-0.1377,1.7417 -0.06988,3.97383 -0.07046,5.75903l-0.00396,9.53467c-0.00469,1.58057 0.21036,6.14209 -0.17066,7.35352c-0.80716,0.85986 -3.7286,0.83203 -4.67258,0.10254c-0.66785,-1.70801 -0.0523,-19.00928 -0.36051,-22.49297l-0.02402,-0.25957c-2.85904,-0.21753 -5.80641,0.21606 -8.63644,-0.14561c-1.07142,-0.13696 -0.97752,-3.34541 -0.59372,-4.0519c0.20347,-0.37441 1.04447,-0.50947 1.4293,-0.57715z"/>
</svg>