<svg width="952" height="1289" viewBox="0 0 952 1289" fill="none" xmlns="http://www.w3.org/2000/svg">
<path d="M878.382 903.386C878.132 906.766 875.102 909.286 871.722 908.936L678.262 887.797C675.082 887.447 672.762 884.716 672.912 881.536C674.072 854.596 674.582 736.266 598.892 653.756C578.142 631.176 552.822 612.546 523.052 597.896C516.432 594.636 517.682 584.916 524.892 583.326C601.372 566.516 667.892 537.356 723.942 496.046C727.012 493.786 731.272 493.996 734.002 496.646C740.532 502.986 746.862 509.576 752.992 516.356C889.132 666.626 881.312 865.186 878.382 903.386Z" fill="url(#paint0_linear_2094_13245)"/>
<path d="M878.372 5.56632C878.112 2.16632 875.092 -0.333679 871.702 0.0363212L678.262 21.1663C675.102 21.5063 672.752 24.2263 672.892 27.4063C674.082 54.3763 674.592 172.716 598.872 255.176C539.702 319.606 443.372 351.836 312.612 351.176V281.436C312.612 220.426 263.152 170.966 202.142 170.966C160.332 170.966 124.882 198.106 112.382 235.716C99.0519 238.416 78.1319 247.466 68.6519 277.296C68.6519 277.296 60.2819 302.696 73.2819 326.176C73.2819 326.176 75.5719 301.556 107.542 301.476V459.576V467.746V598.476C107.542 673.736 168.552 734.746 243.812 734.746H307.782C310.442 734.746 312.602 732.586 312.602 729.926V557.636C504.842 558.466 653.002 502.976 752.992 392.586C889.112 242.316 881.302 43.7563 878.372 5.56632Z" fill="#28C73F"/>
<path d="M0 1288.34V1031H53.09V1144.46H56.4L146.76 1031H210.39L117.21 1146.22L211.49 1288.34H147.98L79.2 1182.54L53.09 1215.21V1288.34H0Z" fill="white"/>
<path d="M395.62 1204.42V1190.07C395.62 1174.05 393.38 1160.05 388.89 1148.07C384.38 1136.1 378.12 1126.15 370.07 1118.23C362 1110.29 352.6 1104.36 341.87 1100.38C331.12 1096.42 319.53 1094.43 307.1 1094.43C288.63 1094.43 272.55 1098.52 258.86 1106.69C245.17 1114.87 234.57 1126.27 227.05 1140.89C219.53 1155.53 215.77 1172.52 215.77 1191.9C215.77 1211.76 219.53 1228.95 227.05 1243.46C234.57 1257.97 245.28 1269.16 259.23 1277.04C273.17 1284.92 289.82 1288.87 309.18 1288.87C324.71 1288.87 338.44 1286.48 350.32 1281.7C362.22 1276.92 371.95 1270.22 379.5 1261.61C387 1253.03 391.98 1243.01 394.47 1231.5H344.7C343.06 1234.79 340.94 1237.65 338.37 1240.1C334.94 1243.37 330.81 1245.81 326 1247.46C321.16 1249.1 315.85 1249.91 310.05 1249.91C301.31 1249.91 293.75 1248.07 287.38 1244.4C280.99 1240.71 276.08 1235.49 272.6 1228.7C269.13 1221.91 267.4 1213.86 267.4 1204.55V1204.42H395.62ZM272.67 1153.48C276.1 1147.38 280.86 1142.53 286.94 1138.9C293.04 1135.25 300.04 1133.44 307.97 1133.44C315.58 1133.44 322.26 1135.08 328.03 1138.4C333.78 1141.7 338.31 1146.27 341.57 1152.07C344.84 1157.87 346.48 1164.54 346.48 1172.05H267.45C267.76 1165.29 269.51 1159.1 272.67 1153.48Z" fill="white"/>
<path d="M577.2 1194C568.2 1185.66 554.55 1179.62 536.24 1175.86L502.17 1169C493.41 1167.12 487.24 1164.62 483.65 1161.52C480.05 1158.42 478.27 1154.62 478.27 1150.11C478.27 1144.47 481.04 1139.96 486.61 1136.57C492.16 1133.18 498.98 1131.48 507.07 1131.48C513.13 1131.48 518.33 1132.48 522.71 1134.49C527.07 1136.48 530.61 1139.14 533.31 1142.45C536.01 1145.77 537.76 1149.46 538.58 1153.55L586.4 1150.61C584.1 1133.29 576.11 1119.6 562.42 1109.55C548.73 1099.49 530.01 1094.46 506.21 1094.46C490.11 1094.46 476.08 1096.83 464.1 1101.58C452.13 1106.33 442.84 1113.06 436.27 1121.8C429.7 1130.56 426.4 1140.98 426.4 1153.06C426.4 1167.13 430.87 1178.68 439.83 1187.76C448.77 1196.85 462.44 1203.22 480.84 1206.89L513.45 1213.39C521.61 1215.03 527.67 1217.39 531.59 1220.45C535.51 1223.52 537.52 1227.4 537.59 1232.15C537.52 1237.79 534.67 1242.39 529.07 1245.95C523.47 1249.51 516.09 1251.28 506.95 1251.28C497.62 1251.28 489.98 1249.31 484.01 1245.33C479.03 1242.01 475.58 1237.41 473.7 1231.53H421.52C424.18 1249.12 432.78 1263.03 447.31 1273.29C462.06 1283.71 481.9 1288.91 506.83 1288.91C523.18 1288.91 537.62 1286.32 550.18 1281.13C562.72 1275.93 572.61 1268.68 579.84 1259.36C587.09 1250.05 590.7 1239.23 590.7 1226.87C590.69 1213.29 586.18 1202.34 577.2 1194Z" fill="white"/>
<path d="M719.05 1244.02C717.74 1244.26 715.86 1244.61 713.41 1245.06C710.96 1245.51 708.51 1245.74 706.05 1245.74C702.53 1245.74 699.45 1245.21 696.79 1244.15C694.13 1243.09 692.07 1241.23 690.6 1238.57C689.13 1235.91 688.39 1232.17 688.39 1227.35V1136.13H723.82V1096.9H688.39V1051.78H679.7C655.66 1051.78 636.17 1071.27 636.17 1095.31V1096.89H610.42V1136.12H636.17V1234.2C636.09 1246.54 638.66 1256.76 643.89 1264.85C649.12 1272.94 656.46 1278.91 665.9 1282.75C675.34 1286.59 686.35 1288.27 698.94 1287.78C705.72 1287.53 711.49 1286.86 716.23 1285.76C720.97 1284.65 724.65 1283.7 727.26 1282.88L719.05 1244.02Z" fill="white"/>
<path d="M757.79 1285.21V1096.9H808.42V1129.76H810.38C813.81 1118.07 819.58 1109.22 827.67 1103.22C835.76 1097.21 845.08 1094.21 855.62 1094.21C858.23 1094.21 861.05 1094.38 864.08 1094.7C867.1 1095.03 869.76 1095.48 872.05 1096.05V1142.39C869.6 1141.65 866.2 1141 861.87 1140.43C857.54 1139.86 853.57 1139.57 849.98 1139.57C842.3 1139.57 835.45 1141.23 829.44 1144.54C823.43 1147.85 818.69 1152.45 815.22 1158.33C811.74 1164.22 810.01 1171 810.01 1178.68V1285.22H757.79V1285.21Z" fill="white"/>
<path d="M951.121 1034.12V1285.21H898.891V1034.12H951.121Z" fill="white"/>
<defs>
<linearGradient id="paint0_linear_2094_13245" x1="514.072" y1="355.479" x2="795.895" y2="831.054" gradientUnits="userSpaceOnUse">
<stop offset="0.00119344" stop-color="#28C73F" stop-opacity="0"/>
<stop offset="0.9997" stop-color="#28C73F"/>
</linearGradient>
</defs>
</svg>
