<svg width="228" height="255" viewBox="0 0 228 255" fill="none" xmlns="http://www.w3.org/2000/svg">
<path d="M227.531 253.019C227.461 253.966 226.613 254.672 225.666 254.574L171.482 248.653C170.591 248.555 169.941 247.79 169.983 246.9C170.308 239.354 170.451 206.213 149.252 183.103C143.44 176.779 136.349 171.561 128.011 167.458C126.157 166.545 126.507 163.823 128.526 163.377C149.947 158.669 168.577 150.502 184.276 138.932C185.136 138.299 186.329 138.358 187.093 139.1C188.922 140.876 190.695 142.722 192.412 144.62C230.542 186.708 228.352 242.32 227.531 253.019Z" fill="url(#paint0_linear_2094_13005)"/>
<path d="M227.528 1.55901C227.455 0.60674 226.609 -0.0934563 225.66 0.0101728L171.482 5.92823C170.596 6.02346 169.938 6.78528 169.978 7.67593C170.311 15.2297 170.454 48.3742 149.246 71.4695C132.674 89.5149 105.694 98.5419 69.0707 98.357V78.8243C69.0707 61.7367 55.2181 47.884 38.1305 47.884C26.4204 47.884 16.4916 55.4854 12.9906 66.0191C9.25713 66.7754 3.39788 69.3101 0.742735 77.6648C0.742735 77.6648 -1.60152 84.7788 2.0395 91.3551C2.0395 91.3551 2.68089 84.4595 11.635 84.4371V128.718V131.006V167.621C11.635 188.699 28.7226 205.787 49.8013 205.787H67.718C68.463 205.787 69.0679 205.182 69.0679 204.437V156.182C122.91 156.415 164.407 140.873 192.412 109.955C230.536 67.8677 228.349 12.2552 227.528 1.55901Z" fill="#28C73F"/>
<defs>
<linearGradient id="paint0_linear_2094_13005" x1="125.496" y1="99.5621" x2="204.428" y2="232.761" gradientUnits="userSpaceOnUse">
<stop offset="0.00119344" stop-color="#28C73F" stop-opacity="0"/>
<stop offset="0.9997" stop-color="#28C73F"/>
</linearGradient>
</defs>
</svg>
